<?xml version="1.0" standalone="no"?>
<!DOCTYPE svg PUBLIC "-//W3C//DTD SVG 1.1//EN" "http://www.w3.org/Graphics/SVG/1.1/DTD/svg11.dtd" >
<svg>
<metadata>
Created by FontForge 20090622 at Tue Jul 18 15:14:13 2017
 By deploy user
Copyright &#194;&#169; 2008 - 2009 Linotype GmbH, www.linotype.com. All rights reserved. This font software may not be reproduced, modified, disclosed or transferred without the express written approval of Linotype GmbH.
</metadata>
<defs>
<font id="DINNextLTPro-Regular" horiz-adv-x="542" >
  <font-face 
    font-family="DIN Next LT Pro"
    font-weight="400"
    font-stretch="normal"
    units-per-em="1000"
    panose-1="2 11 5 3 2 2 3 5 2 3"
    ascent="750"
    descent="-250"
    x-height="479"
    cap-height="680"
    bbox="-155.118 -213 1008 917"
    underline-thickness="50"
    underline-position="-50"
    unicode-range="U+0020-U+FB04"
  />
<missing-glyph horiz-adv-x="477" 
d="M0 10v660q0 10 10 10h457q10 0 10 -10v-660q0 -10 -10 -10h-457q-10 0 -10 10zM49 53q0 -6 6 -6h367q6 0 6 6v574q0 6 -6 6h-367q-6 0 -6 -6v-574zM208 231q-10 0 -10 10v24q0 34 20 60l44 60q28 34 28 66q0 26 -16.5 42t-42.5 16q-53 0 -65 -54q-2 -10 -12 -9l-37 6
q-10 2 -8 11q9 46 41 72.5t83 26.5t83.5 -31.5t32.5 -79.5q0 -46 -32 -84l-43 -60q-17 -21 -17 -48v-18q0 -10 -10 -10h-39zM195 124v49q0 10 10 10h45q10 0 10 -10v-49q0 -10 -10 -10h-45q-10 0 -10 10z" />
    <glyph glyph-name="IJ" unicode="IJ" horiz-adv-x="748" 
d="M84 10v660q0 10 10 10h69q10 0 10 -10v-660q0 -10 -10 -10h-69q-10 0 -10 10zM290 59q-7 7 0 14l50 43q7 6 15 -2q44 -42 99 -42q126 0 126 146v452q0 10 10 10h69q10 0 10 -10v-452q0 -111 -58 -170t-160 -59q-48 0 -92 19.5t-69 50.5z" />
    <glyph glyph-name="ij" unicode="ij" horiz-adv-x="496" 
d="M158 587h-68q-10 0 -10 10v73q0 10 10 10h68q10 0 10 -10v-73q0 -10 -10 -10zM156 0h-64q-10 0 -10 10v459q0 10 10 10h64q10 0 10 -10v-459q0 -10 -10 -10zM406 587h-68q-10 0 -10 10v73q0 10 10 10h68q10 0 10 -10v-73q0 -10 -10 -10zM271 -180h-20q-10 0 -10 10v58
q0 10 10 10h16q36 0 49.5 13t13.5 51v507q0 10 10 10h64q10 0 10 -10v-505q0 -76 -34.5 -110t-108.5 -34z" />
    <glyph glyph-name="napostrophe" unicode="&#x22;n" horiz-adv-x="544" 
d="M17 517q-10 0 -10 11v142q0 10 10 10h60q10 0 10 -10v-64q0 -12 -6 -20l-50 -61q-7 -8 -14 -8zM457 0h-64q-10 0 -10 10v280q0 122 -107 122q-49 0 -79.5 -32t-30.5 -85v-285q0 -10 -10 -10h-64q-10 0 -10 10v459q0 10 10 10h64q10 0 10 -10v-44h1q40 65 134 65
q77 0 121.5 -49t44.5 -131v-300q0 -10 -10 -10z" />
    <glyph glyph-name="f_f" unicode="ff" horiz-adv-x="636" 
d="M172 0h-64q-10 0 -10 10v395q0 6 -6 6h-41q-10 0 -10 10v48q0 10 10 10h41q6 0 6 6v41q0 83 35 118.5t111 35.5h37q10 0 10 -10v-58q0 -10 -10 -10h-26q-45 0 -59 -14t-14 -58v-45q0 -6 6 -6h93q10 0 10 -10v-48q0 -10 -10 -10h-93q-6 0 -6 -6v-395q0 -10 -10 -10zM490 0
h-64q-10 0 -10 10v395q0 6 -6 6h-41q-10 0 -10 10v48q0 10 10 10h41q6 0 6 6v41q0 83 35 118.5t111 35.5h37q10 0 10 -10v-58q0 -10 -10 -10h-26q-45 0 -59 -14t-14 -58v-45q0 -6 6 -6h93q10 0 10 -10v-48q0 -10 -10 -10h-93q-6 0 -6 -6v-395q0 -10 -10 -10z" />
    <glyph glyph-name="fi" unicode="fi" horiz-adv-x="566" 
d="M172 0h-64q-10 0 -10 10v395q0 6 -6 6h-41q-10 0 -10 10v48q0 10 10 10h41q6 0 6 6v41q0 83 35 118.5t111 35.5h37q10 0 10 -10v-58q0 -10 -10 -10h-26q-45 0 -59 -14t-14 -58v-45q0 -6 6 -6h93q10 0 10 -10v-48q0 -10 -10 -10h-93q-6 0 -6 -6v-395q0 -10 -10 -10z
M476 587h-68q-10 0 -10 10v73q0 10 10 10h68q10 0 10 -10v-73q0 -10 -10 -10zM474 0h-64q-10 0 -10 10v459q0 10 10 10h64q10 0 10 -10v-459q0 -10 -10 -10z" />
    <glyph glyph-name="fl" unicode="fl" horiz-adv-x="595" 
d="M172 0h-64q-10 0 -10 10v395q0 6 -6 6h-41q-10 0 -10 10v48q0 10 10 10h41q6 0 6 6v41q0 83 35 118.5t111 35.5h37q10 0 10 -10v-58q0 -10 -10 -10h-26q-45 0 -59 -14t-14 -58v-45q0 -6 6 -6h93q10 0 10 -10v-48q0 -10 -10 -10h-93q-6 0 -6 -6v-395q0 -10 -10 -10z
M549 -5h-34q-62 0 -89.5 30.5t-27.5 95.5v549q0 10 10 10h64q10 0 10 -10v-544q0 -29 11.5 -41t36.5 -12h19q10 0 10 -10v-58q0 -10 -10 -10z" />
    <glyph glyph-name="f_f_i" unicode="ffi" horiz-adv-x="884" 
d="M172 0h-64q-10 0 -10 10v395q0 6 -6 6h-41q-10 0 -10 10v48q0 10 10 10h41q6 0 6 6v41q0 83 35 118.5t111 35.5h37q10 0 10 -10v-58q0 -10 -10 -10h-26q-45 0 -59 -14t-14 -58v-45q0 -6 6 -6h93q10 0 10 -10v-48q0 -10 -10 -10h-93q-6 0 -6 -6v-395q0 -10 -10 -10zM490 0
h-64q-10 0 -10 10v395q0 6 -6 6h-41q-10 0 -10 10v48q0 10 10 10h41q6 0 6 6v41q0 83 35 118.5t111 35.5h37q10 0 10 -10v-58q0 -10 -10 -10h-26q-45 0 -59 -14t-14 -58v-45q0 -6 6 -6h93q10 0 10 -10v-48q0 -10 -10 -10h-93q-6 0 -6 -6v-395q0 -10 -10 -10zM794 587h-68
q-10 0 -10 10v73q0 10 10 10h68q10 0 10 -10v-73q0 -10 -10 -10zM792 0h-64q-10 0 -10 10v459q0 10 10 10h64q10 0 10 -10v-459q0 -10 -10 -10z" />
    <glyph glyph-name="f_f_l" unicode="ffl" horiz-adv-x="913" 
d="M172 0h-64q-10 0 -10 10v395q0 6 -6 6h-41q-10 0 -10 10v48q0 10 10 10h41q6 0 6 6v41q0 83 35 118.5t111 35.5h37q10 0 10 -10v-58q0 -10 -10 -10h-26q-45 0 -59 -14t-14 -58v-45q0 -6 6 -6h93q10 0 10 -10v-48q0 -10 -10 -10h-93q-6 0 -6 -6v-395q0 -10 -10 -10zM490 0
h-64q-10 0 -10 10v395q0 6 -6 6h-41q-10 0 -10 10v48q0 10 10 10h41q6 0 6 6v41q0 83 35 118.5t111 35.5h37q10 0 10 -10v-58q0 -10 -10 -10h-26q-45 0 -59 -14t-14 -58v-45q0 -6 6 -6h93q10 0 10 -10v-48q0 -10 -10 -10h-93q-6 0 -6 -6v-395q0 -10 -10 -10zM867 -5h-34
q-62 0 -89.5 30.5t-27.5 95.5v549q0 10 10 10h64q10 0 10 -10v-544q0 -29 11.5 -41t36.5 -12h19q10 0 10 -10v-58q0 -10 -10 -10z" />
    <glyph glyph-name=".notdef" horiz-adv-x="477" 
d="M0 10v660q0 10 10 10h457q10 0 10 -10v-660q0 -10 -10 -10h-457q-10 0 -10 10zM49 53q0 -6 6 -6h367q6 0 6 6v574q0 6 -6 6h-367q-6 0 -6 -6v-574zM208 231q-10 0 -10 10v24q0 34 20 60l44 60q28 34 28 66q0 26 -16.5 42t-42.5 16q-53 0 -65 -54q-2 -10 -12 -9l-37 6
q-10 2 -8 11q9 46 41 72.5t83 26.5t83.5 -31.5t32.5 -79.5q0 -46 -32 -84l-43 -60q-17 -21 -17 -48v-18q0 -10 -10 -10h-39zM195 124v49q0 10 10 10h45q10 0 10 -10v-49q0 -10 -10 -10h-45q-10 0 -10 10z" />
    <glyph glyph-name=".null" horiz-adv-x="500" 
 />
    <glyph glyph-name="nonmarkingreturn" horiz-adv-x="333" 
 />
    <glyph glyph-name="space" unicode=" " horiz-adv-x="240" 
 />
    <glyph glyph-name="exclam" unicode="!" horiz-adv-x="288" 
d="M123 184q-10 0 -10 10l-16 476q0 10 10 10h74q10 0 10 -10l-16 -476q0 -10 -10 -10h-42zM96 10v86q0 10 10 10h76q10 0 10 -10v-86q0 -10 -10 -10h-76q-10 0 -10 10z" />
    <glyph glyph-name="quotedbl" unicode="&#x22;" horiz-adv-x="329" 
d="M208 503q-10 0 -10 10v157q0 10 10 10h44q10 0 10 -10v-157q0 -10 -10 -10h-44zM77 503q-10 0 -10 10v157q0 10 10 10h44q10 0 10 -10v-157q0 -10 -10 -10h-44z" />
    <glyph glyph-name="numbersign" unicode="#" horiz-adv-x="517" 
d="M79 10l28 204h-73q-10 0 -10 10v43q0 10 10 10h81l19 140h-75q-10 0 -10 10v42q0 10 10 10h84l26 191q2 10 11 10h45q11 0 9 -10l-26 -191h133l26 191q2 10 11 10h45q11 0 9 -10l-26 -191h77q10 0 10 -10v-42q0 -10 -10 -10h-86l-19 -140h79q10 0 10 -10v-43
q0 -10 -10 -10h-87l-28 -204q-2 -10 -11 -10h-45q-11 0 -9 10l28 204h-133l-28 -204q-2 -10 -11 -10h-45q-11 0 -9 10zM180 277h133l19 140h-133z" />
    <glyph glyph-name="dollar" unicode="$" 
d="M61 56q-9 6 -1 14l37 50q6 7 14 1q68 -49 141 -54v240q-89 16 -134.5 64t-45.5 122q0 83 49.5 136t130.5 61v51q0 10 10 10h29q10 0 10 -10v-51q83 -7 149 -50q7 -6 2 -14l-32 -49q-6 -8 -14 -3q-53 31 -105 37v-230q182 -31 182 -186q0 -84 -48.5 -138.5t-133.5 -64.5
v-53q0 -10 -10 -10h-29q-10 0 -10 10v50q-108 4 -191 67zM252 390v221q-45 -6 -71.5 -35.5t-26.5 -75.5q0 -43 22.5 -70t75.5 -40zM301 70q47 8 73.5 39t26.5 81q0 85 -100 108v-228z" />
    <glyph glyph-name="percent" unicode="%" horiz-adv-x="778" 
d="M157 -1l395 682q6 10 16 10h48q11 0 5 -10l-395 -682q-6 -10 -15 -10h-48q-5 0 -6.5 3t0.5 7zM198 330q-42 0 -72.5 20.5t-42.5 56.5q-8 25 -8 102t8 102q12 36 42.5 56.5t72.5 20.5t72.5 -20.5t42.5 -56.5q8 -25 8 -102t-8 -102q-12 -36 -42.5 -56.5t-72.5 -20.5z
M198 388q42 0 54 35q5 17 5 86t-5 86q-12 35 -54 35t-54 -35q-5 -17 -5 -86t5 -86q12 -35 54 -35zM465 68q-8 25 -8 102t8 102q12 36 42.5 56.5t72.5 20.5t72.5 -20.5t42.5 -56.5q8 -25 8 -102t-8 -102q-12 -36 -42.5 -56.5t-72.5 -20.5t-72.5 20.5t-42.5 56.5zM526 84
q12 -35 54 -35t54 35q5 17 5 86t-5 86q-12 35 -54 35t-54 -35q-5 -17 -5 -86t5 -86z" />
    <glyph glyph-name="ampersand" unicode="&#x26;" horiz-adv-x="633" 
d="M70 167q0 56 32 105.5t103 107.5q-49 63 -67 96.5t-18 68.5q0 63 44 104.5t112 41.5q70 0 113 -42t43 -104q0 -45 -26.5 -83t-94.5 -93l129 -166l69 85q6 8 14 2l39 -34q8 -6 2 -14l-78 -99l33 -43q19 -24 40 -24h15q10 0 10 -10v-56q0 -10 -10 -10h-27q-30 0 -48 9.5
t-39 37.5l-27 35q-45 -49 -88 -71t-96 -22q-84 0 -131.5 49.5t-47.5 128.5zM267 429q53 41 70 66t17 52q0 31 -21.5 52t-56.5 21t-55 -21t-20 -53q0 -21 13 -43t53 -74zM149 172q0 -51 28 -80t78 -29q35 0 65.5 18t67.5 60l-138 180q-54 -42 -77.5 -77t-23.5 -72z" />
    <glyph glyph-name="quotesingle" unicode="'" horiz-adv-x="198" 
d="M77 503q-10 0 -10 10v157q0 10 10 10h44q10 0 10 -10v-157q0 -10 -10 -10h-44z" />
    <glyph glyph-name="parenleft" unicode="(" horiz-adv-x="285" 
d="M182 -74q-119 182 -119 402q0 221 119 402q7 10 16 10h35q11 0 6 -10q-95 -190 -95 -402t95 -402q5 -10 -6 -10h-35q-9 0 -16 10z" />
    <glyph glyph-name="parenright" unicode=")" horiz-adv-x="285" 
d="M46 -74q95 190 95 402t-95 402q-5 10 6 10h35q9 0 16 -10q119 -181 119 -402q0 -220 -119 -402q-7 -10 -16 -10h-35q-11 0 -6 10z" />
    <glyph glyph-name="asterisk" unicode="*" horiz-adv-x="342" 
d="M156 396q-10 0 -10 10v89l-76 -45q-8 -7 -14 3l-15 28q-6 9 4 14l76 42l-76 44q-10 5 -4 14l15 28q6 10 14 3l76 -46v90q0 10 10 10h30q10 0 10 -10l-1 -90l77 46q8 7 14 -3l15 -28q6 -9 -4 -14l-76 -44l76 -42q10 -5 4 -14l-15 -28q-6 -10 -14 -3l-77 45l1 -89
q0 -10 -10 -10h-30z" />
    <glyph glyph-name="plus" unicode="+" 
d="M233 75v158q0 6 -6 6h-156q-10 0 -10 10v54q0 10 10 10h156q6 0 6 6v158q0 10 10 10h56q10 0 10 -10v-158q0 -6 6 -6h156q10 0 10 -10v-54q0 -10 -10 -10h-156q-6 0 -6 -6v-158q0 -10 -10 -10h-56q-10 0 -10 10z" />
    <glyph glyph-name="comma" unicode="," horiz-adv-x="230" 
d="M70 96q0 10 10 10h70q10 0 10 -10v-93q0 -14 -6 -22l-62 -82q-6 -7 -13 -7q-9 0 -9 9v195z" />
    <glyph glyph-name="hyphen" unicode="-" horiz-adv-x="380" 
d="M57 227q-10 0 -10 10v58q0 10 10 10h266q10 0 10 -10v-58q0 -10 -10 -10h-266z" />
    <glyph glyph-name="period" unicode="." horiz-adv-x="236" 
d="M70 10v86q0 10 10 10h76q10 0 10 -10v-86q0 -10 -10 -10h-76q-10 0 -10 10z" />
    <glyph glyph-name="slash" unicode="/" horiz-adv-x="417" 
d="M61 -1l221 682q3 10 13 10h54q10 0 7 -10l-222 -682q-3 -10 -13 -10h-53q-10 0 -7 10z" />
    <glyph glyph-name="zero" unicode="0" 
d="M85 118q-15 49 -15 222t15 222q42 129 186 129t186 -129q15 -49 15 -222t-15 -222q-42 -129 -186 -129t-186 129zM168 135q24 -68 103 -68t103 68q11 33 11 205t-11 205q-24 68 -103 68t-103 -68q-11 -33 -11 -205t11 -205z" />
    <glyph glyph-name="one" unicode="1" 
d="M244 10v564h-2l-113 -79q-11 -7 -11 6v74q0 8 7 14l117 85q8 6 16 6h60q10 0 10 -10v-660q0 -10 -10 -10h-64q-10 0 -10 10z" />
    <glyph glyph-name="two" unicode="2" 
d="M79 10v52q0 8 5 14l245 312q48 61 48 118q0 47 -29 77t-78 30q-95 0 -111 -100q-2 -10 -11 -8l-61 13q-9 3 -8 12q7 66 57.5 113.5t135.5 47.5q87 0 139 -52t52 -133q0 -79 -66 -163l-210 -264v-1h266q10 0 10 -10v-58q0 -10 -10 -10h-364q-10 0 -10 10z" />
    <glyph glyph-name="three" unicode="3" 
d="M67 133q-1 9 8 12l61 15q9 3 12 -7q28 -86 121 -86q54 0 85.5 33.5t31.5 86.5q0 57 -34 91.5t-91 34.5h-30q-10 0 -10 10v58q0 10 10 10h29q51 0 82 31t31 83q0 48 -29.5 78t-79.5 30q-86 0 -108 -83q-3 -9 -12 -8l-60 15q-10 2 -8 12q11 60 62 101t129 41
q89 0 140.5 -51t51.5 -133q0 -94 -84 -146v-2q37 -16 67 -60.5t30 -108.5q0 -89 -57 -145t-146 -56q-80 0 -133.5 40t-68.5 104z" />
    <glyph glyph-name="four" unicode="4" 
d="M63 119q-10 0 -10 10v55q0 6 3 12l220 476q4 8 14 8h67q11 0 7 -9l-217 -473v-2h180q6 0 6 6v178q0 10 10 10h64q10 0 10 -10v-178q0 -6 6 -6h62q10 0 10 -10v-57q0 -10 -10 -10h-62q-6 0 -6 -6v-103q0 -10 -10 -10h-64q-10 0 -10 10v103q0 6 -6 6h-264z" />
    <glyph glyph-name="five" unicode="5" 
d="M86 131q-2 10 8 12l59 15q10 1 13 -8q9 -38 37 -60.5t74 -22.5q77 0 100 67q9 24 9 85q0 59 -10 86q-22 66 -99 66q-38 0 -64.5 -18.5t-35.5 -44.5q-4 -10 -12 -10h-59q-10 0 -10 10v362q0 10 10 10h342q10 0 10 -10v-58q0 -10 -10 -10h-268q-6 0 -6 -6v-191h3
q34 44 112 44q63 0 106.5 -29t61.5 -83q15 -48 15 -118q0 -68 -14 -110q-18 -57 -67 -88.5t-114 -31.5q-78 0 -129.5 39.5t-61.5 102.5z" />
    <glyph glyph-name="six" unicode="6" 
d="M63 197q0 72 45 155l173 321q3 7 13 7h68q11 0 6 -10l-152 -282l2 -2q23 16 69 16q82 0 137.5 -55.5t55.5 -146.5q0 -97 -59 -154t-150 -57t-149.5 56t-58.5 152zM149 196q0 -57 33.5 -93t88.5 -36t89 36t34 93t-34 92.5t-89 35.5t-88.5 -35.5t-33.5 -92.5z" />
    <glyph glyph-name="seven" unicode="7" 
d="M147 11l232 588v3h-207q-6 0 -6 -6v-85q0 -10 -10 -10h-60q-10 0 -10 10v159q0 10 10 10h363q10 0 10 -10v-62q0 -4 -2 -10l-234 -589q-4 -9 -13 -9h-67q-11 0 -6 11z" />
    <glyph glyph-name="eight" unicode="8" 
d="M61 189q0 57 26.5 101t69.5 67v2q-34 19 -57 57t-23 87q0 79 53 133.5t141 54.5q89 0 141.5 -54.5t52.5 -133.5q0 -49 -23 -87t-57 -57v-2q43 -23 69.5 -67t26.5 -101q0 -89 -58.5 -144.5t-151.5 -55.5t-151.5 55.5t-58.5 144.5zM271 396q48 0 78 31.5t30 77.5t-30 77
t-78 31t-78 -31t-30 -77t30 -77.5t78 -31.5zM147 193q0 -55 34.5 -90.5t89.5 -35.5q56 0 90 35.5t34 90.5t-34 90t-90 35t-90 -35t-34 -90z" />
    <glyph glyph-name="nine" unicode="9" 
d="M174 10l152 282l-2 2q-23 -16 -69 -16q-82 0 -137.5 55.5t-55.5 146.5q0 97 59 154t150 57t149.5 -56t58.5 -152q0 -72 -45 -155l-173 -321q-3 -7 -13 -7h-68q-11 0 -6 10zM271 356q55 0 88.5 35.5t33.5 92.5t-33.5 93t-88.5 36t-89 -36t-34 -93t34 -92.5t89 -35.5z" />
    <glyph glyph-name="colon" unicode=":" horiz-adv-x="244" 
d="M84 373q-10 0 -10 10v86q0 10 10 10h76q10 0 10 -10v-86q0 -10 -10 -10h-76zM74 10v86q0 10 10 10h76q10 0 10 -10v-86q0 -10 -10 -10h-76q-10 0 -10 10z" />
    <glyph glyph-name="semicolon" unicode=";" horiz-adv-x="244" 
d="M84 373q-10 0 -10 10v86q0 10 10 10h76q10 0 10 -10v-86q0 -10 -10 -10h-76zM77 96q0 10 10 10h70q10 0 10 -10v-93q0 -13 -6 -21l-62 -83q-6 -7 -13 -7q-9 0 -9 9v195z" />
    <glyph glyph-name="less" unicode="&#x3c;" 
d="M71 239q-10 3 -10 13v47q0 10 10 14l400 164q10 3 10 -6v-62q0 -9 -10 -13l-301 -119v-2l301 -119q10 -4 10 -13v-62q0 -9 -10 -6z" />
    <glyph glyph-name="equal" unicode="=" 
d="M71 339q-10 0 -10 10v54q0 10 10 10h400q10 0 10 -10v-54q0 -10 -10 -10h-400zM71 139q-10 0 -10 10v54q0 10 10 10h400q10 0 10 -10v-54q0 -10 -10 -10h-400z" />
    <glyph glyph-name="greater" unicode="&#x3e;" 
d="M61 81v62q0 9 10 13l301 119v2l-301 119q-10 4 -10 13v62q0 9 10 6l400 -164q10 -4 10 -14v-47q0 -10 -10 -13l-400 -164q-10 -3 -10 6z" />
    <glyph glyph-name="question" unicode="?" horiz-adv-x="456" 
d="M190 182q-10 0 -10 10v41q0 49 30 90l67 92q27 37 37 58.5t10 46.5q0 42 -27 67.5t-70 25.5q-85 0 -104 -95q-2 -10 -11 -8l-63 11q-10 2 -8 11q11 73 61 116t127 43q81 0 131 -47.5t50 -122.5q0 -59 -51 -130l-67 -92q-26 -35 -26 -75v-32q0 -10 -10 -10h-66zM175 10v86
q0 10 10 10h76q10 0 10 -10v-86q0 -10 -10 -10h-76q-10 0 -10 10z" />
    <glyph glyph-name="at" unicode="@" horiz-adv-x="887" 
d="M47 268q0 173 110 282.5t285 109.5q174 0 284 -109.5t110 -282.5q0 -106 -44.5 -159.5t-114.5 -53.5q-88 0 -119 71h-1q-35 -70 -135 -70q-110 0 -143 98q-13 44 -13 109t13 109q33 98 140 98q83 0 115 -54h2v35q0 9 8 9h53q9 0 9 -9v-246q0 -42 20.5 -63.5t50.5 -21.5
q88 0 88 148q0 146 -88 236.5t-235 90.5t-235.5 -90t-88.5 -237q0 -148 88.5 -238t235.5 -90q122 0 216 46q10 5 14 -4l16 -40q5 -8 -4 -13q-100 -54 -242 -54q-175 0 -285 109t-110 284zM347 184q21 -62 90 -62t91 62q8 24 8 79t-8 79q-22 62 -91 62t-90 -62q-9 -27 -9 -79
t9 -79z" />
    <glyph glyph-name="A" unicode="A" horiz-adv-x="607" 
d="M24 10l236 660q3 10 12 10h65q10 0 13 -10l233 -660q3 -10 -7 -10h-70q-10 0 -13 10l-52 148h-275l-52 -148q-4 -10 -13 -10h-70q-10 0 -7 10zM195 240h217l-107 309h-2z" />
    <glyph glyph-name="B" unicode="B" horiz-adv-x="604" 
d="M84 10v660q0 10 10 10h241q101 0 153 -47.5t52 -131.5q0 -112 -91 -148v-2q40 -11 71.5 -52.5t31.5 -104.5q0 -95 -57.5 -144.5t-164.5 -49.5h-236q-10 0 -10 10zM179 386h154q55 0 87 29t32 77q0 49 -31.5 78t-87.5 29h-154q-6 0 -6 -6v-201q0 -6 6 -6zM173 87
q0 -6 6 -6h159q60 0 92.5 30t32.5 82q0 51 -32.5 81.5t-92.5 30.5h-159q-6 0 -6 -6v-212z" />
    <glyph glyph-name="C" unicode="C" horiz-adv-x="566" 
d="M78 149q-18 54 -18 191t18 191q51 160 226 160q75 0 132 -35.5t86 -101.5q3 -9 -4 -13l-60 -29q-10 -5 -14 5q-46 91 -140 91q-107 0 -141 -100q-13 -40 -13 -168t13 -168q34 -100 141 -100q94 0 140 91q4 10 14 5l60 -29q7 -4 4 -13q-29 -66 -86 -101.5t-132 -35.5
q-175 0 -226 160z" />
    <glyph glyph-name="D" unicode="D" horiz-adv-x="623" 
d="M84 10v660q0 10 10 10h229q175 0 222 -145q18 -55 18 -195t-18 -195q-47 -145 -222 -145h-229q-10 0 -10 10zM173 89q0 -6 6 -6h125q124 0 155 93q14 39 14 164t-14 164q-31 93 -155 93h-125q-6 0 -6 -6v-502z" />
    <glyph glyph-name="E" unicode="E" horiz-adv-x="563" 
d="M84 10v660q0 10 10 10h409q10 0 10 -10v-63q0 -10 -10 -10h-324q-6 0 -6 -6v-200q0 -6 6 -6h275q10 0 10 -10v-63q0 -10 -10 -10h-275q-6 0 -6 -6v-207q0 -6 6 -6h324q10 0 10 -10v-63q0 -10 -10 -10h-409q-10 0 -10 10z" />
    <glyph glyph-name="F" unicode="F" horiz-adv-x="556" 
d="M84 10v660q0 10 10 10h409q10 0 10 -10v-63q0 -10 -10 -10h-324q-6 0 -6 -6v-207q0 -6 6 -6h275q10 0 10 -10v-63q0 -10 -10 -10h-275q-6 0 -6 -6v-279q0 -10 -10 -10h-69q-10 0 -10 10z" />
    <glyph glyph-name="G" unicode="G" horiz-adv-x="619" 
d="M78 148q-18 58 -18 192t18 192q25 78 85.5 118.5t147.5 40.5q85 0 142 -37t84 -98q5 -9 -3 -14l-60 -29q-9 -5 -14 5q-25 46 -60.5 68t-88.5 22q-114 0 -147 -101q-14 -39 -14 -167t14 -167q33 -101 147 -101q53 0 92 25.5t54 72.5q13 43 13 107q0 6 -6 6h-132
q-10 0 -10 10v58q0 10 10 10h217q10 0 10 -10v-51q0 -94 -17 -150q-25 -77 -85.5 -119t-145.5 -42q-87 0 -147.5 40.5t-85.5 118.5z" />
    <glyph glyph-name="H" unicode="H" horiz-adv-x="653" 
d="M84 10v660q0 10 10 10h69q10 0 10 -10v-279q0 -6 6 -6h295q6 0 6 6v279q0 10 10 10h69q10 0 10 -10v-660q0 -10 -10 -10h-69q-10 0 -10 10v286q0 6 -6 6h-295q-6 0 -6 -6v-286q0 -10 -10 -10h-69q-10 0 -10 10z" />
    <glyph glyph-name="I" unicode="I" horiz-adv-x="257" 
d="M84 10v660q0 10 10 10h69q10 0 10 -10v-660q0 -10 -10 -10h-69q-10 0 -10 10z" />
    <glyph glyph-name="J" unicode="J" horiz-adv-x="491" 
d="M33 59q-7 7 0 14l50 43q7 6 15 -2q44 -42 99 -42q126 0 126 146v452q0 10 10 10h69q10 0 10 -10v-452q0 -111 -58 -170t-160 -59q-48 0 -92 19.5t-69 50.5z" />
    <glyph glyph-name="K" unicode="K" horiz-adv-x="616" 
d="M84 10v660q0 10 10 10h69q10 0 10 -10v-354l289 355q6 9 16 9h82q5 0 6.5 -4t-2.5 -8l-212 -255l233 -402q7 -11 -6 -11h-80q-9 0 -14 9l-191 335l-121 -146v-188q0 -10 -10 -10h-69q-10 0 -10 10z" />
    <glyph glyph-name="L" unicode="L" horiz-adv-x="538" 
d="M84 10v660q0 10 10 10h69q10 0 10 -10v-581q0 -6 6 -6h324q10 0 10 -10v-63q0 -10 -10 -10h-409q-10 0 -10 10z" />
    <glyph glyph-name="M" unicode="M" horiz-adv-x="755" 
d="M84 10v660q0 10 10 10h65q12 0 16 -10l203 -458h3l199 458q4 10 16 10h65q10 0 10 -10v-660q0 -10 -10 -10h-63q-10 0 -10 10v473h-3l-169 -374q-5 -12 -18 -12h-40q-14 0 -19 12l-169 374h-3v-473q0 -10 -10 -10h-63q-10 0 -10 10z" />
    <glyph glyph-name="N" unicode="N" horiz-adv-x="654" 
d="M84 10v660q0 10 10 10h64q12 0 17 -10l308 -510h4v510q0 10 10 10h63q10 0 10 -10v-660q0 -10 -10 -10h-64q-12 0 -17 10l-309 508h-3v-508q0 -10 -10 -10h-63q-10 0 -10 10z" />
    <glyph glyph-name="O" unicode="O" horiz-adv-x="619" 
d="M309 -11q-86 0 -145.5 40.5t-85.5 118.5q-18 54 -18 192t18 192q26 78 85.5 118.5t145.5 40.5q179 0 232 -159q18 -54 18 -192t-18 -192q-53 -159 -232 -159zM309 72q112 0 145 101q15 47 15 167t-15 167q-33 101 -145 101q-111 0 -144 -101q-15 -47 -15 -167t15 -167
q33 -101 144 -101z" />
    <glyph glyph-name="P" unicode="P" horiz-adv-x="592" 
d="M163 0h-69q-10 0 -10 10v660q0 10 10 10h242q98 0 157 -55.5t59 -147.5t-59 -147.5t-157 -55.5h-157q-6 0 -6 -6v-258q0 -10 -10 -10zM331 357q63 0 98 32t35 88t-35 88t-98 32h-152q-6 0 -6 -6v-228q0 -6 6 -6h152z" />
    <glyph glyph-name="Q" unicode="Q" horiz-adv-x="619" 
d="M309 -11q-86 0 -145.5 40.5t-85.5 118.5q-18 54 -18 192t18 192q26 78 85.5 118.5t145.5 40.5q179 0 232 -159q18 -54 18 -192t-18 -192q-9 -27 -26 -56l71 -70q6 -6 0 -14l-44 -47q-8 -7 -15 0l-70 69q-59 -41 -148 -41zM309 72q51 0 86 21l-74 75q-6 6 0 14l44 48
q8 6 14 0l70 -71l5 14q15 47 15 167t-15 167q-33 101 -145 101q-111 0 -144 -101q-15 -47 -15 -167t15 -167q33 -101 144 -101z" />
    <glyph glyph-name="R" unicode="R" horiz-adv-x="617" 
d="M558 0h-80q-9 0 -13 10l-136 278h-150q-6 0 -6 -6v-272q0 -10 -10 -10h-69q-10 0 -10 10v660q0 10 10 10h246q95 0 154 -54t59 -142q0 -68 -36 -116.5t-98 -68.5l145 -287q3 -4 1 -8t-7 -4zM338 371q59 0 92.5 30t33.5 83t-33.5 83t-92.5 30h-159q-6 0 -6 -6v-214
q0 -6 6 -6h159z" />
    <glyph glyph-name="S" unicode="S" horiz-adv-x="591" 
d="M290 -11q-69 0 -134.5 24.5t-104.5 60.5q-7 7 -1 15l44 52q6 7 14 1q88 -70 190 -70q70 0 110 32t40 84q0 46 -32 73.5t-110 37.5l-34 5q-200 27 -200 188q0 91 60.5 145t161.5 54q122 0 207 -63q8 -6 2 -14l-34 -55q-6 -7 -14 -2q-83 51 -164 51q-61 0 -95 -30t-34 -80
q0 -45 33.5 -72t109.5 -37l33 -5q200 -27 200 -190q0 -92 -64.5 -148.5t-183.5 -56.5z" />
    <glyph glyph-name="T" unicode="T" horiz-adv-x="537" 
d="M303 0h-69q-10 0 -10 10v581q0 6 -6 6h-186q-10 0 -10 10v63q0 10 10 10h473q10 0 10 -10v-63q0 -10 -10 -10h-186q-6 0 -6 -6v-581q0 -10 -10 -10z" />
    <glyph glyph-name="U" unicode="U" horiz-adv-x="639" 
d="M320 -11q-114 0 -177.5 64.5t-63.5 183.5v433q0 10 10 10h69q10 0 10 -10v-432q0 -81 41 -123.5t111 -42.5q69 0 110 42.5t41 123.5v432q0 10 10 10h69q10 0 10 -10v-433q0 -119 -63.5 -183.5t-176.5 -64.5z" />
    <glyph glyph-name="V" unicode="V" horiz-adv-x="562" 
d="M311 0h-59q-9 0 -12 10l-220 658q-4 12 7 12h68q11 0 14 -10l174 -525h2l168 525q3 10 13 10h69q11 0 7 -12l-219 -658q-3 -10 -12 -10z" />
    <glyph glyph-name="W" unicode="W" horiz-adv-x="823" 
d="M623 0h-55q-8 0 -11 10l-145 507h-2l-144 -507q-3 -10 -12 -10h-55q-9 0 -11 10l-164 660q-3 10 8 10h66q11 0 12 -10l121 -505h2l141 505q3 10 12 10h51q9 0 12 -10l144 -505h2l118 505q3 10 13 10h65q10 0 8 -10l-164 -660q-2 -10 -12 -10z" />
    <glyph glyph-name="X" unicode="X" horiz-adv-x="558" 
d="M528 0h-79q-9 0 -14 9l-156 259h-1l-156 -259q-6 -9 -15 -9h-78q-5 0 -6.5 4t1.5 8l205 342l-187 314q-3 4 -1.5 8t6.5 4h78q9 0 15 -9l138 -230h1l139 230q4 9 14 9h78q12 0 6 -12l-188 -314l206 -342q6 -12 -6 -12z" />
    <glyph glyph-name="Y" unicode="Y" horiz-adv-x="526" 
d="M297 0h-68q-10 0 -10 10v268l-201 391q-4 11 8 11h71q9 0 15 -10l152 -291h2l151 291q4 10 14 10h69q12 0 8 -11l-201 -391v-268q0 -10 -10 -10z" />
    <glyph glyph-name="Z" unicode="Z" horiz-adv-x="536" 
d="M477 0h-418q-10 0 -10 10v63q0 6 4 11l332 512v1h-314q-10 0 -10 10v63q0 10 10 10h406q10 0 10 -10v-63q0 -6 -4 -11l-333 -512v-1h327q10 0 10 -10v-63q0 -10 -10 -10z" />
    <glyph glyph-name="bracketleft" unicode="[" horiz-adv-x="281" 
d="M234 -84h-144q-10 0 -10 10v804q0 10 10 10h144q10 0 10 -10v-48q0 -10 -10 -10h-69q-6 0 -6 -6v-676q0 -6 6 -6h69q10 0 10 -10v-48q0 -10 -10 -10z" />
    <glyph glyph-name="backslash" unicode="\" horiz-adv-x="417" 
d="M349 -11h-54q-10 0 -13 10l-221 682q-3 10 7 10h53q10 0 13 -10l222 -682q3 -10 -7 -10z" />
    <glyph glyph-name="bracketright" unicode="]" horiz-adv-x="281" 
d="M191 -84h-144q-10 0 -10 10v48q0 10 10 10h69q6 0 6 6v676q0 6 -6 6h-69q-10 0 -10 10v48q0 10 10 10h144q10 0 10 -10v-804q0 -10 -10 -10z" />
    <glyph glyph-name="asciicircum" unicode="^" 
d="M474 272h-58q-10 0 -14 10l-130 292h-2l-130 -292q-4 -10 -13 -10h-59q-11 0 -6 10l173 388q5 10 14 10h44q9 0 14 -10l173 -388q5 -10 -6 -10z" />
    <glyph glyph-name="underscore" unicode="_" horiz-adv-x="476" 
d="M476 -132h-476v56h476v-56z" />
    <glyph glyph-name="grave" unicode="`" horiz-adv-x="421" 
d="M286 557h-47q-11 0 -19 10l-92 123q-3 4 -1.5 7t6.5 3h66q12 0 18 -10l75 -123q5 -10 -6 -10z" />
    <glyph glyph-name="a" unicode="a" horiz-adv-x="519" 
d="M431 0h-59q-10 0 -10 10v42h-1q-39 -63 -142 -63q-72 0 -116.5 37t-44.5 107q0 74 48.5 111t138.5 37h109q6 0 6 6v35q0 51 -25 72.5t-90 21.5q-68 0 -116 -34q-9 -7 -14 1l-27 46q-4 8 2 14q60 47 163 47q102 0 145 -37.5t43 -125.5v-317q0 -10 -10 -10zM239 61
q56 0 88.5 25t32.5 69v53q0 6 -6 6h-96q-62 0 -90.5 -18.5t-28.5 -59.5q0 -75 100 -75z" />
    <glyph glyph-name="b" unicode="b" horiz-adv-x="538" 
d="M156 0h-64q-10 0 -10 10v660q0 10 10 10h64q10 0 10 -10v-246h1q40 66 136 66q129 0 165 -115q17 -50 17 -135q0 -86 -17 -136q-36 -115 -165 -115q-95 0 -136 67h-1v-46q0 -10 -10 -10zM283 67q80 0 105 73q11 34 11 100q0 64 -11 100q-25 72 -105 72q-82 0 -106 -72
q-11 -33 -11 -100q0 -68 11 -100q24 -73 106 -73z" />
    <glyph glyph-name="c" unicode="c" horiz-adv-x="472" 
d="M53 240q0 73 15 121q20 62 70 95.5t119 33.5q107 0 164 -81q5 -8 -3 -14l-44 -36q-8 -6 -14 1q-22 27 -45 39.5t-58 12.5q-83 0 -107 -75q-11 -34 -11 -97q0 -64 11 -98q24 -75 107 -75q35 0 58 12.5t45 39.5q6 7 14 1l44 -36q8 -6 3 -14q-57 -81 -164 -81
q-69 0 -119 33.5t-70 95.5q-15 48 -15 122z" />
    <glyph glyph-name="d" unicode="d" horiz-adv-x="538" 
d="M446 0h-64q-10 0 -10 10v46h-1q-41 -67 -136 -67q-129 0 -165 115q-17 50 -17 136q0 85 17 135q36 115 165 115q96 0 136 -66h1v246q0 10 10 10h64q10 0 10 -10v-660q0 -10 -10 -10zM255 67q82 0 106 73q11 32 11 100q0 67 -11 100q-24 72 -106 72q-80 0 -105 -72
q-11 -36 -11 -100q0 -66 11 -100q25 -73 105 -73z" />
    <glyph glyph-name="e" unicode="e" horiz-adv-x="512" 
d="M261 -11q-73 0 -122.5 34t-69.5 96q-16 50 -16 121q0 78 15 121q20 62 69.5 95.5t118.5 33.5t118.5 -34t69.5 -95q15 -47 15 -137q0 -10 -11 -10h-303q-6 0 -6 -6q0 -32 8 -58q29 -83 121 -83q77 0 123 53q8 8 15 2l41 -37q7 -6 1 -14q-65 -82 -187 -82zM145 281h222
q6 0 6 6q0 33 -7 54q-25 75 -110 75t-110 -75q-7 -21 -7 -54q0 -6 6 -6z" />
    <glyph glyph-name="f" unicode="f" horiz-adv-x="318" 
d="M172 0h-64q-10 0 -10 10v395q0 6 -6 6h-41q-10 0 -10 10v48q0 10 10 10h41q6 0 6 6v41q0 83 35 118.5t111 35.5h37q10 0 10 -10v-58q0 -10 -10 -10h-26q-45 0 -59 -14t-14 -58v-45q0 -6 6 -6h93q10 0 10 -10v-48q0 -10 -10 -10h-93q-6 0 -6 -6v-395q0 -10 -10 -10z" />
    <glyph glyph-name="g" unicode="g" horiz-adv-x="529" 
d="M238 -191q-50 0 -96 19.5t-70 51.5q-6 7 1 14l41 41q8 7 15 0q53 -48 113 -48q121 0 121 129v56h-1q-36 -66 -133 -66q-124 0 -161 116q-16 48 -16 126t16 126q37 116 161 116q97 0 133 -66h1v45q0 10 10 10h64q10 0 10 -10v-448q0 -102 -54 -157t-155 -55zM250 83
q77 0 102 72q11 33 11 93q0 59 -11 93q-25 71 -102 71q-76 0 -101 -71q-12 -37 -12 -93q0 -57 12 -93q25 -72 101 -72z" />
    <glyph glyph-name="h" unicode="h" horiz-adv-x="544" 
d="M457 0h-64q-10 0 -10 10v280q0 122 -107 122q-49 0 -79.5 -32t-30.5 -85v-285q0 -10 -10 -10h-64q-10 0 -10 10v660q0 10 10 10h64q10 0 10 -10v-245h1q40 65 134 65q77 0 121.5 -49t44.5 -131v-300q0 -10 -10 -10z" />
    <glyph glyph-name="i" unicode="i" horiz-adv-x="248" 
d="M158 587h-68q-10 0 -10 10v73q0 10 10 10h68q10 0 10 -10v-73q0 -10 -10 -10zM156 0h-64q-10 0 -10 10v459q0 10 10 10h64q10 0 10 -10v-459q0 -10 -10 -10z" />
    <glyph glyph-name="j" unicode="j" horiz-adv-x="248" 
d="M158 587h-68q-10 0 -10 10v73q0 10 10 10h68q10 0 10 -10v-73q0 -10 -10 -10zM23 -180h-20q-10 0 -10 10v58q0 10 10 10h16q36 0 49.5 13t13.5 51v507q0 10 10 10h64q10 0 10 -10v-505q0 -76 -34.5 -110t-108.5 -34z" />
    <glyph glyph-name="k" unicode="k" horiz-adv-x="511" 
d="M475 0h-74q-10 0 -16 10l-136 223l-83 -97v-126q0 -10 -10 -10h-64q-10 0 -10 10v660q0 10 10 10h64q10 0 10 -10v-423l189 223q8 9 18 9h74q5 0 6 -3t-2 -7l-147 -171l177 -288q2 -3 0 -6.5t-6 -3.5z" />
    <glyph glyph-name="l" unicode="l" horiz-adv-x="277" 
d="M231 -5h-34q-62 0 -89.5 30.5t-27.5 95.5v549q0 10 10 10h64q10 0 10 -10v-544q0 -29 11.5 -41t36.5 -12h19q10 0 10 -10v-58q0 -10 -10 -10z" />
    <glyph glyph-name="m" unicode="m" horiz-adv-x="845" 
d="M758 0h-64q-10 0 -10 10v280q0 122 -107 122q-48 0 -79 -32t-31 -85v-285q0 -10 -10 -10h-64q-10 0 -10 10v280q0 122 -107 122q-49 0 -79.5 -32t-30.5 -85v-285q0 -10 -10 -10h-64q-10 0 -10 10v459q0 10 10 10h64q10 0 10 -10v-44h1q40 65 134 65q98 0 140 -75h1
q54 75 155 75q82 0 126.5 -48.5t44.5 -131.5v-300q0 -10 -10 -10z" />
    <glyph glyph-name="n" unicode="n" horiz-adv-x="544" 
d="M457 0h-64q-10 0 -10 10v280q0 122 -107 122q-49 0 -79.5 -32t-30.5 -85v-285q0 -10 -10 -10h-64q-10 0 -10 10v459q0 10 10 10h64q10 0 10 -10v-44h1q40 65 134 65q77 0 121.5 -49t44.5 -131v-300q0 -10 -10 -10z" />
    <glyph glyph-name="o" unicode="o" horiz-adv-x="516" 
d="M258 -11q-70 0 -119.5 34t-69.5 95q-16 48 -16 122q0 73 16 121q19 61 69 95t120 34t120 -34t69 -95q16 -48 16 -121q0 -74 -16 -122q-20 -61 -69.5 -95t-119.5 -34zM258 67q83 0 108 75q11 36 11 98q0 61 -11 97q-25 75 -108 75t-108 -75q-11 -36 -11 -97q0 -62 11 -98
q25 -75 108 -75z" />
    <glyph glyph-name="p" unicode="p" horiz-adv-x="538" 
d="M156 -180h-64q-10 0 -10 10v639q0 10 10 10h64q10 0 10 -10v-45h1q40 66 136 66q129 0 165 -115q17 -50 17 -135q0 -86 -17 -136q-36 -115 -165 -115q-95 0 -136 67h-1v-226q0 -10 -10 -10zM283 67q80 0 105 73q11 34 11 100q0 64 -11 100q-25 72 -105 72q-82 0 -106 -72
q-11 -33 -11 -100q0 -68 11 -100q24 -73 106 -73z" />
    <glyph glyph-name="q" unicode="q" horiz-adv-x="538" 
d="M446 -180h-64q-10 0 -10 10v226h-1q-41 -67 -136 -67q-129 0 -165 115q-17 50 -17 136q0 85 17 135q36 115 165 115q96 0 136 -66h1v45q0 10 10 10h64q10 0 10 -10v-639q0 -10 -10 -10zM255 67q82 0 106 73q11 32 11 100q0 67 -11 100q-24 72 -106 72q-80 0 -105 -72
q-11 -36 -11 -100q0 -66 11 -100q25 -73 105 -73z" />
    <glyph glyph-name="r" unicode="r" horiz-adv-x="410" 
d="M156 0h-64q-10 0 -10 10v459q0 10 10 10h64q10 0 10 -10v-49h1q36 70 127 70q59 0 98 -36q7 -7 2 -14l-37 -49q-6 -8 -14 -2q-36 23 -74 23q-103 0 -103 -140v-262q0 -10 -10 -10z" />
    <glyph glyph-name="s" unicode="s" horiz-adv-x="490" 
d="M247 -11q-115 0 -198 72q-7 7 0 14l41 44q7 7 14 0q64 -55 148 -55q51 0 78 20t27 53q0 30 -19.5 45.5t-73.5 21.5l-51 5q-143 15 -143 135q0 69 47 107.5t131 38.5q99 0 170 -53q8 -5 2 -14l-34 -43q-6 -7 -14 -2q-60 39 -129 39q-44 0 -67.5 -18t-23.5 -48
q0 -29 21 -44.5t73 -20.5l50 -5q72 -7 108 -41.5t36 -93.5q0 -72 -50.5 -114.5t-142.5 -42.5z" />
    <glyph glyph-name="t" unicode="t" horiz-adv-x="316" 
d="M258 -5h-37q-69 0 -99 32.5t-30 103.5v274q0 6 -6 6h-40q-10 0 -10 10v48q0 10 10 10h40q6 0 6 6v135q0 10 10 10h64q10 0 10 -10v-135q0 -6 6 -6h76q10 0 10 -10v-48q0 -10 -10 -10h-76q-6 0 -6 -6v-271q0 -35 14 -48t47 -13h21q10 0 10 -10v-58q0 -10 -10 -10z" />
    <glyph glyph-name="u" unicode="u" horiz-adv-x="539" 
d="M447 0h-64q-10 0 -10 10v45h-1q-41 -66 -131 -66q-78 0 -122 49t-44 132v299q0 10 10 10h64q10 0 10 -10v-279q0 -123 106 -123q49 0 78.5 32t29.5 86v284q0 10 10 10h64q10 0 10 -10v-459q0 -10 -10 -10z" />
    <glyph glyph-name="v" unicode="v" horiz-adv-x="477" 
d="M267 0h-57q-9 0 -12 10l-172 459q-3 10 8 10h69q9 0 13 -10l124 -344h2l121 344q3 10 12 10h68q11 0 8 -10l-171 -459q-3 -10 -13 -10z" />
    <glyph glyph-name="w" unicode="w" horiz-adv-x="745" 
d="M551 0h-57q-9 0 -12 10l-108 343h-2l-109 -343q-3 -10 -12 -10h-58q-9 0 -12 10l-150 459q-3 10 7 10h68q9 0 13 -10l106 -346h2l108 346q3 10 12 10h52q10 0 13 -10l109 -346h2l103 346q2 10 13 10h68q10 0 7 -10l-151 -459q-3 -10 -12 -10z" />
    <glyph glyph-name="x" unicode="x" horiz-adv-x="480" 
d="M443 0h-72q-9 0 -15 9l-116 169h-1l-116 -169q-5 -9 -15 -9h-71q-13 0 -7 10l163 240l-149 219q-6 10 7 10h72q11 0 15 -9l101 -149h1l103 149q5 9 14 9h72q13 0 7 -10l-150 -219l164 -240q6 -10 -7 -10z" />
    <glyph glyph-name="y" unicode="y" horiz-adv-x="477" 
d="M112 -180h-26q-10 0 -10 10v58q0 10 10 10h18q30 0 47.5 15.5t33.5 56.5l16 44l-176 455q-3 10 8 10h70q9 0 12 -10l126 -346h2l121 346q3 10 12 10h68q11 0 8 -10l-189 -506q-31 -83 -63.5 -113t-87.5 -30z" />
    <glyph glyph-name="z" unicode="z" horiz-adv-x="477" 
d="M412 0h-347q-10 0 -10 10v53q0 7 4 11l263 327v2h-244q-10 0 -10 10v56q0 10 10 10h334q10 0 10 -10v-56q0 -6 -4 -11l-261 -324v-2h255q10 0 10 -10v-56q0 -10 -10 -10z" />
    <glyph glyph-name="braceleft" unicode="{" horiz-adv-x="333" 
d="M286 -84h-46q-107 0 -107 113v182q0 42 -15.5 61t-46.5 20q-10 0 -10 10v57q0 10 10 10q31 1 46.5 20t15.5 60v178q0 113 107 113h46q10 0 10 -10v-48q0 -10 -10 -10h-29q-45 0 -45 -49v-173q0 -55 -14 -81t-48 -38v-1q34 -12 48 -38t14 -81v-178q0 -49 45 -49h29
q10 0 10 -10v-48q0 -10 -10 -10z" />
    <glyph glyph-name="bar" unicode="|" horiz-adv-x="290" 
d="M171 -84h-52q-10 0 -10 10v804q0 10 10 10h52q10 0 10 -10v-804q0 -10 -10 -10z" />
    <glyph glyph-name="braceright" unicode="}" horiz-adv-x="333" 
d="M93 -84h-46q-10 0 -10 10v48q0 10 10 10h29q45 0 45 49v178q0 55 14 81t48 38v1q-34 12 -48 38t-14 81v173q0 49 -45 49h-29q-10 0 -10 10v48q0 10 10 10h46q107 0 107 -113v-178q0 -41 15.5 -60t46.5 -20q10 0 10 -10v-57q0 -10 -10 -10q-31 -1 -46.5 -20t-15.5 -61
v-182q0 -113 -107 -113z" />
    <glyph glyph-name="asciitilde" unicode="~" 
d="M286 307q44 -29 71 -29q43 0 75 54q5 8 14 2l38 -22q8 -5 4 -14q-19 -42 -54.5 -66t-77.5 -24q-44 0 -100 37q-44 29 -71 29q-43 0 -75 -54q-5 -8 -14 -2l-38 22q-8 5 -4 14q19 42 54.5 66t77.5 24q44 0 100 -37z" />
    <glyph glyph-name="uni00A0" unicode="&#xa0;" horiz-adv-x="240" 
 />
    <glyph glyph-name="exclamdown" unicode="&#xa1;" horiz-adv-x="288" 
d="M165 295q10 0 10 -10l16 -476q0 -10 -10 -10h-74q-10 0 -10 10l16 476q0 10 10 10h42zM192 469v-86q0 -10 -10 -10h-76q-10 0 -10 10v86q0 10 10 10h76q10 0 10 -10z" />
    <glyph glyph-name="cent" unicode="&#xa2;" 
d="M313 570v-81q97 -6 149 -80q5 -8 -3 -14l-44 -36q-8 -6 -14 1q-38 46 -88 51v-343q51 5 88 51q6 7 14 1l44 -36q8 -6 3 -14q-52 -74 -149 -80v-80q0 -10 -10 -10h-26q-10 0 -10 10v81q-129 13 -166 127q-15 48 -15 122q0 73 15 121q37 114 166 127v82q0 10 10 10h26
q10 0 10 -10zM183 142q19 -62 84 -73v341q-64 -11 -84 -73q-11 -34 -11 -97q0 -64 11 -98z" />
    <glyph glyph-name="sterling" unicode="&#xa3;" 
d="M453 0h-345q-10 0 -10 10v56q0 7 5 12q20 20 28 39t8 57v105q0 6 -6 6h-48q-10 0 -10 10v47q0 10 10 10h48q6 0 6 6v152q0 86 44 133.5t120 47.5q62 0 103 -34t54 -90q2 -9 -9 -11l-61 -16q-9 -2 -11 8q-7 30 -26.5 47.5t-49.5 17.5q-37 0 -57.5 -23t-20.5 -67v-165
q0 -6 6 -6h127q10 0 10 -10v-47q0 -10 -10 -10h-127q-6 0 -6 -6v-92q0 -71 -28 -108v-1h256q10 0 10 -10v-58q0 -10 -10 -10z" />
    <glyph glyph-name="currency" unicode="&#xa4;" horiz-adv-x="538" 
d="M493 138l-37 -40q-8 -6 -14 0l-62 61q-49 -33 -112 -33q-64 0 -112 34l-61 -61q-6 -6 -14 0l-37 39q-6 8 0 14l60 60q-32 47 -32 111t32 111l-60 61q-7 7 0 14l37 39q7 7 14 0l61 -62q52 34 112 34t112 -34l61 62q8 8 14 0l38 -39q7 -7 0 -14l-61 -61q32 -50 32 -111
q0 -60 -32 -110l61 -61q8 -8 0 -14zM268 196q54 0 90 36.5t36 90.5t-36 90.5t-90 36.5t-89.5 -36.5t-35.5 -90.5t35.5 -90.5t89.5 -36.5z" />
    <glyph glyph-name="yen" unicode="&#xa5;" 
d="M303 0h-64q-10 0 -10 10v132q0 6 -6 6h-126q-10 0 -10 10v42q0 10 10 10h126q6 0 6 6v51q0 6 -6 6h-126q-10 0 -10 10v42q0 10 10 10h108v2l-155 332q-6 11 7 11h68q11 0 14 -10l133 -298h3l129 298q4 10 14 10h67q13 0 7 -11l-155 -332v-2h108q10 0 10 -10v-42
q0 -10 -10 -10h-126q-6 0 -6 -6v-51q0 -6 6 -6h126q10 0 10 -10v-42q0 -10 -10 -10h-126q-6 0 -6 -6v-132q0 -10 -10 -10z" />
    <glyph glyph-name="brokenbar" unicode="&#xa6;" horiz-adv-x="290" 
d="M171 388h-52q-10 0 -10 10v332q0 10 10 10h52q10 0 10 -10v-332q0 -10 -10 -10zM171 -84h-52q-10 0 -10 10v336q0 10 10 10h52q10 0 10 -10v-336q0 -10 -10 -10z" />
    <glyph glyph-name="section" unicode="&#xa7;" horiz-adv-x="556" 
d="M275 -191q-78 0 -121 38t-48 102q-2 10 7 11l58 13q9 2 11 -7q3 -86 92 -86q43 0 67.5 22t24.5 61q0 43 -29.5 67.5t-99.5 39.5q-144 32 -144 182q0 57 26 100t74 60v1q-41 22 -59 52.5t-18 76.5q0 63 46.5 106t117.5 43q77 0 119 -39.5t44 -95.5q0 -10 -7 -11l-57 -12
q-4 -1 -7.5 1t-3.5 6q-2 36 -24.5 58t-61.5 22q-40 0 -63.5 -21t-23.5 -57q0 -43 27.5 -67.5t96.5 -40.5q144 -34 144 -182q0 -56 -26.5 -99.5t-72.5 -59.5v-1q81 -38 81 -133q0 -66 -48 -108t-122 -42zM278 141q48 0 77 29t29 82t-29 82t-77 29t-77 -29t-29 -82t29 -82
t77 -29z" />
    <glyph glyph-name="dieresis" unicode="&#xa8;" horiz-adv-x="421" 
d="M339 587h-59q-10 0 -10 10v73q0 10 10 10h59q10 0 10 -10v-73q0 -10 -10 -10zM142 587h-59q-10 0 -10 10v73q0 10 10 10h59q10 0 10 -10v-73q0 -10 -10 -10z" />
    <glyph glyph-name="copyright" unicode="&#xa9;" horiz-adv-x="828" 
d="M414 -11q-148 0 -249.5 101.5t-101.5 249.5t101.5 249.5t249.5 101.5t249.5 -101.5t101.5 -249.5t-101.5 -249.5t-249.5 -101.5zM414 50q123 0 205.5 83t82.5 207t-82.5 207t-205.5 83t-205.5 -83t-82.5 -207t82.5 -207t205.5 -83zM423 143q-57 0 -97 27t-56 78
q-11 37 -11 92t11 92q16 51 56 78t97 27q86 0 130 -63q6 -8 -2 -14l-32 -29q-7 -5 -14 2q-31 42 -81 42q-69 0 -90 -62q-7 -21 -7 -73t7 -73q21 -62 90 -62q50 0 81 42q7 7 14 2l32 -29q8 -6 2 -14q-44 -63 -130 -63z" />
    <glyph glyph-name="ordfeminine" unicode="&#xaa;" horiz-adv-x="343" 
d="M286 392h-46q-10 0 -10 10v17h-1q-26 -32 -88 -32q-44 0 -73 22t-29 64q0 93 124 93h60q6 0 6 6v14q0 22 -15 32t-53 10q-41 0 -70 -17q-9 -5 -14 2l-19 35q-6 8 2 14q41 26 109 26q70 0 98.5 -23.5t28.5 -77.5v-185q0 -10 -10 -10zM159 442q70 0 70 46v22q0 6 -6 6h-55
q-62 0 -62 -38q0 -36 53 -36z" />
    <glyph glyph-name="guillemotleft" unicode="&#xab;" horiz-adv-x="535" 
d="M455 65l-189 192q-7 7 0 14l189 192q3 3 6.5 1.5t3.5 -5.5v-73q0 -10 -9 -20l-99 -98q-4 -4 0 -8l99 -98q9 -10 9 -20v-73q0 -4 -3.5 -5.5t-6.5 1.5zM240 65l-189 192q-7 7 0 14l189 192q3 3 6.5 1.5t3.5 -5.5v-73q0 -10 -9 -20l-99 -98q-4 -4 0 -8l99 -98q9 -10 9 -20
v-73q0 -4 -3.5 -5.5t-6.5 1.5z" />
    <glyph glyph-name="logicalnot" unicode="&#xac;" 
d="M471 103h-56q-10 0 -10 10v120q0 6 -6 6h-328q-10 0 -10 10v54q0 10 10 10h400q10 0 10 -10v-190q0 -10 -10 -10z" />
    <glyph glyph-name="uni00AD" unicode="&#xad;" horiz-adv-x="380" 
d="M323 227h-266q-10 0 -10 10v58q0 10 10 10h266q10 0 10 -10v-58q0 -10 -10 -10z" />
    <glyph glyph-name="registered" unicode="&#xae;" horiz-adv-x="452" 
d="M226 301q-81 0 -136 55t-55 137q0 81 55 136t136 55q82 0 136.5 -55t54.5 -136q0 -82 -54.5 -137t-136.5 -55zM226 334q67 0 112 45.5t45 113.5t-44.5 113t-112.5 45t-112.5 -45t-44.5 -113t45 -113.5t112 -45.5zM183 388h-24q-7 0 -7 7v198q0 7 7 7h80q35 0 54 -16.5
t19 -46.5q0 -44 -42 -59l43 -83q3 -7 -4 -7h-28q-6 0 -9 7l-40 78h-38q-4 0 -4 -4v-74q0 -7 -7 -7zM239 507q35 0 35 30q0 29 -35 29h-45q-4 0 -4 -4v-51q0 -4 4 -4h45z" />
    <glyph glyph-name="macron" unicode="&#xaf;" horiz-adv-x="421" 
d="M338 601h-255q-10 0 -10 10v45q0 10 10 10h255q10 0 10 -10v-45q0 -10 -10 -10z" />
    <glyph glyph-name="degree" unicode="&#xb0;" horiz-adv-x="456" 
d="M228 397q-63 0 -104.5 42t-41.5 104t41.5 104t104.5 42t104.5 -42t41.5 -104t-41.5 -104t-104.5 -42zM228 449q40 0 65.5 26.5t25.5 67.5t-25.5 67.5t-65.5 26.5t-65.5 -26.5t-25.5 -67.5t25.5 -67.5t65.5 -26.5z" />
    <glyph glyph-name="plusminus" unicode="&#xb1;" 
d="M299 134h-56q-10 0 -10 10v158q0 6 -6 6h-156q-10 0 -10 10v54q0 10 10 10h156q6 0 6 6v158q0 10 10 10h56q10 0 10 -10v-158q0 -6 6 -6h156q10 0 10 -10v-54q0 -10 -10 -10h-156q-6 0 -6 -6v-158q0 -10 -10 -10zM471 0h-400q-10 0 -10 10v54q0 10 10 10h400q10 0 10 -10
v-54q0 -10 -10 -10z" />
    <glyph glyph-name="twosuperior" unicode="&#xb2;" horiz-adv-x="341" 
d="M288 430h-236q-10 0 -10 10v41q0 8 7 14l149 169q31 33 31 64q0 24 -15.5 39t-41.5 15q-50 0 -61 -50q-2 -10 -11 -8l-45 10q-10 2 -8 11q5 38 38 68t88 30q56 0 89.5 -33t33.5 -82q0 -51 -44 -100l-122 -135v-2h158q10 0 10 -10v-41q0 -10 -10 -10z" />
    <glyph glyph-name="threesuperior" unicode="&#xb3;" horiz-adv-x="341" 
d="M172 423q-53 0 -88 22.5t-45 64.5q-3 10 6 12l45 12q8 1 12 -7q21 -43 68 -43q29 0 47 17.5t18 44.5q0 28 -18.5 45t-50.5 17h-19q-10 0 -10 10v41q0 10 10 10h15q29 0 46 15.5t17 41.5t-15.5 41t-43.5 15q-42 0 -60 -37q-3 -9 -12 -7l-42 10q-9 1 -7 12q8 36 40 59.5
t83 23.5q58 0 91.5 -31t33.5 -81q0 -54 -46 -86v-1q21 -9 38 -35t17 -62q0 -56 -35.5 -90t-94.5 -34z" />
    <glyph glyph-name="acute" unicode="&#xb4;" horiz-adv-x="421" 
d="M182 557h-47q-11 0 -6 10l76 123q6 10 17 10h66q5 0 6.5 -3t-1.5 -7l-92 -123q-7 -10 -19 -10z" />
    <glyph glyph-name="mu" unicode="&#xb5;" horiz-adv-x="546" 
d="M454 0h-64q-10 0 -10 10v45h-1q-15 -30 -46.5 -48t-73.5 -18q-62 0 -91 37h-2v-196q0 -10 -10 -10h-64q-10 0 -10 10v639q0 10 10 10h64q10 0 10 -10v-284q0 -56 27 -87t79 -31q49 0 78.5 32t29.5 86v284q0 10 10 10h64q10 0 10 -10v-459q0 -10 -10 -10z" />
    <glyph glyph-name="mu" unicode="&#x3bc;" horiz-adv-x="546" 
d="M454 0h-64q-10 0 -10 10v45h-1q-15 -30 -46.5 -48t-73.5 -18q-62 0 -91 37h-2v-196q0 -10 -10 -10h-64q-10 0 -10 10v639q0 10 10 10h64q10 0 10 -10v-284q0 -56 27 -87t79 -31q49 0 78.5 32t29.5 86v284q0 10 10 10h64q10 0 10 -10v-459q0 -10 -10 -10z" />
    <glyph glyph-name="paragraph" unicode="&#xb6;" horiz-adv-x="603" 
d="M505 -180h-54q-10 0 -10 10v770q0 6 -6 6h-84q-6 0 -6 -6v-770q0 -10 -10 -10h-54q-10 0 -10 10v432q-89 5 -142.5 63.5t-53.5 145.5q0 91 59.5 150t163.5 59h207q10 0 10 -10v-840q0 -10 -10 -10z" />
    <glyph glyph-name="periodcentered" unicode="&#xb7;" horiz-adv-x="236" 
d="M156 212h-76q-10 0 -10 10v86q0 10 10 10h76q10 0 10 -10v-86q0 -10 -10 -10z" />
    <glyph glyph-name="cedilla" unicode="&#xb8;" horiz-adv-x="421" 
d="M212 -152h-55q-10 0 -7 10l57 142q4 10 13 10h47q10 0 7 -10l-46 -142q-3 -10 -16 -10z" />
    <glyph glyph-name="onesuperior" unicode="&#xb9;" horiz-adv-x="341" 
d="M220 430h-47q-10 0 -10 10v315h-2l-66 -44q-4 -2 -7 -0.5t-3 6.5v53q0 10 8 15l65 44q8 7 16 7h46q10 0 10 -10v-386q0 -10 -10 -10z" />
    <glyph glyph-name="ordmasculine" unicode="&#xba;" horiz-adv-x="351" 
d="M175 384q-101 0 -128 84q-9 27 -9 68t9 68q27 84 128 84t129 -84q9 -27 9 -68t-9 -68q-28 -84 -129 -84zM175 447q46 0 61 42q6 18 6 47t-6 47q-15 42 -61 42q-45 0 -60 -42q-6 -18 -6 -47t6 -47q15 -42 60 -42z" />
    <glyph glyph-name="guillemotright" unicode="&#xbb;" horiz-adv-x="535" 
d="M295 65q-3 -3 -6.5 -1.5t-3.5 5.5v73q0 10 9 20l99 98q4 4 0 8l-99 98q-9 10 -9 20v73q0 4 3.5 5.5t6.5 -1.5l189 -192q7 -7 0 -14zM80 65q-3 -3 -6.5 -1.5t-3.5 5.5v73q0 10 9 20l99 98q4 4 0 8l-99 98q-9 10 -9 20v73q0 4 3.5 5.5t6.5 -1.5l189 -192q7 -7 0 -14z" />
    <glyph glyph-name="onequarter" unicode="&#xbc;" horiz-adv-x="835" 
d="M229 274h-47q-10 0 -10 10v315h-2l-66 -44q-4 -2 -7 -0.5t-3 6.5v53q0 10 8 15l65 44q8 7 16 7h46q10 0 10 -10v-386q0 -10 -10 -10zM689 0h-45q-10 0 -10 10v51q0 6 -6 6h-162q-10 0 -10 10v40q0 8 4 16l128 263q5 10 14 10h52q11 0 6 -10l-128 -267v-1h96q6 0 6 6v89
q0 10 10 10h45q10 0 10 -10v-89q0 -6 6 -6h26q10 0 10 -10v-41q0 -10 -10 -10h-26q-6 0 -6 -6v-51q0 -10 -10 -10zM226 -11h-47q-11 0 -5 10l394 682q6 10 15 10h47q4 0 6 -3t0 -7l-395 -682q-6 -10 -15 -10z" />
    <glyph glyph-name="onehalf" unicode="&#xbd;" horiz-adv-x="870" 
d="M229 274h-47q-10 0 -10 10v315h-2l-66 -44q-4 -2 -7 -0.5t-3 6.5v53q0 10 8 15l65 44q8 7 16 7h46q10 0 10 -10v-386q0 -10 -10 -10zM766 0h-236q-10 0 -10 10v41q0 8 7 14l149 169q31 33 31 64q0 24 -15.5 39t-41.5 15q-50 0 -61 -50q-2 -10 -11 -8l-45 10q-10 2 -8 11
q5 38 38 68t88 30q56 0 89.5 -33t33.5 -82q0 -51 -44 -100l-122 -135v-2h158q10 0 10 -10v-41q0 -10 -10 -10zM226 -11h-47q-11 0 -5 10l394 682q6 10 15 10h47q4 0 6 -3t0 -7l-395 -682q-6 -10 -15 -10z" />
    <glyph glyph-name="threequarters" unicode="&#xbe;" horiz-adv-x="906" 
d="M760 0h-45q-10 0 -10 10v51q0 6 -6 6h-162q-10 0 -10 10v40q0 8 4 16l128 263q5 10 14 10h52q11 0 6 -10l-128 -267v-1h96q6 0 6 6v89q0 10 10 10h45q10 0 10 -10v-89q0 -6 6 -6h26q10 0 10 -10v-41q0 -10 -10 -10h-26q-6 0 -6 -6v-51q0 -10 -10 -10zM298 -11h-47
q-11 0 -5 10l394 682q6 10 15 10h47q4 0 6 -3t0 -7l-395 -682q-6 -10 -15 -10zM228 267q-53 0 -88 22.5t-45 64.5q-3 10 6 12l45 12q8 1 12 -7q21 -43 68 -43q29 0 47 17.5t18 44.5q0 28 -18.5 45t-50.5 17h-19q-10 0 -10 10v41q0 10 10 10h15q29 0 46 15.5t17 41.5
t-15.5 41t-43.5 15q-42 0 -60 -37q-3 -9 -12 -7l-42 10q-9 1 -7 12q8 36 40 59.5t83 23.5q58 0 91.5 -31t33.5 -81q0 -54 -46 -86v-1q21 -9 38 -35t17 -62q0 -56 -35.5 -90t-94.5 -34z" />
    <glyph glyph-name="questiondown" unicode="&#xbf;" horiz-adv-x="456" 
d="M266 297q10 0 10 -10v-41q0 -49 -30 -90l-67 -92q-27 -37 -37 -58.5t-10 -46.5q0 -42 27 -67.5t70 -25.5q85 0 104 95q2 10 11 8l63 -11q10 -2 8 -11q-11 -73 -61 -116t-127 -43q-81 0 -131 47.5t-50 122.5q0 59 51 130l67 92q26 35 26 75v32q0 10 10 10h66zM281 469v-86
q0 -10 -10 -10h-76q-10 0 -10 10v86q0 10 10 10h76q10 0 10 -10z" />
    <glyph glyph-name="Agrave" unicode="&#xc0;" horiz-adv-x="607" 
d="M24 10l236 660q3 10 12 10h65q10 0 13 -10l233 -660q3 -10 -7 -10h-70q-10 0 -13 10l-52 148h-275l-52 -148q-4 -10 -13 -10h-70q-10 0 -7 10zM195 240h217l-107 309h-2zM326 762h-49q-10 0 -18 9l-107 107q-4 4 -2.5 7t6.5 3h70q11 0 19 -10l85 -106q4 -4 2.5 -7
t-6.5 -3z" />
    <glyph glyph-name="Aacute" unicode="&#xc1;" horiz-adv-x="607" 
d="M24 10l236 660q3 10 12 10h65q10 0 13 -10l233 -660q3 -10 -7 -10h-70q-10 0 -13 10l-52 148h-275l-52 -148q-4 -10 -13 -10h-70q-10 0 -7 10zM195 240h217l-107 309h-2zM331 762h-50q-5 0 -6 3t2 7l86 106q8 10 18 10h70q5 0 6.5 -3t-1.5 -7l-107 -107q-8 -9 -18 -9z
" />
    <glyph glyph-name="Acircumflex" unicode="&#xc2;" horiz-adv-x="607" 
d="M24 10l236 660q3 10 12 10h65q10 0 13 -10l233 -660q3 -10 -7 -10h-70q-10 0 -13 10l-52 148h-275l-52 -148q-4 -10 -13 -10h-70q-10 0 -7 10zM195 240h217l-107 309h-2zM431 754h-45q-10 0 -19 10l-63 70h-2l-64 -70q-9 -10 -19 -10h-45q-4 0 -5.5 3t1.5 7l95 123
q7 10 16 10h43q9 0 16 -10l95 -123q3 -4 2 -7t-6 -3z" />
    <glyph glyph-name="Atilde" unicode="&#xc3;" horiz-adv-x="607" 
d="M24 10l236 660q3 10 12 10h65q10 0 13 -10l233 -660q3 -10 -7 -10h-70q-10 0 -13 10l-52 148h-275l-52 -148q-4 -10 -13 -10h-70q-10 0 -7 10zM195 240h217l-107 309h-2zM358 767q-26 0 -63 21q-32 18 -53 18q-27 0 -63 -32q-3 -3 -5.5 -2t-2.5 4v48q0 10 7 18
q30 32 68 32q27 0 63 -20q29 -18 53 -18q29 0 63 32q3 3 5.5 2t2.5 -5v-48q0 -10 -7 -17q-31 -33 -68 -33z" />
    <glyph glyph-name="Adieresis" unicode="&#xc4;" horiz-adv-x="607" 
d="M24 10l236 660q3 10 12 10h65q10 0 13 -10l233 -660q3 -10 -7 -10h-70q-10 0 -13 10l-52 148h-275l-52 -148q-4 -10 -13 -10h-70q-10 0 -7 10zM195 240h217l-107 309h-2zM430 777h-56q-10 0 -10 10v72q0 10 10 10h56q10 0 10 -10v-72q0 -10 -10 -10zM230 777h-56
q-10 0 -10 10v72q0 10 10 10h56q10 0 10 -10v-72q0 -10 -10 -10z" />
    <glyph glyph-name="Aring" unicode="&#xc5;" horiz-adv-x="607" 
d="M24 10l236 660q3 10 12 10h65q10 0 13 -10l233 -660q3 -10 -7 -10h-70q-10 0 -13 10l-52 148h-275l-52 -148q-4 -10 -13 -10h-70q-10 0 -7 10zM195 240h217l-107 309h-2zM303 729q-40 0 -67.5 27t-27.5 67t27.5 67t67.5 27t67.5 -27t27.5 -67t-27.5 -67t-67.5 -27z
M303 770q22 0 36.5 15t14.5 38t-14.5 38t-36.5 15t-36.5 -15t-14.5 -38t14.5 -38t36.5 -15z" />
    <glyph glyph-name="AE" unicode="&#xc6;" horiz-adv-x="933" 
d="M872 0h-408q-10 0 -10 10v142q0 6 -6 6h-241l-82 -148q-6 -10 -14 -10h-80q-11 0 -6 10l369 661q4 9 14 9h464q10 0 10 -10v-63q0 -10 -10 -10h-323q-6 0 -6 -6v-200q0 -6 6 -6h275q10 0 10 -10v-63q0 -10 -10 -10h-275q-6 0 -6 -6v-207q0 -6 6 -6h323q10 0 10 -10v-63
q0 -10 -10 -10zM452 596l-199 -356h195q6 0 6 6v350h-2z" />
    <glyph glyph-name="Ccedilla" unicode="&#xc7;" horiz-adv-x="566" 
d="M275 -152h-55q-10 0 -7 10l53 133q-144 20 -188 158q-18 54 -18 191t18 191q51 160 226 160q75 0 132 -35.5t86 -101.5q3 -9 -4 -13l-60 -29q-10 -5 -14 5q-46 91 -140 91q-107 0 -141 -100q-13 -40 -13 -168t13 -168q34 -100 141 -100q94 0 140 91q4 10 14 5l60 -29
q7 -4 4 -13q-26 -58 -74.5 -93.5t-113.5 -42.5l-43 -132q-3 -10 -16 -10z" />
    <glyph glyph-name="Egrave" unicode="&#xc8;" horiz-adv-x="563" 
d="M341 762h-49q-10 0 -18 9l-107 107q-4 4 -2.5 7t6.5 3h70q11 0 19 -10l85 -106q4 -4 2.5 -7t-6.5 -3zM84 10v660q0 10 10 10h409q10 0 10 -10v-63q0 -10 -10 -10h-324q-6 0 -6 -6v-200q0 -6 6 -6h275q10 0 10 -10v-63q0 -10 -10 -10h-275q-6 0 -6 -6v-207q0 -6 6 -6h324
q10 0 10 -10v-63q0 -10 -10 -10h-409q-10 0 -10 10z" />
    <glyph glyph-name="Eacute" unicode="&#xc9;" horiz-adv-x="563" 
d="M295 762h-50q-5 0 -6 3t2 7l86 106q8 10 18 10h70q5 0 6.5 -3t-1.5 -7l-107 -107q-8 -9 -18 -9zM84 10v660q0 10 10 10h409q10 0 10 -10v-63q0 -10 -10 -10h-324q-6 0 -6 -6v-200q0 -6 6 -6h275q10 0 10 -10v-63q0 -10 -10 -10h-275q-6 0 -6 -6v-207q0 -6 6 -6h324
q10 0 10 -10v-63q0 -10 -10 -10h-409q-10 0 -10 10z" />
    <glyph glyph-name="Ecircumflex" unicode="&#xca;" horiz-adv-x="563" 
d="M84 10v660q0 10 10 10h409q10 0 10 -10v-63q0 -10 -10 -10h-324q-6 0 -6 -6v-200q0 -6 6 -6h275q10 0 10 -10v-63q0 -10 -10 -10h-275q-6 0 -6 -6v-207q0 -6 6 -6h324q10 0 10 -10v-63q0 -10 -10 -10h-409q-10 0 -10 10zM427 754h-45q-10 0 -19 10l-63 70h-2l-64 -70
q-9 -10 -19 -10h-45q-4 0 -5.5 3t1.5 7l95 123q7 10 16 10h43q9 0 16 -10l95 -123q3 -4 2 -7t-6 -3z" />
    <glyph glyph-name="Edieresis" unicode="&#xcb;" horiz-adv-x="563" 
d="M423 777h-56q-10 0 -10 10v72q0 10 10 10h56q10 0 10 -10v-72q0 -10 -10 -10zM223 777h-56q-10 0 -10 10v72q0 10 10 10h56q10 0 10 -10v-72q0 -10 -10 -10zM84 10v660q0 10 10 10h409q10 0 10 -10v-63q0 -10 -10 -10h-324q-6 0 -6 -6v-200q0 -6 6 -6h275q10 0 10 -10
v-63q0 -10 -10 -10h-275q-6 0 -6 -6v-207q0 -6 6 -6h324q10 0 10 -10v-63q0 -10 -10 -10h-409q-10 0 -10 10z" />
    <glyph glyph-name="Igrave" unicode="&#xcc;" horiz-adv-x="257" 
d="M84 10v660q0 10 10 10h69q10 0 10 -10v-660q0 -10 -10 -10h-69q-10 0 -10 10zM155 762h-49q-10 0 -18 9l-107 107q-4 4 -2.5 7t6.5 3h70q11 0 19 -10l85 -106q4 -4 2.5 -7t-6.5 -3z" />
    <glyph glyph-name="Iacute" unicode="&#xcd;" horiz-adv-x="257" 
d="M84 10v660q0 10 10 10h69q10 0 10 -10v-660q0 -10 -10 -10h-69q-10 0 -10 10zM156 762h-50q-4 0 -5.5 3t1.5 7l86 106q8 10 18 10h70q5 0 6.5 -3t-1.5 -7l-107 -107q-8 -9 -18 -9z" />
    <glyph glyph-name="Icircumflex" unicode="&#xce;" horiz-adv-x="257" 
d="M84 10v660q0 10 10 10h69q10 0 10 -10v-660q0 -10 -10 -10h-69q-10 0 -10 10zM258 754h-45q-10 0 -19 10l-63 70h-2l-64 -70q-9 -10 -19 -10h-45q-5 0 -6 3t2 7l95 123q7 10 16 10h43q9 0 16 -10l95 -123q3 -4 1.5 -7t-5.5 -3z" />
    <glyph glyph-name="Idieresis" unicode="&#xcf;" horiz-adv-x="257" 
d="M84 10v660q0 10 10 10h69q10 0 10 -10v-660q0 -10 -10 -10h-69q-10 0 -10 10zM257 777h-56q-10 0 -10 10v72q0 10 10 10h56q10 0 10 -10v-72q0 -10 -10 -10zM57 777h-56q-10 0 -10 10v72q0 10 10 10h56q10 0 10 -10v-72q0 -10 -10 -10z" />
    <glyph glyph-name="Eth" unicode="&#xd0;" horiz-adv-x="622" 
d="M323 0h-229q-10 0 -10 10v292q0 6 -6 6h-32q-10 0 -10 10v52q0 10 10 10h32q6 0 6 6v284q0 10 10 10h229q175 0 222 -145q18 -55 18 -195t-18 -195q-47 -145 -222 -145zM304 83q124 0 155 93q14 39 14 164t-14 164q-31 93 -155 93h-125q-6 0 -6 -6v-205q0 -6 6 -6h113
q10 0 10 -10v-52q0 -10 -10 -10h-113q-6 0 -6 -6v-213q0 -6 6 -6h125z" />
    <glyph glyph-name="Ntilde" unicode="&#xd1;" horiz-adv-x="654" 
d="M382 767q-26 0 -63 21q-32 18 -53 18q-27 0 -63 -32q-3 -3 -5.5 -2t-2.5 4v48q0 10 7 18q30 32 68 32q27 0 63 -20q29 -18 53 -18q29 0 63 32q3 3 5.5 2t2.5 -5v-48q0 -10 -7 -17q-31 -33 -68 -33zM84 10v660q0 10 10 10h64q12 0 17 -10l308 -510h4v510q0 10 10 10h63
q10 0 10 -10v-660q0 -10 -10 -10h-64q-12 0 -17 10l-309 508h-3v-508q0 -10 -10 -10h-63q-10 0 -10 10z" />
    <glyph glyph-name="Ograve" unicode="&#xd2;" horiz-adv-x="619" 
d="M351 762h-49q-10 0 -18 9l-107 107q-4 4 -2.5 7t6.5 3h70q11 0 19 -10l85 -106q4 -4 2.5 -7t-6.5 -3zM309 -11q-86 0 -145.5 40.5t-85.5 118.5q-18 54 -18 192t18 192q26 78 85.5 118.5t145.5 40.5q179 0 232 -159q18 -54 18 -192t-18 -192q-53 -159 -232 -159zM309 72
q112 0 145 101q15 47 15 167t-15 167q-33 101 -145 101q-111 0 -144 -101q-15 -47 -15 -167t15 -167q33 -101 144 -101z" />
    <glyph glyph-name="Oacute" unicode="&#xd3;" horiz-adv-x="619" 
d="M317 762h-50q-5 0 -6 3t2 7l86 106q8 10 18 10h70q5 0 6.5 -3t-1.5 -7l-107 -107q-8 -9 -18 -9zM309 -11q-86 0 -145.5 40.5t-85.5 118.5q-18 54 -18 192t18 192q26 78 85.5 118.5t145.5 40.5q179 0 232 -159q18 -54 18 -192t-18 -192q-53 -159 -232 -159zM309 72
q112 0 145 101q15 47 15 167t-15 167q-33 101 -145 101q-111 0 -144 -101q-15 -47 -15 -167t15 -167q33 -101 144 -101z" />
    <glyph glyph-name="Ocircumflex" unicode="&#xd4;" horiz-adv-x="619" 
d="M309 -11q-86 0 -145.5 40.5t-85.5 118.5q-18 54 -18 192t18 192q26 78 85.5 118.5t145.5 40.5q179 0 232 -159q18 -54 18 -192t-18 -192q-53 -159 -232 -159zM309 72q112 0 145 101q15 47 15 167t-15 167q-33 101 -145 101q-111 0 -144 -101q-15 -47 -15 -167t15 -167
q33 -101 144 -101zM437 754h-45q-10 0 -19 10l-63 70h-2l-64 -70q-9 -10 -19 -10h-45q-4 0 -5.5 3t1.5 7l95 123q7 10 16 10h43q9 0 16 -10l95 -123q3 -4 2 -7t-6 -3z" />
    <glyph glyph-name="Otilde" unicode="&#xd5;" horiz-adv-x="619" 
d="M364 767q-26 0 -63 21q-32 18 -53 18q-27 0 -63 -32q-3 -3 -5.5 -2t-2.5 4v48q0 10 7 18q30 32 68 32q27 0 63 -20q29 -18 53 -18q29 0 63 32q3 3 5.5 2t2.5 -5v-48q0 -10 -7 -17q-31 -33 -68 -33zM309 -11q-86 0 -145.5 40.5t-85.5 118.5q-18 54 -18 192t18 192
q26 78 85.5 118.5t145.5 40.5q179 0 232 -159q18 -54 18 -192t-18 -192q-53 -159 -232 -159zM309 72q112 0 145 101q15 47 15 167t-15 167q-33 101 -145 101q-111 0 -144 -101q-15 -47 -15 -167t15 -167q33 -101 144 -101z" />
    <glyph glyph-name="Odieresis" unicode="&#xd6;" horiz-adv-x="619" 
d="M437 777h-56q-10 0 -10 10v72q0 10 10 10h56q10 0 10 -10v-72q0 -10 -10 -10zM237 777h-56q-10 0 -10 10v72q0 10 10 10h56q10 0 10 -10v-72q0 -10 -10 -10zM309 -11q-86 0 -145.5 40.5t-85.5 118.5q-18 54 -18 192t18 192q26 78 85.5 118.5t145.5 40.5q179 0 232 -159
q18 -54 18 -192t-18 -192q-53 -159 -232 -159zM309 72q112 0 145 101q15 47 15 167t-15 167q-33 101 -145 101q-111 0 -144 -101q-15 -47 -15 -167t15 -167q33 -101 144 -101z" />
    <glyph glyph-name="multiply" unicode="&#xd7;" 
d="M449 136l-37 -39q-7 -7 -14 0l-123 121q-4 4 -8 0l-122 -121q-7 -7 -14 0l-38 39q-7 7 0 14l122 122q4 4 0 8l-122 122q-7 7 0 14l38 39q7 7 14 0l122 -121q5 -4 9 0l122 121q7 7 14 0l37 -39q7 -7 0 -14l-122 -121q-5 -5 0 -9l122 -122q7 -7 0 -14z" />
    <glyph glyph-name="Oslash" unicode="&#xd8;" horiz-adv-x="619" 
d="M116 -30h-45q-5 0 -6.5 3t0.5 7l53 91q-24 30 -40 77q-18 54 -18 192t18 192q26 78 85.5 118.5t145.5 40.5q89 0 149 -42l30 52q5 9 15 9h45q11 0 5 -10l-53 -91q27 -35 41 -77q18 -54 18 -192t-18 -192q-53 -159 -232 -159q-89 0 -148 42l-30 -52q-5 -9 -15 -9zM150 340
q0 -136 20 -183l242 417q-40 34 -103 34q-111 0 -144 -101q-15 -47 -15 -167zM309 72q112 0 145 101q15 47 15 167q0 80 -4 116t-17 66l-242 -416q40 -34 103 -34z" />
    <glyph glyph-name="Ugrave" unicode="&#xd9;" horiz-adv-x="639" 
d="M359 762h-49q-10 0 -18 9l-107 107q-4 4 -2.5 7t6.5 3h70q11 0 19 -10l85 -106q4 -4 2.5 -7t-6.5 -3zM320 -11q-114 0 -177.5 64.5t-63.5 183.5v433q0 10 10 10h69q10 0 10 -10v-432q0 -81 41 -123.5t111 -42.5q69 0 110 42.5t41 123.5v432q0 10 10 10h69q10 0 10 -10
v-433q0 -119 -63.5 -183.5t-176.5 -64.5z" />
    <glyph glyph-name="Uacute" unicode="&#xda;" horiz-adv-x="639" 
d="M329 762h-50q-5 0 -6 3t2 7l86 106q8 10 18 10h70q5 0 6.5 -3t-1.5 -7l-107 -107q-8 -9 -18 -9zM320 -11q-114 0 -177.5 64.5t-63.5 183.5v433q0 10 10 10h69q10 0 10 -10v-432q0 -81 41 -123.5t111 -42.5q69 0 110 42.5t41 123.5v432q0 10 10 10h69q10 0 10 -10v-433
q0 -119 -63.5 -183.5t-176.5 -64.5z" />
    <glyph glyph-name="Ucircumflex" unicode="&#xdb;" horiz-adv-x="639" 
d="M320 -11q-114 0 -177.5 64.5t-63.5 183.5v433q0 10 10 10h69q10 0 10 -10v-432q0 -81 41 -123.5t111 -42.5q69 0 110 42.5t41 123.5v432q0 10 10 10h69q10 0 10 -10v-433q0 -119 -63.5 -183.5t-176.5 -64.5zM447 754h-45q-10 0 -19 10l-63 70h-2l-64 -70q-9 -10 -19 -10
h-45q-4 0 -5.5 3t1.5 7l95 123q7 10 16 10h43q9 0 16 -10l95 -123q3 -4 2 -7t-6 -3z" />
    <glyph glyph-name="Udieresis" unicode="&#xdc;" horiz-adv-x="639" 
d="M447 777h-56q-10 0 -10 10v72q0 10 10 10h56q10 0 10 -10v-72q0 -10 -10 -10zM247 777h-56q-10 0 -10 10v72q0 10 10 10h56q10 0 10 -10v-72q0 -10 -10 -10zM320 -11q-114 0 -177.5 64.5t-63.5 183.5v433q0 10 10 10h69q10 0 10 -10v-432q0 -81 41 -123.5t111 -42.5
q69 0 110 42.5t41 123.5v432q0 10 10 10h69q10 0 10 -10v-433q0 -119 -63.5 -183.5t-176.5 -64.5z" />
    <glyph glyph-name="Yacute" unicode="&#xdd;" horiz-adv-x="526" 
d="M297 0h-68q-10 0 -10 10v268l-201 391q-4 11 8 11h71q9 0 15 -10l152 -291h2l151 291q4 10 14 10h69q12 0 8 -11l-201 -391v-268q0 -10 -10 -10zM280 762h-50q-4 0 -5.5 3t1.5 7l86 106q8 10 18 10h70q5 0 6.5 -3t-1.5 -7l-107 -107q-8 -9 -18 -9z" />
    <glyph glyph-name="Thorn" unicode="&#xde;" horiz-adv-x="592" 
d="M163 0h-69q-10 0 -10 10v660q0 10 10 10h69q10 0 10 -10v-110q0 -6 6 -6h157q98 0 157 -55.5t59 -147.5t-59 -147.5t-157 -55.5h-157q-6 0 -6 -6v-132q0 -10 -10 -10zM331 231q63 0 98 32t35 88t-35 88t-98 32h-152q-6 0 -6 -6v-228q0 -6 6 -6h152z" />
    <glyph glyph-name="germandbls" unicode="&#xdf;" horiz-adv-x="539" 
d="M305 -4h-22q-10 0 -10 10v58q0 10 10 10h20q72 0 89 51q6 19 6 98q0 80 -7 102q-18 55 -97 55h-11q-10 0 -10 10v58q0 10 10 10h20q45 0 66 18.5t21 58.5q0 79 -107 79q-62 0 -89.5 -28t-27.5 -91v-485q0 -10 -10 -10h-64q-10 0 -10 10v482q0 98 47.5 148.5t151.5 50.5
q94 0 143.5 -40.5t49.5 -115.5q0 -78 -63 -112v-2q45 -21 61 -68q11 -37 11 -130q0 -95 -12 -133q-30 -94 -166 -94z" />
    <glyph glyph-name="agrave" unicode="&#xe0;" horiz-adv-x="519" 
d="M431 0h-59q-10 0 -10 10v42h-1q-39 -63 -142 -63q-72 0 -116.5 37t-44.5 107q0 74 48.5 111t138.5 37h109q6 0 6 6v35q0 51 -25 72.5t-90 21.5q-68 0 -116 -34q-9 -7 -14 1l-27 46q-4 8 2 14q60 47 163 47q102 0 145 -37.5t43 -125.5v-317q0 -10 -10 -10zM239 61
q56 0 88.5 25t32.5 69v53q0 6 -6 6h-96q-62 0 -90.5 -18.5t-28.5 -59.5q0 -75 100 -75zM316 557h-47q-11 0 -19 10l-92 123q-3 4 -1.5 7t6.5 3h66q12 0 18 -10l75 -123q5 -10 -6 -10z" />
    <glyph glyph-name="aacute" unicode="&#xe1;" horiz-adv-x="519" 
d="M431 0h-59q-10 0 -10 10v42h-1q-39 -63 -142 -63q-72 0 -116.5 37t-44.5 107q0 74 48.5 111t138.5 37h109q6 0 6 6v35q0 51 -25 72.5t-90 21.5q-68 0 -116 -34q-9 -7 -14 1l-27 46q-4 8 2 14q60 47 163 47q102 0 145 -37.5t43 -125.5v-317q0 -10 -10 -10zM239 61
q56 0 88.5 25t32.5 69v53q0 6 -6 6h-96q-62 0 -90.5 -18.5t-28.5 -59.5q0 -75 100 -75zM272 557h-47q-11 0 -6 10l76 123q6 10 17 10h66q5 0 6.5 -3t-1.5 -7l-92 -123q-7 -10 -19 -10z" />
    <glyph glyph-name="acircumflex" unicode="&#xe2;" horiz-adv-x="519" 
d="M431 0h-59q-10 0 -10 10v42h-1q-39 -63 -142 -63q-72 0 -116.5 37t-44.5 107q0 74 48.5 111t138.5 37h109q6 0 6 6v35q0 51 -25 72.5t-90 21.5q-68 0 -116 -34q-9 -7 -14 1l-27 46q-4 8 2 14q60 47 163 47q102 0 145 -37.5t43 -125.5v-317q0 -10 -10 -10zM239 61
q56 0 88.5 25t32.5 69v53q0 6 -6 6h-96q-62 0 -90.5 -18.5t-28.5 -59.5q0 -75 100 -75zM387 557h-45q-10 0 -19 10l-63 70h-2l-64 -70q-9 -10 -19 -10h-45q-4 0 -5.5 3t1.5 7l95 123q7 10 16 10h43q9 0 16 -10l95 -123q3 -4 2 -7t-6 -3z" />
    <glyph glyph-name="atilde" unicode="&#xe3;" horiz-adv-x="519" 
d="M431 0h-59q-10 0 -10 10v42h-1q-39 -63 -142 -63q-72 0 -116.5 37t-44.5 107q0 74 48.5 111t138.5 37h109q6 0 6 6v35q0 51 -25 72.5t-90 21.5q-68 0 -116 -34q-9 -7 -14 1l-27 46q-4 8 2 14q60 47 163 47q102 0 145 -37.5t43 -125.5v-317q0 -10 -10 -10zM239 61
q56 0 88.5 25t32.5 69v53q0 6 -6 6h-96q-62 0 -90.5 -18.5t-28.5 -59.5q0 -75 100 -75zM314 576q-26 0 -63 21q-32 18 -53 18q-27 0 -63 -32q-3 -3 -5.5 -2t-2.5 4v48q0 10 7 18q32 32 68 32q28 0 63 -21q32 -18 53 -18q27 0 63 32q3 3 5.5 2t2.5 -4v-48q0 -10 -7 -18
q-32 -32 -68 -32z" />
    <glyph glyph-name="adieresis" unicode="&#xe4;" horiz-adv-x="519" 
d="M431 0h-59q-10 0 -10 10v42h-1q-39 -63 -142 -63q-72 0 -116.5 37t-44.5 107q0 74 48.5 111t138.5 37h109q6 0 6 6v35q0 51 -25 72.5t-90 21.5q-68 0 -116 -34q-9 -7 -14 1l-27 46q-4 8 2 14q60 47 163 47q102 0 145 -37.5t43 -125.5v-317q0 -10 -10 -10zM239 61
q56 0 88.5 25t32.5 69v53q0 6 -6 6h-96q-62 0 -90.5 -18.5t-28.5 -59.5q0 -75 100 -75zM386 587h-59q-10 0 -10 10v73q0 10 10 10h59q10 0 10 -10v-73q0 -10 -10 -10zM189 587h-59q-10 0 -10 10v73q0 10 10 10h59q10 0 10 -10v-73q0 -10 -10 -10z" />
    <glyph glyph-name="aring" unicode="&#xe5;" horiz-adv-x="519" 
d="M431 0h-59q-10 0 -10 10v42h-1q-39 -63 -142 -63q-72 0 -116.5 37t-44.5 107q0 74 48.5 111t138.5 37h109q6 0 6 6v35q0 51 -25 72.5t-90 21.5q-68 0 -116 -34q-9 -7 -14 1l-27 46q-4 8 2 14q60 47 163 47q102 0 145 -37.5t43 -125.5v-317q0 -10 -10 -10zM239 61
q56 0 88.5 25t32.5 69v53q0 6 -6 6h-96q-62 0 -90.5 -18.5t-28.5 -59.5q0 -75 100 -75zM263 535q-40 0 -67.5 27t-27.5 67t27.5 67t67.5 27t67.5 -27t27.5 -67t-27.5 -67t-67.5 -27zM263 576q22 0 36.5 15t14.5 38t-14.5 38t-36.5 15t-36.5 -15t-14.5 -38t14.5 -38t36.5 -15
z" />
    <glyph glyph-name="ae" unicode="&#xe6;" horiz-adv-x="814" 
d="M563 -11q-113 0 -166 84h-1q-42 -84 -177 -84q-72 0 -116.5 37t-44.5 107q0 74 48.5 111t138.5 37h109q6 0 6 6v35q0 51 -25 72.5t-90 21.5q-68 0 -116 -34q-9 -7 -14 1l-27 46q-4 8 2 14q60 47 163 47q126 0 159 -64h2q47 64 144 64q70 0 119 -33.5t69 -95.5
q15 -47 15 -137q0 -10 -11 -10h-303q-6 0 -6 -6q0 -32 8 -58q29 -83 121 -83q77 0 123 53q8 8 15 2l41 -37q7 -6 1 -14q-65 -82 -187 -82zM669 281q6 0 6 6q0 33 -7 54q-25 75 -110 75t-110 -75q-7 -21 -7 -54q0 -6 6 -6h222zM239 61q56 0 88.5 25t32.5 69v53q0 6 -6 6h-96
q-62 0 -90.5 -18.5t-28.5 -59.5q0 -75 100 -75z" />
    <glyph glyph-name="ccedilla" unicode="&#xe7;" horiz-adv-x="472" 
d="M228 -152h-55q-10 0 -7 10l53 134q-55 8 -94.5 40.5t-56.5 85.5q-15 48 -15 122q0 73 15 121q20 62 70 95.5t119 33.5q107 0 164 -81q5 -8 -3 -14l-44 -36q-8 -6 -14 1q-22 27 -45 39.5t-58 12.5q-83 0 -107 -75q-11 -34 -11 -97q0 -64 11 -98q24 -75 107 -75
q35 0 58 12.5t45 39.5q6 7 14 1l44 -36q8 -6 3 -14q-47 -67 -134 -79l-43 -133q-3 -10 -16 -10z" />
    <glyph glyph-name="egrave" unicode="&#xe8;" horiz-adv-x="512" 
d="M261 -11q-73 0 -122.5 34t-69.5 96q-16 50 -16 121q0 78 15 121q20 62 69.5 95.5t118.5 33.5t118.5 -34t69.5 -95q15 -47 15 -137q0 -10 -11 -10h-303q-6 0 -6 -6q0 -32 8 -58q29 -83 121 -83q77 0 123 53q8 8 15 2l41 -37q7 -6 1 -14q-65 -82 -187 -82zM145 281h222
q6 0 6 6q0 33 -7 54q-25 75 -110 75t-110 -75q-7 -21 -7 -54q0 -6 6 -6zM297 557h-47q-12 0 -19 10l-92 123q-3 4 -1.5 7t6.5 3h66q12 0 18 -10l75 -123q5 -10 -6 -10z" />
    <glyph glyph-name="eacute" unicode="&#xe9;" horiz-adv-x="512" 
d="M265 557h-47q-11 0 -6 10l76 123q6 10 17 10h66q5 0 6.5 -3t-1.5 -7l-92 -123q-8 -10 -19 -10zM261 -11q-73 0 -122.5 34t-69.5 96q-16 50 -16 121q0 78 15 121q20 62 69.5 95.5t118.5 33.5t118.5 -34t69.5 -95q15 -47 15 -137q0 -10 -11 -10h-303q-6 0 -6 -6
q0 -32 8 -58q29 -83 121 -83q77 0 123 53q8 8 15 2l41 -37q7 -6 1 -14q-65 -82 -187 -82zM145 281h222q6 0 6 6q0 33 -7 54q-25 75 -110 75t-110 -75q-7 -21 -7 -54q0 -6 6 -6z" />
    <glyph glyph-name="ecircumflex" unicode="&#xea;" horiz-adv-x="512" 
d="M384 557h-45q-10 0 -19 10l-63 70h-2l-64 -70q-9 -10 -19 -10h-45q-5 0 -6 3t2 7l95 123q7 10 16 10h43q9 0 16 -10l95 -123q3 -4 1.5 -7t-5.5 -3zM261 -11q-73 0 -122.5 34t-69.5 96q-16 50 -16 121q0 78 15 121q20 62 69.5 95.5t118.5 33.5t118.5 -34t69.5 -95
q15 -47 15 -137q0 -10 -11 -10h-303q-6 0 -6 -6q0 -32 8 -58q29 -83 121 -83q77 0 123 53q8 8 15 2l41 -37q7 -6 1 -14q-65 -82 -187 -82zM145 281h222q6 0 6 6q0 33 -7 54q-25 75 -110 75t-110 -75q-7 -21 -7 -54q0 -6 6 -6z" />
    <glyph glyph-name="edieresis" unicode="&#xeb;" horiz-adv-x="512" 
d="M383 587h-59q-10 0 -10 10v73q0 10 10 10h59q10 0 10 -10v-73q0 -10 -10 -10zM186 587h-59q-10 0 -10 10v73q0 10 10 10h59q10 0 10 -10v-73q0 -10 -10 -10zM261 -11q-73 0 -122.5 34t-69.5 96q-16 50 -16 121q0 78 15 121q20 62 69.5 95.5t118.5 33.5t118.5 -34
t69.5 -95q15 -47 15 -137q0 -10 -11 -10h-303q-6 0 -6 -6q0 -32 8 -58q29 -83 121 -83q77 0 123 53q8 8 15 2l41 -37q7 -6 1 -14q-65 -82 -187 -82zM145 281h222q6 0 6 6q0 33 -7 54q-25 75 -110 75t-110 -75q-7 -21 -7 -54q0 -6 6 -6z" />
    <glyph glyph-name="igrave" unicode="&#xec;" horiz-adv-x="248" 
d="M156 0h-64q-10 0 -10 10v459q0 10 10 10h64q10 0 10 -10v-459q0 -10 -10 -10zM151 557h-47q-12 0 -19 10l-92 123q-3 4 -1.5 7t6.5 3h66q12 0 18 -10l75 -123q5 -10 -6 -10z" />
    <glyph glyph-name="iacute" unicode="&#xed;" horiz-adv-x="248" 
d="M147 557h-47q-11 0 -6 10l76 123q6 10 17 10h66q5 0 6.5 -3t-1.5 -7l-92 -123q-8 -10 -19 -10zM156 0h-64q-10 0 -10 10v459q0 10 10 10h64q10 0 10 -10v-459q0 -10 -10 -10z" />
    <glyph glyph-name="icircumflex" unicode="&#xee;" horiz-adv-x="248" 
d="M253 557h-45q-10 0 -19 10l-63 70h-2l-64 -70q-9 -10 -19 -10h-45q-4 0 -5.5 3t1.5 7l95 123q7 10 16 10h43q9 0 16 -10l95 -123q3 -4 2 -7t-6 -3zM156 0h-64q-10 0 -10 10v459q0 10 10 10h64q10 0 10 -10v-459q0 -10 -10 -10z" />
    <glyph glyph-name="idieresis" unicode="&#xef;" horiz-adv-x="248" 
d="M252 587h-59q-10 0 -10 10v73q0 10 10 10h59q10 0 10 -10v-73q0 -10 -10 -10zM55 587h-59q-10 0 -10 10v73q0 10 10 10h59q10 0 10 -10v-73q0 -10 -10 -10zM156 0h-64q-10 0 -10 10v459q0 10 10 10h64q10 0 10 -10v-459q0 -10 -10 -10z" />
    <glyph glyph-name="eth" unicode="&#xf0;" horiz-adv-x="516" 
d="M258 -11q-70 0 -119.5 34t-69.5 95q-16 52 -16 111q0 65 15 113q19 58 63.5 91t103.5 33q43 0 78 -23h1l-76 100l-94 -29q-10 -3 -13 7l-12 42q-3 10 7 13l71 21l-55 73q-3 4 -1.5 7t6.5 3h72q11 0 18 -10l38 -49l93 28q10 3 13 -6l12 -43q3 -9 -7 -12l-70 -22l29 -38
q118 -154 118 -286q0 -72 -16 -124q-20 -61 -69.5 -95t-119.5 -34zM258 67q82 0 108 75q11 33 11 87t-11 87q-26 75 -108 75t-108 -75q-11 -33 -11 -87t11 -87q26 -75 108 -75z" />
    <glyph glyph-name="ntilde" unicode="&#xf1;" horiz-adv-x="544" 
d="M457 0h-64q-10 0 -10 10v280q0 122 -107 122q-49 0 -79.5 -32t-30.5 -85v-285q0 -10 -10 -10h-64q-10 0 -10 10v459q0 10 10 10h64q10 0 10 -10v-44h1q40 65 134 65q77 0 121.5 -49t44.5 -131v-300q0 -10 -10 -10zM327 576q-26 0 -63 21q-32 18 -53 18q-27 0 -63 -32
q-3 -3 -5.5 -2t-2.5 4v48q0 10 7 18q32 32 68 32q28 0 63 -21q32 -18 53 -18q27 0 63 32q3 3 5.5 2t2.5 -4v-48q0 -10 -7 -18q-32 -32 -68 -32z" />
    <glyph glyph-name="ograve" unicode="&#xf2;" horiz-adv-x="516" 
d="M258 -11q-70 0 -119.5 34t-69.5 95q-16 48 -16 122q0 73 16 121q19 61 69 95t120 34t120 -34t69 -95q16 -48 16 -121q0 -74 -16 -122q-20 -61 -69.5 -95t-119.5 -34zM258 67q83 0 108 75q11 36 11 98q0 61 -11 97q-25 75 -108 75t-108 -75q-11 -36 -11 -97q0 -62 11 -98
q25 -75 108 -75zM294 557h-47q-11 0 -19 10l-92 123q-3 4 -1.5 7t6.5 3h66q12 0 18 -10l75 -123q5 -10 -6 -10z" />
    <glyph glyph-name="oacute" unicode="&#xf3;" horiz-adv-x="516" 
d="M269 557h-47q-11 0 -6 10l76 123q6 10 17 10h66q5 0 6.5 -3t-1.5 -7l-92 -123q-8 -10 -19 -10zM258 -11q-70 0 -119.5 34t-69.5 95q-16 48 -16 122q0 73 16 121q19 61 69 95t120 34t120 -34t69 -95q16 -48 16 -121q0 -74 -16 -122q-20 -61 -69.5 -95t-119.5 -34zM258 67
q83 0 108 75q11 36 11 98q0 61 -11 97q-25 75 -108 75t-108 -75q-11 -36 -11 -97q0 -62 11 -98q25 -75 108 -75z" />
    <glyph glyph-name="ocircumflex" unicode="&#xf4;" horiz-adv-x="516" 
d="M386 557h-45q-10 0 -19 10l-63 70h-2l-64 -70q-9 -10 -19 -10h-45q-5 0 -6 3t2 7l95 123q7 10 16 10h43q9 0 16 -10l95 -123q3 -4 1.5 -7t-5.5 -3zM258 -11q-70 0 -119.5 34t-69.5 95q-16 48 -16 122q0 73 16 121q19 61 69 95t120 34t120 -34t69 -95q16 -48 16 -121
q0 -74 -16 -122q-20 -61 -69.5 -95t-119.5 -34zM258 67q83 0 108 75q11 36 11 98q0 61 -11 97q-25 75 -108 75t-108 -75q-11 -36 -11 -97q0 -62 11 -98q25 -75 108 -75z" />
    <glyph glyph-name="otilde" unicode="&#xf5;" horiz-adv-x="516" 
d="M258 -11q-70 0 -119.5 34t-69.5 95q-16 48 -16 122q0 73 16 121q19 61 69 95t120 34t120 -34t69 -95q16 -48 16 -121q0 -74 -16 -122q-20 -61 -69.5 -95t-119.5 -34zM258 67q83 0 108 75q11 36 11 98q0 61 -11 97q-25 75 -108 75t-108 -75q-11 -36 -11 -97q0 -62 11 -98
q25 -75 108 -75zM313 576q-26 0 -63 21q-32 18 -53 18q-27 0 -63 -32q-3 -3 -5.5 -2t-2.5 4v48q0 10 7 18q32 32 68 32q28 0 63 -21q32 -18 53 -18q27 0 63 32q3 3 5.5 2t2.5 -4v-48q0 -10 -7 -18q-32 -32 -68 -32z" />
    <glyph glyph-name="odieresis" unicode="&#xf6;" horiz-adv-x="516" 
d="M385 587h-59q-10 0 -10 10v73q0 10 10 10h59q10 0 10 -10v-73q0 -10 -10 -10zM188 587h-59q-10 0 -10 10v73q0 10 10 10h59q10 0 10 -10v-73q0 -10 -10 -10zM258 -11q-70 0 -119.5 34t-69.5 95q-16 48 -16 122q0 73 16 121q19 61 69 95t120 34t120 -34t69 -95
q16 -48 16 -121q0 -74 -16 -122q-20 -61 -69.5 -95t-119.5 -34zM258 67q83 0 108 75q11 36 11 98q0 61 -11 97q-25 75 -108 75t-108 -75q-11 -36 -11 -97q0 -62 11 -98q25 -75 108 -75z" />
    <glyph glyph-name="divide" unicode="&#xf7;" 
d="M215 438q0 23 16.5 39.5t39.5 16.5t39.5 -16.5t16.5 -39.5t-16.5 -39.5t-39.5 -16.5t-39.5 16.5t-16.5 39.5zM471 239h-400q-10 0 -10 10v54q0 10 10 10h400q10 0 10 -10v-54q0 -10 -10 -10zM215 114q0 23 16.5 39.5t39.5 16.5t39.5 -16.5t16.5 -39.5t-16.5 -39.5
t-39.5 -16.5t-39.5 16.5t-16.5 39.5z" />
    <glyph glyph-name="oslash" unicode="&#xf8;" horiz-adv-x="516" 
d="M258 -11q-72 0 -121 35l-30 -44q-7 -10 -18 -10h-29q-11 0 -5 10l49 73q-23 28 -35 65q-16 48 -16 122q0 73 16 121q19 61 69 95t120 34q71 0 121 -35l30 44q6 10 18 10h29q11 0 5 -10l-49 -74q24 -28 35 -64q16 -48 16 -121q0 -74 -16 -122q-20 -61 -69.5 -95
t-119.5 -34zM155 126l177 262q-30 24 -74 24q-84 0 -109 -75q-11 -36 -11 -97q0 -74 17 -114zM258 67q84 0 109 75q11 36 11 98q0 69 -18 113l-177 -262q30 -24 75 -24z" />
    <glyph glyph-name="ugrave" unicode="&#xf9;" horiz-adv-x="539" 
d="M447 0h-64q-10 0 -10 10v45h-1q-41 -66 -131 -66q-78 0 -122 49t-44 132v299q0 10 10 10h64q10 0 10 -10v-279q0 -123 106 -123q49 0 78.5 32t29.5 86v284q0 10 10 10h64q10 0 10 -10v-459q0 -10 -10 -10zM307 557h-47q-12 0 -19 10l-92 123q-3 4 -1.5 7t6.5 3h66
q12 0 18 -10l75 -123q5 -10 -6 -10z" />
    <glyph glyph-name="uacute" unicode="&#xfa;" horiz-adv-x="539" 
d="M280 557h-47q-11 0 -6 10l76 123q6 10 17 10h66q5 0 6.5 -3t-1.5 -7l-92 -123q-7 -10 -19 -10zM447 0h-64q-10 0 -10 10v45h-1q-41 -66 -131 -66q-78 0 -122 49t-44 132v299q0 10 10 10h64q10 0 10 -10v-279q0 -123 106 -123q49 0 78.5 32t29.5 86v284q0 10 10 10h64
q10 0 10 -10v-459q0 -10 -10 -10z" />
    <glyph glyph-name="ucircumflex" unicode="&#xfb;" horiz-adv-x="539" 
d="M397 557h-45q-10 0 -19 10l-63 70h-2l-64 -70q-9 -10 -19 -10h-45q-4 0 -5.5 3t1.5 7l95 123q7 10 16 10h43q9 0 16 -10l95 -123q3 -4 2 -7t-6 -3zM447 0h-64q-10 0 -10 10v45h-1q-41 -66 -131 -66q-78 0 -122 49t-44 132v299q0 10 10 10h64q10 0 10 -10v-279
q0 -123 106 -123q49 0 78.5 32t29.5 86v284q0 10 10 10h64q10 0 10 -10v-459q0 -10 -10 -10z" />
    <glyph glyph-name="udieresis" unicode="&#xfc;" horiz-adv-x="539" 
d="M397 587h-59q-10 0 -10 10v73q0 10 10 10h59q10 0 10 -10v-73q0 -10 -10 -10zM200 587h-59q-10 0 -10 10v73q0 10 10 10h59q10 0 10 -10v-73q0 -10 -10 -10zM447 0h-64q-10 0 -10 10v45h-1q-41 -66 -131 -66q-78 0 -122 49t-44 132v299q0 10 10 10h64q10 0 10 -10v-279
q0 -123 106 -123q49 0 78.5 32t29.5 86v284q0 10 10 10h64q10 0 10 -10v-459q0 -10 -10 -10z" />
    <glyph glyph-name="yacute" unicode="&#xfd;" horiz-adv-x="477" 
d="M112 -180h-26q-10 0 -10 10v58q0 10 10 10h18q30 0 47.5 15.5t33.5 56.5l16 44l-176 455q-3 10 8 10h70q9 0 12 -10l126 -346h2l121 346q3 10 12 10h68q11 0 8 -10l-189 -506q-31 -83 -63.5 -113t-87.5 -30zM254 557h-47q-11 0 -6 10l76 123q6 10 17 10h66q5 0 6.5 -3
t-1.5 -7l-92 -123q-7 -10 -19 -10z" />
    <glyph glyph-name="thorn" unicode="&#xfe;" horiz-adv-x="538" 
d="M156 -180h-64q-10 0 -10 10v840q0 10 10 10h64q10 0 10 -10v-246h1q40 66 136 66q129 0 165 -115q17 -50 17 -135q0 -86 -17 -136q-36 -115 -165 -115q-95 0 -136 67h-1v-226q0 -10 -10 -10zM283 67q80 0 105 73q11 34 11 100q0 64 -11 100q-25 72 -105 72
q-82 0 -106 -72q-11 -33 -11 -100q0 -68 11 -100q24 -73 106 -73z" />
    <glyph glyph-name="ydieresis" unicode="&#xff;" horiz-adv-x="477" 
d="M112 -180h-26q-10 0 -10 10v58q0 10 10 10h18q30 0 47.5 15.5t33.5 56.5l16 44l-176 455q-3 10 8 10h70q9 0 12 -10l126 -346h2l121 346q3 10 12 10h68q11 0 8 -10l-189 -506q-31 -83 -63.5 -113t-87.5 -30zM368 587h-59q-10 0 -10 10v73q0 10 10 10h59q10 0 10 -10v-73
q0 -10 -10 -10zM171 587h-59q-10 0 -10 10v73q0 10 10 10h59q10 0 10 -10v-73q0 -10 -10 -10z" />
    <glyph glyph-name="Amacron" unicode="&#x100;" horiz-adv-x="607" 
d="M24 10l236 660q3 10 12 10h65q10 0 13 -10l233 -660q3 -10 -7 -10h-70q-10 0 -13 10l-52 148h-275l-52 -148q-4 -10 -13 -10h-70q-10 0 -7 10zM195 240h217l-107 309h-2zM430 790h-255q-10 0 -10 10v45q0 10 10 10h255q10 0 10 -10v-45q0 -10 -10 -10z" />
    <glyph glyph-name="amacron" unicode="&#x101;" horiz-adv-x="519" 
d="M431 0h-59q-10 0 -10 10v42h-1q-39 -63 -142 -63q-72 0 -116.5 37t-44.5 107q0 74 48.5 111t138.5 37h109q6 0 6 6v35q0 51 -25 72.5t-90 21.5q-68 0 -116 -34q-9 -7 -14 1l-27 46q-4 8 2 14q60 47 163 47q102 0 145 -37.5t43 -125.5v-317q0 -10 -10 -10zM239 61
q56 0 88.5 25t32.5 69v53q0 6 -6 6h-96q-62 0 -90.5 -18.5t-28.5 -59.5q0 -75 100 -75zM386 601h-255q-10 0 -10 10v45q0 10 10 10h255q10 0 10 -10v-45q0 -10 -10 -10z" />
    <glyph glyph-name="Abreve" unicode="&#x102;" horiz-adv-x="607" 
d="M24 10l236 660q3 10 12 10h65q10 0 13 -10l233 -660q3 -10 -7 -10h-70q-10 0 -13 10l-52 148h-275l-52 -148q-4 -10 -13 -10h-70q-10 0 -7 10zM195 240h217l-107 309h-2zM303 761q-58 0 -94.5 31.5t-41.5 81.5q0 10 9 10h36q8 0 11 -10q16 -52 80 -52t79 52q3 10 12 10
h35q9 0 9 -10q-5 -50 -41.5 -81.5t-93.5 -31.5z" />
    <glyph glyph-name="abreve" unicode="&#x103;" horiz-adv-x="519" 
d="M431 0h-59q-10 0 -10 10v42h-1q-39 -63 -142 -63q-72 0 -116.5 37t-44.5 107q0 74 48.5 111t138.5 37h109q6 0 6 6v35q0 51 -25 72.5t-90 21.5q-68 0 -116 -34q-9 -7 -14 1l-27 46q-4 8 2 14q60 47 163 47q102 0 145 -37.5t43 -125.5v-317q0 -10 -10 -10zM239 61
q56 0 88.5 25t32.5 69v53q0 6 -6 6h-96q-62 0 -90.5 -18.5t-28.5 -59.5q0 -75 100 -75zM259 561q-58 0 -94.5 31.5t-41.5 81.5q0 10 9 10h36q8 0 11 -10q17 -52 80 -52q64 0 79 52q3 10 12 10h35q9 0 9 -10q-5 -50 -41.5 -81.5t-93.5 -31.5z" />
    <glyph glyph-name="Aogonek" unicode="&#x104;" horiz-adv-x="607" 
d="M508 -182q-38 0 -61 20.5t-23 58.5q0 54 74 106q-4 2 -6 8l-51 147h-275l-52 -148q-4 -10 -13 -10h-69q-11 0 -8 10l236 660q3 10 12 10h65q10 0 13 -10l233 -660q2 -7 -4 -10q-84 -55 -84 -89q0 -27 26 -27q11 0 27 8q9 4 13 -4l17 -35q5 -8 -3 -14q-30 -21 -67 -21z
M303 550l-108 -310h217l-107 310h-2z" />
    <glyph glyph-name="aogonek" unicode="&#x105;" horiz-adv-x="519" 
d="M245 416q-68 0 -116 -34q-9 -7 -14 1l-27 46q-4 8 2 14q60 47 163 47q102 0 145 -37.5t43 -125.5v-317q0 -8 -5 -10q-49 -31 -67 -51t-18 -38q0 -27 27 -27q11 0 27 8q8 5 13 -4l17 -35q4 -7 -4 -14q-28 -21 -67 -21q-38 0 -60.5 21t-22.5 58q0 59 81 111v44h-1
q-39 -63 -142 -63q-72 0 -116.5 37t-44.5 107q0 74 48.5 111t138.5 37h109q6 0 6 6v35q0 51 -25 72.5t-90 21.5zM239 61q56 0 88.5 25t32.5 69v53q0 6 -6 6h-96q-62 0 -90.5 -18.5t-28.5 -59.5q0 -75 100 -75z" />
    <glyph glyph-name="Cacute" unicode="&#x106;" horiz-adv-x="566" 
d="M78 149q-18 54 -18 191t18 191q51 160 226 160q75 0 132 -35.5t86 -101.5q3 -9 -4 -13l-60 -29q-10 -5 -14 5q-46 91 -140 91q-107 0 -141 -100q-13 -40 -13 -168t13 -168q34 -100 141 -100q94 0 140 91q4 10 14 5l60 -29q7 -4 4 -13q-29 -66 -86 -101.5t-132 -35.5
q-175 0 -226 160zM305 762h-50q-5 0 -6 3t2 7l86 106q8 10 18 10h70q5 0 6.5 -3t-1.5 -7l-107 -107q-8 -9 -18 -9z" />
    <glyph glyph-name="cacute" unicode="&#x107;" horiz-adv-x="472" 
d="M259 557h-47q-11 0 -6 10l76 123q6 10 17 10h66q5 0 6.5 -3t-1.5 -7l-92 -123q-8 -10 -19 -10zM53 240q0 73 15 121q20 62 70 95.5t119 33.5q107 0 164 -81q5 -8 -3 -14l-44 -36q-8 -6 -14 1q-22 27 -45 39.5t-58 12.5q-83 0 -107 -75q-11 -34 -11 -97q0 -64 11 -98
q24 -75 107 -75q35 0 58 12.5t45 39.5q6 7 14 1l44 -36q8 -6 3 -14q-57 -81 -164 -81q-69 0 -119 33.5t-70 95.5q-15 48 -15 122z" />
    <glyph glyph-name="Ccircumflex" unicode="&#x108;" horiz-adv-x="566" 
d="M78 149q-18 54 -18 191t18 191q51 160 226 160q75 0 132 -35.5t86 -101.5q3 -9 -4 -13l-60 -29q-10 -5 -14 5q-46 91 -140 91q-107 0 -141 -100q-13 -40 -13 -168t13 -168q34 -100 141 -100q94 0 140 91q4 10 14 5l60 -29q7 -4 4 -13q-29 -66 -86 -101.5t-132 -35.5
q-175 0 -226 160zM430 754h-45q-10 0 -19 10l-63 70h-2l-64 -70q-9 -10 -19 -10h-45q-5 0 -6 3t2 7l95 123q7 10 16 10h43q9 0 16 -10l95 -123q3 -4 1.5 -7t-5.5 -3z" />
    <glyph glyph-name="ccircumflex" unicode="&#x109;" horiz-adv-x="472" 
d="M384 557h-45q-10 0 -19 10l-63 70h-2l-64 -70q-9 -10 -19 -10h-45q-5 0 -6 3t2 7l95 123q7 10 16 10h43q9 0 16 -10l95 -123q3 -4 1.5 -7t-5.5 -3zM53 240q0 73 15 121q20 62 70 95.5t119 33.5q107 0 164 -81q5 -8 -3 -14l-44 -36q-8 -6 -14 1q-22 27 -45 39.5t-58 12.5
q-83 0 -107 -75q-11 -34 -11 -97q0 -64 11 -98q24 -75 107 -75q35 0 58 12.5t45 39.5q6 7 14 1l44 -36q8 -6 3 -14q-57 -81 -164 -81q-69 0 -119 33.5t-70 95.5q-15 48 -15 122z" />
    <glyph glyph-name="Cdotaccent" unicode="&#x10a;" horiz-adv-x="566" 
d="M336 777h-69q-10 0 -10 10v72q0 10 10 10h69q10 0 10 -10v-72q0 -10 -10 -10zM78 149q-18 54 -18 191t18 191q51 160 226 160q75 0 132 -35.5t86 -101.5q3 -9 -4 -13l-60 -29q-10 -5 -14 5q-46 91 -140 91q-107 0 -141 -100q-13 -40 -13 -168t13 -168q34 -100 141 -100
q94 0 140 91q4 10 14 5l60 -29q7 -4 4 -13q-29 -66 -86 -101.5t-132 -35.5q-175 0 -226 160z" />
    <glyph glyph-name="cdotaccent" unicode="&#x10b;" horiz-adv-x="472" 
d="M53 240q0 73 15 121q20 62 70 95.5t119 33.5q107 0 164 -81q5 -8 -3 -14l-44 -36q-8 -6 -14 1q-22 27 -45 39.5t-58 12.5q-83 0 -107 -75q-11 -34 -11 -97q0 -64 11 -98q24 -75 107 -75q35 0 58 12.5t45 39.5q6 7 14 1l44 -36q8 -6 3 -14q-57 -81 -164 -81
q-69 0 -119 33.5t-70 95.5q-15 48 -15 122zM290 587h-69q-10 0 -10 10v73q0 10 10 10h69q10 0 10 -10v-73q0 -10 -10 -10z" />
    <glyph glyph-name="Ccaron" unicode="&#x10c;" horiz-adv-x="566" 
d="M78 149q-18 54 -18 191t18 191q51 160 226 160q75 0 132 -35.5t86 -101.5q3 -9 -4 -13l-60 -29q-10 -5 -14 5q-46 91 -140 91q-107 0 -141 -100q-13 -40 -13 -168t13 -168q34 -100 141 -100q94 0 140 91q4 10 14 5l60 -29q7 -4 4 -13q-29 -66 -86 -101.5t-132 -35.5
q-175 0 -226 160zM323 752h-43q-9 0 -16 10l-95 124q-3 4 -2 7t6 3h45q10 0 19 -10l64 -71h2l63 71q9 10 19 10h45q4 0 5.5 -3t-1.5 -7l-95 -124q-7 -10 -16 -10z" />
    <glyph glyph-name="ccaron" unicode="&#x10d;" horiz-adv-x="472" 
d="M277 555h-43q-9 0 -16 10l-95 124q-3 4 -2 7t6 3h45q10 0 19 -10l64 -71h2l63 71q9 10 19 10h45q4 0 5.5 -3t-1.5 -7l-95 -124q-7 -10 -16 -10zM53 240q0 73 15 121q20 62 70 95.5t119 33.5q107 0 164 -81q5 -8 -3 -14l-44 -36q-8 -6 -14 1q-22 27 -45 39.5t-58 12.5
q-83 0 -107 -75q-11 -34 -11 -97q0 -64 11 -98q24 -75 107 -75q35 0 58 12.5t45 39.5q6 7 14 1l44 -36q8 -6 3 -14q-57 -81 -164 -81q-69 0 -119 33.5t-70 95.5q-15 48 -15 122z" />
    <glyph glyph-name="Dcaron" unicode="&#x10e;" horiz-adv-x="622" 
d="M318 752h-43q-9 0 -16 10l-95 124q-3 4 -1.5 7t5.5 3h45q10 0 19 -10l64 -71h2l63 71q9 10 19 10h45q5 0 6 -3t-2 -7l-95 -124q-7 -10 -16 -10zM84 10v660q0 10 10 10h229q175 0 222 -145q18 -55 18 -195t-18 -195q-47 -145 -222 -145h-229q-10 0 -10 10zM173 89
q0 -6 6 -6h125q124 0 155 93q14 39 14 164t-14 164q-31 93 -155 93h-125q-6 0 -6 -6v-502z" />
    <glyph glyph-name="dcaron" unicode="&#x10f;" horiz-adv-x="538" 
d="M503 517q-10 0 -10 11v142q0 10 10 10h60q10 0 10 -10v-64q0 -12 -6 -20l-50 -61q-7 -8 -14 -8zM446 0h-64q-10 0 -10 10v46h-1q-41 -67 -136 -67q-129 0 -165 115q-17 50 -17 136q0 85 17 135q36 115 165 115q96 0 136 -66h1v246q0 10 10 10h64q10 0 10 -10v-660
q0 -10 -10 -10zM255 67q82 0 106 73q11 32 11 100q0 67 -11 100q-24 72 -106 72q-80 0 -105 -72q-11 -36 -11 -100q0 -66 11 -100q25 -73 105 -73z" />
    <glyph glyph-name="Dcroat" unicode="&#x110;" horiz-adv-x="622" 
d="M323 0h-229q-10 0 -10 10v292q0 6 -6 6h-32q-10 0 -10 10v52q0 10 10 10h32q6 0 6 6v284q0 10 10 10h229q175 0 222 -145q18 -55 18 -195t-18 -195q-47 -145 -222 -145zM304 83q124 0 155 93q14 39 14 164t-14 164q-31 93 -155 93h-125q-6 0 -6 -6v-205q0 -6 6 -6h113
q10 0 10 -10v-52q0 -10 -10 -10h-113q-6 0 -6 -6v-213q0 -6 6 -6h125z" />
    <glyph glyph-name="dcroat" unicode="&#x111;" horiz-adv-x="538" 
d="M446 0h-64q-10 0 -10 10v46h-1q-41 -67 -136 -67q-129 0 -165 115q-17 50 -17 136q0 85 17 135q36 115 165 115q96 0 136 -66h1v125q0 6 -6 6h-120q-10 0 -10 10v48q0 10 10 10h120q6 0 6 6v41q0 10 10 10h64q10 0 10 -10v-41q0 -6 6 -6h26q10 0 10 -10v-48
q0 -10 -10 -10h-26q-6 0 -6 -6v-539q0 -10 -10 -10zM255 67q82 0 106 73q11 32 11 100q0 67 -11 100q-24 72 -106 72q-80 0 -105 -72q-11 -36 -11 -100q0 -66 11 -100q25 -73 105 -73z" />
    <glyph glyph-name="Emacron" unicode="&#x112;" horiz-adv-x="563" 
d="M422 790h-255q-10 0 -10 10v45q0 10 10 10h255q10 0 10 -10v-45q0 -10 -10 -10zM84 10v660q0 10 10 10h409q10 0 10 -10v-63q0 -10 -10 -10h-324q-6 0 -6 -6v-200q0 -6 6 -6h275q10 0 10 -10v-63q0 -10 -10 -10h-275q-6 0 -6 -6v-207q0 -6 6 -6h324q10 0 10 -10v-63
q0 -10 -10 -10h-409q-10 0 -10 10z" />
    <glyph glyph-name="emacron" unicode="&#x113;" horiz-adv-x="512" 
d="M261 -11q-73 0 -122.5 34t-69.5 96q-16 50 -16 121q0 78 15 121q20 62 69.5 95.5t118.5 33.5t118.5 -34t69.5 -95q15 -47 15 -137q0 -10 -11 -10h-303q-6 0 -6 -6q0 -32 8 -58q29 -83 121 -83q77 0 123 53q8 8 15 2l41 -37q7 -6 1 -14q-65 -82 -187 -82zM145 281h222
q6 0 6 6q0 33 -7 54q-25 75 -110 75t-110 -75q-7 -21 -7 -54q0 -6 6 -6zM383 601h-255q-10 0 -10 10v45q0 10 10 10h255q10 0 10 -10v-45q0 -10 -10 -10z" />
    <glyph glyph-name="Ebreve" unicode="&#x114;" horiz-adv-x="563" 
d="M288 761q-58 0 -94.5 31.5t-41.5 81.5q0 10 9 10h36q8 0 11 -10q16 -52 80 -52t79 52q3 10 12 10h35q9 0 9 -10q-5 -50 -41.5 -81.5t-93.5 -31.5zM84 10v660q0 10 10 10h409q10 0 10 -10v-63q0 -10 -10 -10h-324q-6 0 -6 -6v-200q0 -6 6 -6h275q10 0 10 -10v-63
q0 -10 -10 -10h-275q-6 0 -6 -6v-207q0 -6 6 -6h324q10 0 10 -10v-63q0 -10 -10 -10h-409q-10 0 -10 10z" />
    <glyph glyph-name="ebreve" unicode="&#x115;" horiz-adv-x="512" 
d="M261 -11q-73 0 -122.5 34t-69.5 96q-16 50 -16 121q0 78 15 121q20 62 69.5 95.5t118.5 33.5t118.5 -34t69.5 -95q15 -47 15 -137q0 -10 -11 -10h-303q-6 0 -6 -6q0 -32 8 -58q29 -83 121 -83q77 0 123 53q8 8 15 2l41 -37q7 -6 1 -14q-65 -82 -187 -82zM145 281h222
q6 0 6 6q0 33 -7 54q-25 75 -110 75t-110 -75q-7 -21 -7 -54q0 -6 6 -6zM256 561q-58 0 -94.5 31.5t-41.5 81.5q0 10 9 10h36q8 0 11 -10q17 -52 80 -52q64 0 79 52q3 10 12 10h35q9 0 9 -10q-5 -50 -41.5 -81.5t-93.5 -31.5z" />
    <glyph glyph-name="Edotaccent" unicode="&#x116;" horiz-adv-x="563" 
d="M332 777h-69q-10 0 -10 10v72q0 10 10 10h69q10 0 10 -10v-72q0 -10 -10 -10zM84 10v660q0 10 10 10h409q10 0 10 -10v-63q0 -10 -10 -10h-324q-6 0 -6 -6v-200q0 -6 6 -6h275q10 0 10 -10v-63q0 -10 -10 -10h-275q-6 0 -6 -6v-207q0 -6 6 -6h324q10 0 10 -10v-63
q0 -10 -10 -10h-409q-10 0 -10 10z" />
    <glyph glyph-name="edotaccent" unicode="&#x117;" horiz-adv-x="512" 
d="M261 -11q-73 0 -122.5 34t-69.5 96q-16 50 -16 121q0 78 15 121q20 62 69.5 95.5t118.5 33.5t118.5 -34t69.5 -95q15 -47 15 -137q0 -10 -11 -10h-303q-6 0 -6 -6q0 -32 8 -58q29 -83 121 -83q77 0 123 53q8 8 15 2l41 -37q7 -6 1 -14q-65 -82 -187 -82zM145 281h222
q6 0 6 6q0 33 -7 54q-25 75 -110 75t-110 -75q-7 -21 -7 -54q0 -6 6 -6zM290 587h-69q-10 0 -10 10v73q0 10 10 10h69q10 0 10 -10v-73q0 -10 -10 -10z" />
    <glyph glyph-name="Eogonek" unicode="&#x118;" horiz-adv-x="563" 
d="M424 -182q-38 0 -60.5 20.5t-22.5 58.5q0 54 68 103h-315q-10 0 -10 10v660q0 10 10 10h409q10 0 10 -10v-63q0 -10 -10 -10h-324q-6 0 -6 -6v-200q0 -6 6 -6h275q10 0 10 -10v-63q0 -10 -10 -10h-275q-6 0 -6 -6v-207q0 -6 6 -6h324q10 0 10 -10v-63q0 -10 -10 -10h-9
q-83 -54 -83 -89q0 -27 27 -27q10 0 26 8q10 5 14 -4l17 -35q4 -7 -4 -14q-30 -21 -67 -21z" />
    <glyph glyph-name="eogonek" unicode="&#x119;" horiz-adv-x="512" 
d="M337 -182q-38 0 -60.5 20.5t-22.5 58.5q0 43 44 96q-24 -4 -37 -4q-73 0 -122.5 34t-69.5 96q-16 50 -16 121q0 78 15 121q20 62 69.5 95.5t118.5 33.5t118.5 -34t69.5 -95q15 -47 15 -137q0 -10 -11 -10h-303q-6 0 -6 -6q0 -32 8 -58q29 -83 121 -83q77 0 123 53
q8 8 15 2l41 -37q7 -6 1 -14q-20 -23 -41 -39q-83 -82 -83 -122q0 -26 26 -26q11 0 27 8q10 5 14 -4l17 -35q4 -7 -4 -14q-30 -21 -67 -21zM367 281q6 0 6 6q0 33 -7 54q-25 75 -110 75t-110 -75q-7 -21 -7 -54q0 -6 6 -6h222z" />
    <glyph glyph-name="Ecaron" unicode="&#x11a;" horiz-adv-x="563" 
d="M318 752h-43q-9 0 -16 10l-95 124q-3 4 -1.5 7t5.5 3h45q10 0 19 -10l64 -71h2l63 71q9 10 19 10h45q5 0 6 -3t-2 -7l-95 -124q-7 -10 -16 -10zM84 10v660q0 10 10 10h409q10 0 10 -10v-63q0 -10 -10 -10h-324q-6 0 -6 -6v-200q0 -6 6 -6h275q10 0 10 -10v-63
q0 -10 -10 -10h-275q-6 0 -6 -6v-207q0 -6 6 -6h324q10 0 10 -10v-63q0 -10 -10 -10h-409q-10 0 -10 10z" />
    <glyph glyph-name="ecaron" unicode="&#x11b;" horiz-adv-x="512" 
d="M277 555h-43q-9 0 -16 10l-95 124q-3 4 -2 7t6 3h45q10 0 19 -10l64 -71h2l63 71q9 10 19 10h45q4 0 5.5 -3t-1.5 -7l-95 -124q-7 -10 -16 -10zM261 -11q-73 0 -122.5 34t-69.5 96q-16 50 -16 121q0 78 15 121q20 62 69.5 95.5t118.5 33.5t118.5 -34t69.5 -95
q15 -47 15 -137q0 -10 -11 -10h-303q-6 0 -6 -6q0 -32 8 -58q29 -83 121 -83q77 0 123 53q8 8 15 2l41 -37q7 -6 1 -14q-65 -82 -187 -82zM145 281h222q6 0 6 6q0 33 -7 54q-25 75 -110 75t-110 -75q-7 -21 -7 -54q0 -6 6 -6z" />
    <glyph glyph-name="Gcircumflex" unicode="&#x11c;" horiz-adv-x="619" 
d="M78 148q-18 58 -18 192t18 192q25 78 85.5 118.5t147.5 40.5q85 0 142 -37t84 -98q5 -9 -3 -14l-60 -29q-9 -5 -14 5q-25 46 -60.5 68t-88.5 22q-114 0 -147 -101q-14 -39 -14 -167t14 -167q33 -101 147 -101q53 0 92 25.5t54 72.5q13 43 13 107q0 6 -6 6h-132
q-10 0 -10 10v58q0 10 10 10h217q10 0 10 -10v-51q0 -94 -17 -150q-25 -77 -85.5 -119t-145.5 -42q-87 0 -147.5 40.5t-85.5 118.5zM437 754h-45q-10 0 -19 10l-63 70h-2l-64 -70q-9 -10 -19 -10h-45q-4 0 -5.5 3t1.5 7l95 123q7 10 16 10h43q9 0 16 -10l95 -123q3 -4 2 -7
t-6 -3z" />
    <glyph glyph-name="gcircumflex" unicode="&#x11d;" horiz-adv-x="529" 
d="M382 557h-45q-10 0 -19 10l-63 70h-2l-64 -70q-9 -10 -19 -10h-45q-5 0 -6 3t2 7l95 123q7 10 16 10h43q9 0 16 -10l95 -123q3 -4 1.5 -7t-5.5 -3zM238 -191q-50 0 -96 19.5t-70 51.5q-6 7 1 14l41 41q8 7 15 0q53 -48 113 -48q121 0 121 129v56h-1q-36 -66 -133 -66
q-124 0 -161 116q-16 48 -16 126t16 126q37 116 161 116q97 0 133 -66h1v45q0 10 10 10h64q10 0 10 -10v-448q0 -102 -54 -157t-155 -55zM250 83q77 0 102 72q11 33 11 93q0 59 -11 93q-25 71 -102 71q-76 0 -101 -71q-12 -37 -12 -93q0 -57 12 -93q25 -72 101 -72z" />
    <glyph glyph-name="Gbreve" unicode="&#x11e;" horiz-adv-x="619" 
d="M309 761q-58 0 -94.5 31.5t-41.5 81.5q0 10 9 10h36q8 0 11 -10q16 -52 80 -52t79 52q3 10 12 10h35q9 0 9 -10q-5 -50 -41.5 -81.5t-93.5 -31.5zM78 148q-18 58 -18 192t18 192q25 78 85.5 118.5t147.5 40.5q85 0 142 -37t84 -98q5 -9 -3 -14l-60 -29q-9 -5 -14 5
q-25 46 -60.5 68t-88.5 22q-114 0 -147 -101q-14 -39 -14 -167t14 -167q33 -101 147 -101q53 0 92 25.5t54 72.5q13 43 13 107q0 6 -6 6h-132q-10 0 -10 10v58q0 10 10 10h217q10 0 10 -10v-51q0 -94 -17 -150q-25 -77 -85.5 -119t-145.5 -42q-87 0 -147.5 40.5t-85.5 118.5
z" />
    <glyph glyph-name="gbreve" unicode="&#x11f;" horiz-adv-x="529" 
d="M238 -191q-50 0 -96 19.5t-70 51.5q-6 7 1 14l41 41q8 7 15 0q53 -48 113 -48q121 0 121 129v56h-1q-36 -66 -133 -66q-124 0 -161 116q-16 48 -16 126t16 126q37 116 161 116q97 0 133 -66h1v45q0 10 10 10h64q10 0 10 -10v-448q0 -102 -54 -157t-155 -55zM250 83
q77 0 102 72q11 33 11 93q0 59 -11 93q-25 71 -102 71q-76 0 -101 -71q-12 -37 -12 -93q0 -57 12 -93q25 -72 101 -72zM255 561q-58 0 -94.5 31.5t-41.5 81.5q0 10 9 10h36q8 0 11 -10q17 -52 80 -52q64 0 79 52q3 10 12 10h35q9 0 9 -10q-5 -50 -41.5 -81.5t-93.5 -31.5z
" />
    <glyph glyph-name="Gdotaccent" unicode="&#x120;" horiz-adv-x="619" 
d="M343 777h-69q-10 0 -10 10v72q0 10 10 10h69q10 0 10 -10v-72q0 -10 -10 -10zM78 148q-18 58 -18 192t18 192q25 78 85.5 118.5t147.5 40.5q85 0 142 -37t84 -98q5 -9 -3 -14l-60 -29q-9 -5 -14 5q-25 46 -60.5 68t-88.5 22q-114 0 -147 -101q-14 -39 -14 -167t14 -167
q33 -101 147 -101q53 0 92 25.5t54 72.5q13 43 13 107q0 6 -6 6h-132q-10 0 -10 10v58q0 10 10 10h217q10 0 10 -10v-51q0 -94 -17 -150q-25 -77 -85.5 -119t-145.5 -42q-87 0 -147.5 40.5t-85.5 118.5z" />
    <glyph glyph-name="gdotaccent" unicode="&#x121;" horiz-adv-x="529" 
d="M238 -191q-50 0 -96 19.5t-70 51.5q-6 7 1 14l41 41q8 7 15 0q53 -48 113 -48q121 0 121 129v56h-1q-36 -66 -133 -66q-124 0 -161 116q-16 48 -16 126t16 126q37 116 161 116q97 0 133 -66h1v45q0 10 10 10h64q10 0 10 -10v-448q0 -102 -54 -157t-155 -55zM250 83
q77 0 102 72q11 33 11 93q0 59 -11 93q-25 71 -102 71q-76 0 -101 -71q-12 -37 -12 -93q0 -57 12 -93q25 -72 101 -72zM289 587h-69q-10 0 -10 10v73q0 10 10 10h69q10 0 10 -10v-73q0 -10 -10 -10z" />
    <glyph glyph-name="Gcommaaccent" unicode="&#x122;" horiz-adv-x="619" 
d="M278 -213q-9 0 -9 10v140q0 10 10 10h60q10 0 10 -10v-61q0 -12 -6 -20l-51 -61q-5 -8 -14 -8zM78 148q-18 58 -18 192t18 192q25 78 85.5 118.5t147.5 40.5q85 0 142 -37t84 -98q5 -9 -3 -14l-60 -29q-9 -5 -14 5q-25 46 -60.5 68t-88.5 22q-114 0 -147 -101
q-14 -39 -14 -167t14 -167q33 -101 147 -101q53 0 92 25.5t54 72.5q13 43 13 107q0 6 -6 6h-132q-10 0 -10 10v58q0 10 10 10h217q10 0 10 -10v-51q0 -94 -17 -150q-25 -77 -85.5 -119t-145.5 -42q-87 0 -147.5 40.5t-85.5 118.5z" />
    <glyph glyph-name="gcommaaccent" unicode="&#x123;" horiz-adv-x="529" 
d="M285 732q9 0 9 -10v-140q0 -10 -10 -10h-60q-10 0 -10 10v61q0 12 6 20l51 61q7 8 14 8zM238 -191q-50 0 -96 19.5t-70 51.5q-6 7 1 14l41 41q8 7 15 0q53 -48 113 -48q121 0 121 129v56h-1q-36 -66 -133 -66q-124 0 -161 116q-16 48 -16 126t16 126q37 116 161 116
q97 0 133 -66h1v45q0 10 10 10h64q10 0 10 -10v-448q0 -102 -54 -157t-155 -55zM250 83q77 0 102 72q11 33 11 93q0 59 -11 93q-25 71 -102 71q-76 0 -101 -71q-12 -37 -12 -93q0 -57 12 -93q25 -72 101 -72z" />
    <glyph glyph-name="Hcircumflex" unicode="&#x124;" horiz-adv-x="653" 
d="M84 10v660q0 10 10 10h69q10 0 10 -10v-279q0 -6 6 -6h295q6 0 6 6v279q0 10 10 10h69q10 0 10 -10v-660q0 -10 -10 -10h-69q-10 0 -10 10v286q0 6 -6 6h-295q-6 0 -6 -6v-286q0 -10 -10 -10h-69q-10 0 -10 10zM454 754h-45q-10 0 -19 10l-63 70h-2l-64 -70
q-9 -10 -19 -10h-45q-5 0 -6 3t2 7l95 123q7 10 16 10h43q9 0 16 -10l95 -123q3 -4 1.5 -7t-5.5 -3z" />
    <glyph glyph-name="hcircumflex" unicode="&#x125;" horiz-adv-x="544" 
d="M457 0h-64q-10 0 -10 10v280q0 122 -107 122q-49 0 -79.5 -32t-30.5 -85v-285q0 -10 -10 -10h-64q-10 0 -10 10v660q0 10 10 10h64q10 0 10 -10v-245h1q40 65 134 65q77 0 121.5 -49t44.5 -131v-300q0 -10 -10 -10zM405 754h-45q-10 0 -19 10l-63 70h-2l-64 -70
q-9 -10 -19 -10h-45q-4 0 -5.5 3t1.5 7l95 123q7 10 16 10h43q9 0 16 -10l95 -123q3 -4 2 -7t-6 -3z" />
    <glyph glyph-name="Hbar" unicode="&#x126;" horiz-adv-x="653" 
d="M559 0h-69q-10 0 -10 10v286q0 6 -6 6h-295q-6 0 -6 -6v-286q0 -10 -10 -10h-69q-10 0 -10 10v480q0 6 -6 6h-37q-10 0 -10 10v48q0 10 10 10h37q6 0 6 6v100q0 10 10 10h69q10 0 10 -10v-100q0 -6 6 -6h295q6 0 6 6v100q0 10 10 10h69q10 0 10 -10v-100q0 -6 6 -6h37
q10 0 10 -10v-48q0 -10 -10 -10h-37q-6 0 -6 -6v-480q0 -10 -10 -10zM474 385q6 0 6 6v99q0 6 -6 6h-295q-6 0 -6 -6v-99q0 -6 6 -6h295z" />
    <glyph glyph-name="hbar" unicode="&#x127;" horiz-adv-x="544" 
d="M457 0h-64q-10 0 -10 10v280q0 122 -107 122q-49 0 -79.5 -32t-30.5 -85v-285q0 -10 -10 -10h-64q-10 0 -10 10v539q0 6 -6 6h-26q-10 0 -10 10v48q0 10 10 10h26q6 0 6 6v41q0 10 10 10h64q10 0 10 -10v-41q0 -6 6 -6h120q10 0 10 -10v-48q0 -10 -10 -10h-120
q-6 0 -6 -6v-124h1q40 65 134 65q77 0 121.5 -49t44.5 -131v-300q0 -10 -10 -10z" />
    <glyph glyph-name="Itilde" unicode="&#x128;" horiz-adv-x="257" 
d="M84 10v660q0 10 10 10h69q10 0 10 -10v-660q0 -10 -10 -10h-69q-10 0 -10 10zM185 767q-26 0 -63 21q-32 18 -53 18q-27 0 -63 -32q-3 -3 -5.5 -2t-2.5 4v48q0 10 7 18q30 32 68 32q27 0 63 -20q29 -18 53 -18q29 0 63 32q3 3 5.5 2t2.5 -5v-48q0 -10 -7 -17
q-31 -33 -68 -33z" />
    <glyph glyph-name="itilde" unicode="&#x129;" horiz-adv-x="248" 
d="M156 0h-64q-10 0 -10 10v459q0 10 10 10h64q10 0 10 -10v-459q0 -10 -10 -10zM181 576q-26 0 -63 21q-32 18 -53 18q-27 0 -63 -32q-3 -3 -5.5 -2t-2.5 4v48q0 10 7 18q32 32 68 32q28 0 63 -21q32 -18 53 -18q27 0 63 32q3 3 5.5 2t2.5 -4v-48q0 -10 -7 -18
q-32 -32 -68 -32z" />
    <glyph glyph-name="Imacron" unicode="&#x12a;" horiz-adv-x="257" 
d="M84 10v660q0 10 10 10h69q10 0 10 -10v-660q0 -10 -10 -10h-69q-10 0 -10 10zM257 790h-255q-10 0 -10 10v45q0 10 10 10h255q10 0 10 -10v-45q0 -10 -10 -10z" />
    <glyph glyph-name="imacron" unicode="&#x12b;" horiz-adv-x="248" 
d="M156 0h-64q-10 0 -10 10v459q0 10 10 10h64q10 0 10 -10v-459q0 -10 -10 -10zM252 601h-255q-10 0 -10 10v45q0 10 10 10h255q10 0 10 -10v-45q0 -10 -10 -10z" />
    <glyph glyph-name="Ibreve" unicode="&#x12c;" horiz-adv-x="257" 
d="M84 10v660q0 10 10 10h69q10 0 10 -10v-660q0 -10 -10 -10h-69q-10 0 -10 10zM130 761q-58 0 -94.5 31.5t-41.5 81.5q0 10 9 10h36q8 0 11 -10q16 -52 80 -52t79 52q3 10 12 10h35q9 0 9 -10q-5 -50 -41.5 -81.5t-93.5 -31.5z" />
    <glyph glyph-name="ibreve" unicode="&#x12d;" horiz-adv-x="248" 
d="M156 0h-64q-10 0 -10 10v459q0 10 10 10h64q10 0 10 -10v-459q0 -10 -10 -10zM125 561q-58 0 -94.5 31.5t-41.5 81.5q0 10 9 10h36q8 0 11 -10q17 -52 80 -52q64 0 79 52q3 10 12 10h35q9 0 9 -10q-5 -50 -41.5 -81.5t-93.5 -31.5z" />
    <glyph glyph-name="Iogonek" unicode="&#x12e;" horiz-adv-x="257" 
d="M115 -182q-38 0 -61 20.5t-23 58.5q0 46 58 103q-5 2 -5 10v660q0 10 10 10h69q10 0 10 -10v-660q0 -6 -5 -10q-40 -36 -53 -54t-13 -35q0 -27 26 -27q13 0 27 8q9 4 13 -4l17 -35q5 -8 -3 -14q-30 -21 -67 -21z" />
    <glyph glyph-name="iogonek" unicode="&#x12f;" horiz-adv-x="248" 
d="M159 587h-69q-10 0 -10 10v73q0 10 10 10h69q10 0 10 -10v-73q0 -10 -10 -10zM110 -182q-38 0 -60.5 20.5t-22.5 58.5q0 49 58 106q-3 3 -3 7v459q0 10 10 10h64q10 0 10 -10v-459q0 -6 -4 -10q-65 -57 -65 -89q0 -27 26 -27q13 0 27 8q10 5 14 -4l17 -35q4 -7 -4 -14
q-30 -21 -67 -21z" />
    <glyph glyph-name="Idotaccent" unicode="&#x130;" horiz-adv-x="257" 
d="M84 10v660q0 10 10 10h69q10 0 10 -10v-660q0 -10 -10 -10h-69q-10 0 -10 10zM164 777h-69q-10 0 -10 10v72q0 10 10 10h69q10 0 10 -10v-72q0 -10 -10 -10z" />
    <glyph glyph-name="dotlessi" unicode="&#x131;" horiz-adv-x="248" 
d="M156 0h-64q-10 0 -10 10v459q0 10 10 10h64q10 0 10 -10v-459q0 -10 -10 -10z" />
    <glyph glyph-name="Jcircumflex" unicode="&#x134;" horiz-adv-x="491" 
d="M33 59q-7 7 0 14l50 43q7 6 15 -2q44 -42 99 -42q126 0 126 146v452q0 10 10 10h69q10 0 10 -10v-452q0 -111 -58 -170t-160 -59q-48 0 -92 19.5t-69 50.5zM490 754h-45q-10 0 -19 10l-63 70h-2l-64 -70q-9 -10 -19 -10h-45q-5 0 -6 3t2 7l95 123q7 10 16 10h43
q9 0 16 -10l95 -123q3 -4 1.5 -7t-5.5 -3z" />
    <glyph glyph-name="jcircumflex" unicode="&#x135;" horiz-adv-x="248" 
d="M23 -180h-20q-10 0 -10 10v58q0 10 10 10h16q36 0 49.5 13t13.5 51v507q0 10 10 10h64q10 0 10 -10v-505q0 -76 -34.5 -110t-108.5 -34zM253 557h-45q-10 0 -19 10l-63 70h-2l-64 -70q-9 -10 -19 -10h-45q-4 0 -5.5 3t1.5 7l95 123q7 10 16 10h43q9 0 16 -10l95 -123
q3 -4 2 -7t-6 -3z" />
    <glyph glyph-name="Kcommaaccent" unicode="&#x136;" horiz-adv-x="616" 
d="M278 -213q-9 0 -9 10v140q0 10 10 10h60q10 0 10 -10v-61q0 -12 -6 -20l-51 -61q-5 -8 -14 -8zM84 10v660q0 10 10 10h69q10 0 10 -10v-354l289 355q6 9 16 9h82q5 0 6.5 -4t-2.5 -8l-212 -255l233 -402q7 -11 -6 -11h-80q-9 0 -14 9l-191 335l-121 -146v-188
q0 -10 -10 -10h-69q-10 0 -10 10z" />
    <glyph glyph-name="kcommaaccent" unicode="&#x137;" horiz-adv-x="511" 
d="M229 -213q-9 0 -9 10v140q0 10 10 10h60q10 0 10 -10v-61q0 -12 -6 -20l-51 -61q-5 -8 -14 -8zM475 0h-74q-10 0 -16 10l-136 223l-83 -97v-126q0 -10 -10 -10h-64q-10 0 -10 10v660q0 10 10 10h64q10 0 10 -10v-423l189 223q8 9 18 9h74q5 0 6 -3t-2 -7l-147 -171
l177 -288q2 -3 0 -6.5t-6 -3.5z" />
    <glyph glyph-name="kgreenlandic" unicode="&#x138;" horiz-adv-x="511" 
d="M475 0h-74q-10 0 -16 10l-136 223l-83 -97v-126q0 -10 -10 -10h-64q-10 0 -10 10v459q0 10 10 10h64q10 0 10 -10v-222l189 223q8 9 18 9h74q5 0 6 -3t-2 -7l-147 -171l177 -288q2 -3 0 -6.5t-6 -3.5z" />
    <glyph glyph-name="Lacute" unicode="&#x139;" horiz-adv-x="538" 
d="M166 762h-50q-4 0 -5.5 3t1.5 7l86 106q8 10 18 10h70q5 0 6.5 -3t-1.5 -7l-107 -107q-8 -9 -18 -9zM84 10v660q0 10 10 10h69q10 0 10 -10v-581q0 -6 6 -6h324q10 0 10 -10v-63q0 -10 -10 -10h-409q-10 0 -10 10z" />
    <glyph glyph-name="lacute" unicode="&#x13a;" horiz-adv-x="277" 
d="M149 762h-50q-5 0 -6 3t2 7l86 106q8 10 18 10h70q5 0 6.5 -3t-1.5 -7l-107 -107q-8 -9 -18 -9zM231 -5h-34q-62 0 -89.5 30.5t-27.5 95.5v549q0 10 10 10h64q10 0 10 -10v-544q0 -29 11.5 -41t36.5 -12h19q10 0 10 -10v-58q0 -10 -10 -10z" />
    <glyph glyph-name="Lcommaaccent" unicode="&#x13b;" horiz-adv-x="538" 
d="M266 -213q-9 0 -9 10v140q0 10 10 10h60q10 0 10 -10v-61q0 -12 -6 -20l-51 -61q-5 -8 -14 -8zM84 10v660q0 10 10 10h69q10 0 10 -10v-581q0 -6 6 -6h324q10 0 10 -10v-63q0 -10 -10 -10h-409q-10 0 -10 10z" />
    <glyph glyph-name="lcommaaccent" unicode="&#x13c;" horiz-adv-x="277" 
d="M132 -213q-9 0 -9 10v140q0 10 10 10h60q10 0 10 -10v-61q0 -12 -6 -20l-51 -61q-5 -8 -14 -8zM231 -5h-34q-62 0 -89.5 30.5t-27.5 95.5v549q0 10 10 10h64q10 0 10 -10v-544q0 -29 11.5 -41t36.5 -12h19q10 0 10 -10v-58q0 -10 -10 -10z" />
    <glyph glyph-name="Lcaron" unicode="&#x13d;" horiz-adv-x="538" 
d="M256 517q-10 0 -10 11v142q0 10 10 10h60q10 0 10 -10v-64q0 -12 -6 -20l-50 -61q-7 -8 -14 -8zM84 10v660q0 10 10 10h69q10 0 10 -10v-581q0 -6 6 -6h324q10 0 10 -10v-63q0 -10 -10 -10h-409q-10 0 -10 10z" />
    <glyph glyph-name="lcaron" unicode="&#x13e;" horiz-adv-x="278" 
d="M215 517q-10 0 -10 11v142q0 10 10 10h60q10 0 10 -10v-64q0 -12 -6 -20l-50 -61q-7 -8 -14 -8zM231 -5h-34q-62 0 -89.5 30.5t-27.5 95.5v549q0 10 10 10h64q10 0 10 -10v-544q0 -29 11.5 -41t36.5 -12h19q10 0 10 -10v-58q0 -10 -10 -10z" />
    <glyph glyph-name="Ldot" unicode="&#x13f;" horiz-adv-x="538" 
d="M84 10v660q0 10 10 10h69q10 0 10 -10v-581q0 -6 6 -6h324q10 0 10 -10v-63q0 -10 -10 -10h-409q-10 0 -10 10zM436 273h-76q-10 0 -10 10v86q0 10 10 10h76q10 0 10 -10v-86q0 -10 -10 -10z" />
    <glyph glyph-name="ldot" unicode="&#x140;" horiz-adv-x="328" 
d="M231 -5h-34q-62 0 -89.5 30.5t-27.5 95.5v549q0 10 10 10h64q10 0 10 -10v-544q0 -29 11.5 -41t36.5 -12h19q10 0 10 -10v-58q0 -10 -10 -10zM324 282h-76q-10 0 -10 10v86q0 10 10 10h76q10 0 10 -10v-86q0 -10 -10 -10z" />
    <glyph glyph-name="Lslash" unicode="&#x141;" horiz-adv-x="538" 
d="M503 0h-409q-10 0 -10 10v264l-54 -27q-10 -5 -10 6v61q0 9 10 14l54 27v315q0 10 10 10h69q10 0 10 -10v-272l142 73q10 5 10 -6v-61q0 -9 -10 -14l-142 -73v-228q0 -6 6 -6h324q10 0 10 -10v-63q0 -10 -10 -10z" />
    <glyph glyph-name="lslash" unicode="&#x142;" horiz-adv-x="278" 
d="M231 375l-67 -35v-214q0 -29 11.5 -41t36.5 -12h19q10 0 10 -10v-58q0 -10 -10 -10h-34q-62 0 -89.5 30.5t-27.5 95.5v180l-35 -18q-10 -5 -10 6v54q0 10 10 15l35 18v294q0 10 10 10h64q10 0 10 -10v-254l67 35q10 5 10 -6v-55q0 -10 -10 -15z" />
    <glyph glyph-name="Nacute" unicode="&#x143;" horiz-adv-x="654" 
d="M325 762h-50q-5 0 -6 3t2 7l86 106q8 10 18 10h70q5 0 6.5 -3t-1.5 -7l-107 -107q-8 -9 -18 -9zM84 10v660q0 10 10 10h64q12 0 17 -10l308 -510h4v510q0 10 10 10h63q10 0 10 -10v-660q0 -10 -10 -10h-64q-12 0 -17 10l-309 508h-3v-508q0 -10 -10 -10h-63q-10 0 -10 10
z" />
    <glyph glyph-name="nacute" unicode="&#x144;" horiz-adv-x="544" 
d="M266 557h-47q-11 0 -6 10l76 123q6 10 17 10h66q5 0 6.5 -3t-1.5 -7l-92 -123q-7 -10 -19 -10zM457 0h-64q-10 0 -10 10v280q0 122 -107 122q-49 0 -79.5 -32t-30.5 -85v-285q0 -10 -10 -10h-64q-10 0 -10 10v459q0 10 10 10h64q10 0 10 -10v-44h1q40 65 134 65
q77 0 121.5 -49t44.5 -131v-300q0 -10 -10 -10z" />
    <glyph glyph-name="Ncommaaccent" unicode="&#x145;" horiz-adv-x="654" 
d="M299 -213q-9 0 -9 10v140q0 10 10 10h60q10 0 10 -10v-61q0 -12 -6 -20l-51 -61q-5 -8 -14 -8zM84 10v660q0 10 10 10h64q12 0 17 -10l308 -510h4v510q0 10 10 10h63q10 0 10 -10v-660q0 -10 -10 -10h-64q-12 0 -17 10l-309 508h-3v-508q0 -10 -10 -10h-63q-10 0 -10 10z
" />
    <glyph glyph-name="ncommaaccent" unicode="&#x146;" horiz-adv-x="544" 
d="M242 -213q-9 0 -9 10v140q0 10 10 10h60q10 0 10 -10v-61q0 -12 -6 -20l-51 -61q-5 -8 -14 -8zM457 0h-64q-10 0 -10 10v280q0 122 -107 122q-49 0 -79.5 -32t-30.5 -85v-285q0 -10 -10 -10h-64q-10 0 -10 10v459q0 10 10 10h64q10 0 10 -10v-44h1q40 65 134 65
q77 0 121.5 -49t44.5 -131v-300q0 -10 -10 -10z" />
    <glyph glyph-name="Ncaron" unicode="&#x147;" horiz-adv-x="654" 
d="M346 752h-43q-9 0 -16 10l-95 124q-3 4 -1.5 7t5.5 3h45q10 0 19 -10l64 -71h2l63 71q9 10 19 10h45q5 0 6 -3t-2 -7l-95 -124q-7 -10 -16 -10zM84 10v660q0 10 10 10h64q12 0 17 -10l308 -510h4v510q0 10 10 10h63q10 0 10 -10v-660q0 -10 -10 -10h-64q-12 0 -17 10
l-309 508h-3v-508q0 -10 -10 -10h-63q-10 0 -10 10z" />
    <glyph glyph-name="ncaron" unicode="&#x148;" horiz-adv-x="544" 
d="M293 555h-43q-9 0 -16 10l-95 124q-3 4 -2 7t6 3h45q10 0 19 -10l64 -71h2l63 71q9 10 19 10h45q4 0 5.5 -3t-1.5 -7l-95 -124q-7 -10 -16 -10zM457 0h-64q-10 0 -10 10v280q0 122 -107 122q-49 0 -79.5 -32t-30.5 -85v-285q0 -10 -10 -10h-64q-10 0 -10 10v459
q0 10 10 10h64q10 0 10 -10v-44h1q40 65 134 65q77 0 121.5 -49t44.5 -131v-300q0 -10 -10 -10z" />
    <glyph glyph-name="Eng" unicode="&#x14a;" horiz-adv-x="654" 
d="M405 -180h-21q-10 0 -10 10v62q0 10 10 10h18q84 0 84 80v18l-315 517h-3v-507q0 -10 -10 -10h-64q-10 0 -10 10v660q0 10 10 10h64q11 0 17 -10l307 -508h4v508q0 10 10 10h64q10 0 10 -10v-681q0 -88 -41 -128.5t-124 -40.5z" />
    <glyph glyph-name="eng" unicode="&#x14b;" horiz-adv-x="544" 
d="M324 -180h-20q-10 0 -10 10v58q0 10 10 10h16q36 0 49.5 13t13.5 51v328q0 122 -107 122q-49 0 -79.5 -32t-30.5 -85v-285q0 -10 -10 -10h-64q-10 0 -10 10v459q0 10 10 10h64q10 0 10 -10v-44h1q40 65 134 65q77 0 122 -49t45 -131v-346q0 -76 -35 -110t-109 -34z" />
    <glyph glyph-name="Omacron" unicode="&#x14c;" horiz-adv-x="619" 
d="M436 790h-255q-10 0 -10 10v45q0 10 10 10h255q10 0 10 -10v-45q0 -10 -10 -10zM309 -11q-86 0 -145.5 40.5t-85.5 118.5q-18 54 -18 192t18 192q26 78 85.5 118.5t145.5 40.5q179 0 232 -159q18 -54 18 -192t-18 -192q-53 -159 -232 -159zM309 72q112 0 145 101
q15 47 15 167t-15 167q-33 101 -145 101q-111 0 -144 -101q-15 -47 -15 -167t15 -167q33 -101 144 -101z" />
    <glyph glyph-name="omacron" unicode="&#x14d;" horiz-adv-x="516" 
d="M385 601h-255q-10 0 -10 10v45q0 10 10 10h255q10 0 10 -10v-45q0 -10 -10 -10zM258 -11q-70 0 -119.5 34t-69.5 95q-16 48 -16 122q0 73 16 121q19 61 69 95t120 34t120 -34t69 -95q16 -48 16 -121q0 -74 -16 -122q-20 -61 -69.5 -95t-119.5 -34zM258 67q83 0 108 75
q11 36 11 98q0 61 -11 97q-25 75 -108 75t-108 -75q-11 -36 -11 -97q0 -62 11 -98q25 -75 108 -75z" />
    <glyph glyph-name="Obreve" unicode="&#x14e;" horiz-adv-x="619" 
d="M309 761q-58 0 -94.5 31.5t-41.5 81.5q0 10 9 10h36q8 0 11 -10q16 -52 80 -52t79 52q3 10 12 10h35q9 0 9 -10q-5 -50 -41.5 -81.5t-93.5 -31.5zM309 -11q-86 0 -145.5 40.5t-85.5 118.5q-18 54 -18 192t18 192q26 78 85.5 118.5t145.5 40.5q179 0 232 -159
q18 -54 18 -192t-18 -192q-53 -159 -232 -159zM309 72q112 0 145 101q15 47 15 167t-15 167q-33 101 -145 101q-111 0 -144 -101q-15 -47 -15 -167t15 -167q33 -101 144 -101z" />
    <glyph glyph-name="obreve" unicode="&#x14f;" horiz-adv-x="516" 
d="M258 -11q-70 0 -119.5 34t-69.5 95q-16 48 -16 122q0 73 16 121q19 61 69 95t120 34t120 -34t69 -95q16 -48 16 -121q0 -74 -16 -122q-20 -61 -69.5 -95t-119.5 -34zM258 67q83 0 108 75q11 36 11 98q0 61 -11 97q-25 75 -108 75t-108 -75q-11 -36 -11 -97q0 -62 11 -98
q25 -75 108 -75zM258 561q-58 0 -94.5 31.5t-41.5 81.5q0 10 9 10h36q8 0 11 -10q17 -52 80 -52q64 0 79 52q3 10 12 10h35q9 0 9 -10q-5 -50 -41.5 -81.5t-93.5 -31.5z" />
    <glyph glyph-name="Ohungarumlaut" unicode="&#x150;" horiz-adv-x="619" 
d="M309 -11q-86 0 -145.5 40.5t-85.5 118.5q-18 54 -18 192t18 192q26 78 85.5 118.5t145.5 40.5q179 0 232 -159q18 -54 18 -192t-18 -192q-53 -159 -232 -159zM309 72q112 0 145 101q15 47 15 167t-15 167q-33 101 -145 101q-111 0 -144 -101q-15 -47 -15 -167t15 -167
q33 -101 144 -101zM393 764h-45q-11 0 -4 10l66 105q6 10 16 10h57q5 0 6 -3t-2 -7l-76 -106q-6 -9 -18 -9zM251 764h-45q-11 0 -4 10l66 105q6 10 16 10h57q5 0 6 -3t-2 -7l-76 -106q-6 -9 -18 -9z" />
    <glyph glyph-name="ohungarumlaut" unicode="&#x151;" horiz-adv-x="516" 
d="M349 557h-45q-11 0 -6 10l66 123q7 10 16 10h57q11 0 5 -10l-77 -124q-5 -9 -16 -9zM207 557h-45q-11 0 -6 10l66 123q7 10 16 10h57q11 0 5 -10l-77 -124q-5 -9 -16 -9zM258 -11q-70 0 -119.5 34t-69.5 95q-16 48 -16 122q0 73 16 121q19 61 69 95t120 34t120 -34
t69 -95q16 -48 16 -121q0 -74 -16 -122q-20 -61 -69.5 -95t-119.5 -34zM258 67q83 0 108 75q11 36 11 98q0 61 -11 97q-25 75 -108 75t-108 -75q-11 -36 -11 -97q0 -62 11 -98q25 -75 108 -75z" />
    <glyph glyph-name="OE" unicode="&#x152;" horiz-adv-x="948" 
d="M888 0h-409q-10 0 -10 10v49h-1q-50 -70 -159 -70q-86 0 -146 40.5t-85 118.5q-18 58 -18 192t18 192q25 78 85 118.5t146 40.5q109 0 159 -70h1v49q0 10 10 10h409q10 0 10 -10v-63q0 -10 -10 -10h-324q-6 0 -6 -6v-200q0 -6 6 -6h275q10 0 10 -10v-63q0 -10 -10 -10
h-275q-6 0 -6 -6v-207q0 -6 6 -6h324q10 0 10 -10v-63q0 -10 -10 -10zM309 72q112 0 145 101q15 47 15 167t-15 167q-33 101 -145 101q-111 0 -144 -101q-15 -47 -15 -167t15 -167q33 -101 144 -101z" />
    <glyph glyph-name="oe" unicode="&#x153;" horiz-adv-x="835" 
d="M585 -11q-113 0 -164 82h-1q-53 -82 -162 -82q-70 0 -119.5 34t-69.5 95q-16 48 -16 122q0 73 16 121q19 61 69 95t120 34q109 0 161 -80h2q47 80 158 80q70 0 119.5 -34t68.5 -95q16 -45 16 -137q0 -10 -11 -10h-304q-6 0 -6 -6q1 -38 9 -58q28 -83 120 -83q79 0 123 53
q8 8 15 2l41 -37q7 -6 1 -14q-65 -82 -186 -82zM691 281q6 0 6 6q0 30 -8 54q-25 75 -110 75q-40 0 -69 -19.5t-40 -55.5q-8 -24 -8 -54q0 -6 6 -6h223zM258 67q83 0 108 75q11 36 11 98q0 61 -11 97q-25 75 -108 75t-108 -75q-11 -36 -11 -97q0 -62 11 -98q25 -75 108 -75z
" />
    <glyph glyph-name="Racute" unicode="&#x154;" horiz-adv-x="617" 
d="M558 0h-80q-9 0 -13 10l-136 278h-150q-6 0 -6 -6v-272q0 -10 -10 -10h-69q-10 0 -10 10v660q0 10 10 10h246q95 0 154 -54t59 -142q0 -68 -36 -116.5t-98 -68.5l145 -287q3 -4 1 -8t-7 -4zM338 371q59 0 92.5 30t33.5 83t-33.5 83t-92.5 30h-159q-6 0 -6 -6v-214
q0 -6 6 -6h159zM292 762h-50q-4 0 -5.5 3t1.5 7l86 106q8 10 18 10h70q5 0 6.5 -3t-1.5 -7l-107 -107q-8 -9 -18 -9z" />
    <glyph glyph-name="racute" unicode="&#x155;" horiz-adv-x="410" 
d="M218 557h-47q-11 0 -6 10l76 123q6 10 17 10h66q5 0 6.5 -3t-1.5 -7l-92 -123q-7 -10 -19 -10zM156 0h-64q-10 0 -10 10v459q0 10 10 10h64q10 0 10 -10v-49h1q36 70 127 70q59 0 98 -36q7 -7 2 -14l-37 -49q-6 -8 -14 -2q-36 23 -74 23q-103 0 -103 -140v-262
q0 -10 -10 -10z" />
    <glyph glyph-name="Rcommaaccent" unicode="&#x156;" horiz-adv-x="617" 
d="M278 -213q-9 0 -9 10v140q0 10 10 10h60q10 0 10 -10v-61q0 -12 -6 -20l-51 -61q-5 -8 -14 -8zM558 0h-80q-9 0 -13 10l-136 278h-150q-6 0 -6 -6v-272q0 -10 -10 -10h-69q-10 0 -10 10v660q0 10 10 10h246q95 0 154 -54t59 -142q0 -68 -36 -116.5t-98 -68.5l145 -287
q3 -4 1 -8t-7 -4zM338 371q59 0 92.5 30t33.5 83t-33.5 83t-92.5 30h-159q-6 0 -6 -6v-214q0 -6 6 -6h159z" />
    <glyph glyph-name="rcommaaccent" unicode="&#x157;" horiz-adv-x="410" 
d="M94 -213q-9 0 -9 10v140q0 10 10 10h60q10 0 10 -10v-61q0 -12 -6 -20l-51 -61q-5 -8 -14 -8zM156 0h-64q-10 0 -10 10v459q0 10 10 10h64q10 0 10 -10v-49h1q36 70 127 70q59 0 98 -36q7 -7 2 -14l-37 -49q-6 -8 -14 -2q-36 23 -74 23q-103 0 -103 -140v-262
q0 -10 -10 -10z" />
    <glyph glyph-name="Rcaron" unicode="&#x158;" horiz-adv-x="617" 
d="M309 752h-43q-9 0 -16 10l-95 124q-3 4 -2 7t6 3h45q10 0 19 -10l64 -71h2l63 71q9 10 19 10h45q4 0 5.5 -3t-1.5 -7l-95 -124q-7 -10 -16 -10zM558 0h-80q-9 0 -13 10l-136 278h-150q-6 0 -6 -6v-272q0 -10 -10 -10h-69q-10 0 -10 10v660q0 10 10 10h246q95 0 154 -54
t59 -142q0 -68 -36 -116.5t-98 -68.5l145 -287q3 -4 1 -8t-7 -4zM338 371q59 0 92.5 30t33.5 83t-33.5 83t-92.5 30h-159q-6 0 -6 -6v-214q0 -6 6 -6h159z" />
    <glyph glyph-name="rcaron" unicode="&#x159;" horiz-adv-x="410" 
d="M249 555h-43q-9 0 -16 10l-95 124q-3 4 -2 7t6 3h45q10 0 19 -10l64 -71h2l63 71q9 10 19 10h45q4 0 5.5 -3t-1.5 -7l-95 -124q-7 -10 -16 -10zM156 0h-64q-10 0 -10 10v459q0 10 10 10h64q10 0 10 -10v-49h1q36 70 127 70q59 0 98 -36q7 -7 2 -14l-37 -49q-6 -8 -14 -2
q-36 23 -74 23q-103 0 -103 -140v-262q0 -10 -10 -10z" />
    <glyph glyph-name="Sacute" unicode="&#x15a;" horiz-adv-x="591" 
d="M290 -11q-69 0 -134.5 24.5t-104.5 60.5q-7 7 -1 15l44 52q6 7 14 1q88 -70 190 -70q70 0 110 32t40 84q0 46 -32 73.5t-110 37.5l-34 5q-200 27 -200 188q0 91 60.5 145t161.5 54q122 0 207 -63q8 -6 2 -14l-34 -55q-6 -7 -14 -2q-83 51 -164 51q-61 0 -95 -30t-34 -80
q0 -45 33.5 -72t109.5 -37l33 -5q200 -27 200 -190q0 -92 -64.5 -148.5t-183.5 -56.5zM305 762h-50q-5 0 -6 3t2 7l86 106q8 10 18 10h70q5 0 6.5 -3t-1.5 -7l-107 -107q-8 -9 -18 -9z" />
    <glyph glyph-name="sacute" unicode="&#x15b;" horiz-adv-x="490" 
d="M252 557h-47q-11 0 -6 10l76 123q6 10 17 10h66q5 0 6.5 -3t-1.5 -7l-92 -123q-7 -10 -19 -10zM247 -11q-115 0 -198 72q-7 7 0 14l41 44q7 7 14 0q64 -55 148 -55q51 0 78 20t27 53q0 30 -19.5 45.5t-73.5 21.5l-51 5q-143 15 -143 135q0 69 47 107.5t131 38.5
q99 0 170 -53q8 -5 2 -14l-34 -43q-6 -7 -14 -2q-60 39 -129 39q-44 0 -67.5 -18t-23.5 -48q0 -29 21 -44.5t73 -20.5l50 -5q72 -7 108 -41.5t36 -93.5q0 -72 -50.5 -114.5t-142.5 -42.5z" />
    <glyph glyph-name="Scircumflex" unicode="&#x15c;" horiz-adv-x="591" 
d="M290 -11q-69 0 -134.5 24.5t-104.5 60.5q-7 7 -1 15l44 52q6 7 14 1q88 -70 190 -70q70 0 110 32t40 84q0 46 -32 73.5t-110 37.5l-34 5q-200 27 -200 188q0 91 60.5 145t161.5 54q122 0 207 -63q8 -6 2 -14l-34 -55q-6 -7 -14 -2q-83 51 -164 51q-61 0 -95 -30t-34 -80
q0 -45 33.5 -72t109.5 -37l33 -5q200 -27 200 -190q0 -92 -64.5 -148.5t-183.5 -56.5zM424 754h-45q-10 0 -19 10l-63 70h-2l-64 -70q-9 -10 -19 -10h-45q-5 0 -6 3t2 7l95 123q7 10 16 10h43q9 0 16 -10l95 -123q3 -4 1.5 -7t-5.5 -3z" />
    <glyph glyph-name="scircumflex" unicode="&#x15d;" horiz-adv-x="490" 
d="M375 557h-45q-10 0 -19 10l-63 70h-2l-64 -70q-9 -10 -19 -10h-45q-4 0 -5.5 3t1.5 7l95 123q7 10 16 10h43q9 0 16 -10l95 -123q3 -4 2 -7t-6 -3zM247 -11q-115 0 -198 72q-7 7 0 14l41 44q7 7 14 0q64 -55 148 -55q51 0 78 20t27 53q0 30 -19.5 45.5t-73.5 21.5l-51 5
q-143 15 -143 135q0 69 47 107.5t131 38.5q99 0 170 -53q8 -5 2 -14l-34 -43q-6 -7 -14 -2q-60 39 -129 39q-44 0 -67.5 -18t-23.5 -48q0 -29 21 -44.5t73 -20.5l50 -5q72 -7 108 -41.5t36 -93.5q0 -72 -50.5 -114.5t-142.5 -42.5z" />
    <glyph glyph-name="Scedilla" unicode="&#x15e;" horiz-adv-x="591" 
d="M275 -152h-55q-10 0 -7 10l53 132q-62 4 -120.5 27.5t-94.5 56.5q-7 7 -1 15l44 52q6 7 14 1q88 -70 190 -70q70 0 110 32t40 84q0 46 -32 73.5t-110 37.5l-34 5q-200 27 -200 188q0 91 60.5 145t161.5 54q122 0 207 -63q8 -6 2 -14l-34 -55q-6 -7 -14 -2q-83 51 -164 51
q-61 0 -95 -30t-34 -80q0 -45 33.5 -72t109.5 -37l33 -5q200 -27 200 -190q0 -83 -52.5 -137.5t-151.5 -64.5l-43 -134q-3 -10 -16 -10z" />
    <glyph glyph-name="scedilla" unicode="&#x15f;" horiz-adv-x="490" 
d="M227 -152h-55q-10 0 -7 10l53 132q-99 9 -169 71q-7 7 0 14l41 44q7 7 14 0q64 -55 148 -55q51 0 78 20t27 53q0 30 -19.5 45.5t-73.5 21.5l-51 5q-143 15 -143 135q0 69 47 107.5t131 38.5q99 0 170 -53q8 -5 2 -14l-34 -43q-6 -7 -14 -2q-60 39 -129 39
q-44 0 -67.5 -18t-23.5 -48q0 -29 21 -44.5t73 -20.5l50 -5q72 -7 108 -41.5t36 -93.5q0 -63 -40 -104t-114 -51l-43 -133q-3 -10 -16 -10z" />
    <glyph glyph-name="Scaron" unicode="&#x160;" horiz-adv-x="591" 
d="M290 -11q-69 0 -134.5 24.5t-104.5 60.5q-7 7 -1 15l44 52q6 7 14 1q88 -70 190 -70q70 0 110 32t40 84q0 46 -32 73.5t-110 37.5l-34 5q-200 27 -200 188q0 91 60.5 145t161.5 54q122 0 207 -63q8 -6 2 -14l-34 -55q-6 -7 -14 -2q-83 51 -164 51q-61 0 -95 -30t-34 -80
q0 -45 33.5 -72t109.5 -37l33 -5q200 -27 200 -190q0 -92 -64.5 -148.5t-183.5 -56.5zM319 751h-43q-9 0 -16 10l-95 124q-3 4 -2 7t6 3h45q10 0 19 -10l64 -71h2l63 71q9 10 19 10h45q4 0 5.5 -3t-1.5 -7l-95 -124q-7 -10 -16 -10z" />
    <glyph glyph-name="scaron" unicode="&#x161;" horiz-adv-x="490" 
d="M268 555h-43q-9 0 -16 10l-95 124q-3 4 -1.5 7t5.5 3h45q10 0 19 -10l64 -71h2l63 71q9 10 19 10h45q5 0 6 -3t-2 -7l-95 -124q-7 -10 -16 -10zM247 -11q-115 0 -198 72q-7 7 0 14l41 44q7 7 14 0q64 -55 148 -55q51 0 78 20t27 53q0 30 -19.5 45.5t-73.5 21.5l-51 5
q-143 15 -143 135q0 69 47 107.5t131 38.5q99 0 170 -53q8 -5 2 -14l-34 -43q-6 -7 -14 -2q-60 39 -129 39q-44 0 -67.5 -18t-23.5 -48q0 -29 21 -44.5t73 -20.5l50 -5q72 -7 108 -41.5t36 -93.5q0 -72 -50.5 -114.5t-142.5 -42.5z" />
    <glyph glyph-name="Tcommaaccent" unicode="&#x162;" horiz-adv-x="537" 
d="M237 -213q-9 0 -9 10v140q0 10 10 10h60q10 0 10 -10v-61q0 -12 -6 -20l-51 -61q-5 -8 -14 -8zM303 0h-69q-10 0 -10 10v581q0 6 -6 6h-186q-10 0 -10 10v63q0 10 10 10h473q10 0 10 -10v-63q0 -10 -10 -10h-186q-6 0 -6 -6v-581q0 -10 -10 -10z" />
    <glyph glyph-name="tcommaaccent" unicode="&#x163;" horiz-adv-x="316" 
d="M149 -213q-9 0 -9 10v140q0 10 10 10h60q10 0 10 -10v-61q0 -12 -6 -20l-51 -61q-5 -8 -14 -8zM258 -5h-37q-69 0 -99 32.5t-30 103.5v274q0 6 -6 6h-40q-10 0 -10 10v48q0 10 10 10h40q6 0 6 6v135q0 10 10 10h64q10 0 10 -10v-135q0 -6 6 -6h76q10 0 10 -10v-48
q0 -10 -10 -10h-76q-6 0 -6 -6v-271q0 -35 14 -48t47 -13h21q10 0 10 -10v-58q0 -10 -10 -10z" />
    <glyph glyph-name="Tcaron" unicode="&#x164;" horiz-adv-x="537" 
d="M289 752h-43q-9 0 -16 10l-95 124q-3 4 -2 7t6 3h45q10 0 19 -10l64 -71h2l63 71q9 10 19 10h45q4 0 5.5 -3t-1.5 -7l-95 -124q-7 -10 -16 -10zM303 0h-69q-10 0 -10 10v581q0 6 -6 6h-186q-10 0 -10 10v63q0 10 10 10h473q10 0 10 -10v-63q0 -10 -10 -10h-186
q-6 0 -6 -6v-581q0 -10 -10 -10z" />
    <glyph glyph-name="tcaron" unicode="&#x165;" horiz-adv-x="316" 
d="M249 517q-10 0 -10 11v142q0 10 10 10h60q10 0 10 -10v-64q0 -12 -6 -20l-50 -61q-7 -8 -14 -8zM258 -5h-37q-69 0 -99 32.5t-30 103.5v274q0 6 -6 6h-40q-10 0 -10 10v48q0 10 10 10h40q6 0 6 6v135q0 10 10 10h64q10 0 10 -10v-135q0 -6 6 -6h76q10 0 10 -10v-48
q0 -10 -10 -10h-76q-6 0 -6 -6v-271q0 -35 14 -48t47 -13h21q10 0 10 -10v-58q0 -10 -10 -10z" />
    <glyph glyph-name="Tbar" unicode="&#x166;" horiz-adv-x="537" 
d="M303 0h-69q-10 0 -10 10v347q0 6 -6 6h-102q-10 0 -10 10v59q0 10 10 10h102q6 0 6 6v143q0 6 -6 6h-186q-10 0 -10 10v63q0 10 10 10h473q10 0 10 -10v-63q0 -10 -10 -10h-186q-6 0 -6 -6v-143q0 -6 6 -6h102q10 0 10 -10v-59q0 -10 -10 -10h-102q-6 0 -6 -6v-347
q0 -10 -10 -10z" />
    <glyph glyph-name="tbar" unicode="&#x167;" horiz-adv-x="316" 
d="M258 -5h-37q-69 0 -99 32.5t-30 103.5v136q0 6 -6 6h-30q-10 0 -10 10v45q0 10 10 10h30q6 0 6 6v61q0 6 -6 6h-40q-10 0 -10 10v48q0 10 10 10h40q6 0 6 6v135q0 10 10 10h64q10 0 10 -10v-135q0 -6 6 -6h76q10 0 10 -10v-48q0 -10 -10 -10h-76q-6 0 -6 -6v-61
q0 -6 6 -6h65q10 0 10 -10v-45q0 -10 -10 -10h-65q-6 0 -6 -6v-133q0 -35 14 -48t47 -13h21q10 0 10 -10v-58q0 -10 -10 -10z" />
    <glyph glyph-name="Utilde" unicode="&#x168;" horiz-adv-x="639" 
d="M375 767q-26 0 -63 21q-32 18 -53 18q-27 0 -63 -32q-3 -3 -5.5 -2t-2.5 4v48q0 10 7 18q30 32 68 32q27 0 63 -20q29 -18 53 -18q29 0 63 32q3 3 5.5 2t2.5 -5v-48q0 -10 -7 -17q-31 -33 -68 -33zM320 -11q-114 0 -177.5 64.5t-63.5 183.5v433q0 10 10 10h69
q10 0 10 -10v-432q0 -81 41 -123.5t111 -42.5q69 0 110 42.5t41 123.5v432q0 10 10 10h69q10 0 10 -10v-433q0 -119 -63.5 -183.5t-176.5 -64.5z" />
    <glyph glyph-name="utilde" unicode="&#x169;" horiz-adv-x="539" 
d="M447 0h-64q-10 0 -10 10v45h-1q-41 -66 -131 -66q-78 0 -122 49t-44 132v299q0 10 10 10h64q10 0 10 -10v-279q0 -123 106 -123q49 0 78.5 32t29.5 86v284q0 10 10 10h64q10 0 10 -10v-459q0 -10 -10 -10zM325 576q-26 0 -63 21q-32 18 -53 18q-27 0 -63 -32
q-3 -3 -5.5 -2t-2.5 4v48q0 10 7 18q32 32 68 32q28 0 63 -21q32 -18 53 -18q27 0 63 32q3 3 5.5 2t2.5 -4v-48q0 -10 -7 -18q-32 -32 -68 -32z" />
    <glyph glyph-name="Umacron" unicode="&#x16a;" horiz-adv-x="639" 
d="M447 790h-255q-10 0 -10 10v45q0 10 10 10h255q10 0 10 -10v-45q0 -10 -10 -10zM320 -11q-114 0 -177.5 64.5t-63.5 183.5v433q0 10 10 10h69q10 0 10 -10v-432q0 -81 41 -123.5t111 -42.5q69 0 110 42.5t41 123.5v432q0 10 10 10h69q10 0 10 -10v-433
q0 -119 -63.5 -183.5t-176.5 -64.5z" />
    <glyph glyph-name="umacron" unicode="&#x16b;" horiz-adv-x="539" 
d="M447 0h-64q-10 0 -10 10v45h-1q-41 -66 -131 -66q-78 0 -122 49t-44 132v299q0 10 10 10h64q10 0 10 -10v-279q0 -123 106 -123q49 0 78.5 32t29.5 86v284q0 10 10 10h64q10 0 10 -10v-459q0 -10 -10 -10zM396 601h-255q-10 0 -10 10v45q0 10 10 10h255q10 0 10 -10v-45
q0 -10 -10 -10z" />
    <glyph glyph-name="Ubreve" unicode="&#x16c;" horiz-adv-x="639" 
d="M319 761q-58 0 -94.5 31.5t-41.5 81.5q0 10 9 10h36q8 0 11 -10q16 -52 80 -52t79 52q3 10 12 10h35q9 0 9 -10q-5 -50 -41.5 -81.5t-93.5 -31.5zM320 -11q-114 0 -177.5 64.5t-63.5 183.5v433q0 10 10 10h69q10 0 10 -10v-432q0 -81 41 -123.5t111 -42.5q69 0 110 42.5
t41 123.5v432q0 10 10 10h69q10 0 10 -10v-433q0 -119 -63.5 -183.5t-176.5 -64.5z" />
    <glyph glyph-name="ubreve" unicode="&#x16d;" horiz-adv-x="539" 
d="M447 0h-64q-10 0 -10 10v45h-1q-41 -66 -131 -66q-78 0 -122 49t-44 132v299q0 10 10 10h64q10 0 10 -10v-279q0 -123 106 -123q49 0 78.5 32t29.5 86v284q0 10 10 10h64q10 0 10 -10v-459q0 -10 -10 -10zM269 561q-58 0 -94.5 31.5t-41.5 81.5q0 10 9 10h36q8 0 11 -10
q17 -52 80 -52q64 0 79 52q3 10 12 10h35q9 0 9 -10q-5 -50 -41.5 -81.5t-93.5 -31.5z" />
    <glyph glyph-name="Uring" unicode="&#x16e;" horiz-adv-x="639" 
d="M320 -11q-114 0 -177.5 64.5t-63.5 183.5v433q0 10 10 10h69q10 0 10 -10v-432q0 -81 41 -123.5t111 -42.5q69 0 110 42.5t41 123.5v432q0 10 10 10h69q10 0 10 -10v-433q0 -119 -63.5 -183.5t-176.5 -64.5zM319 729q-40 0 -67.5 27t-27.5 67t27.5 67t67.5 27t67.5 -27
t27.5 -67t-27.5 -67t-67.5 -27zM319 770q22 0 36.5 15t14.5 38t-14.5 38t-36.5 15t-36.5 -15t-14.5 -38t14.5 -38t36.5 -15z" />
    <glyph glyph-name="uring" unicode="&#x16f;" horiz-adv-x="539" 
d="M269 535q-40 0 -67.5 27t-27.5 67t27.5 67t67.5 27t67.5 -27t27.5 -67t-27.5 -67t-67.5 -27zM269 576q22 0 36.5 15t14.5 38t-14.5 38t-36.5 15t-36.5 -15t-14.5 -38t14.5 -38t36.5 -15zM447 0h-64q-10 0 -10 10v45h-1q-41 -66 -131 -66q-78 0 -122 49t-44 132v299
q0 10 10 10h64q10 0 10 -10v-279q0 -123 106 -123q49 0 78.5 32t29.5 86v284q0 10 10 10h64q10 0 10 -10v-459q0 -10 -10 -10z" />
    <glyph glyph-name="Uhungarumlaut" unicode="&#x170;" horiz-adv-x="639" 
d="M320 -11q-114 0 -177.5 64.5t-63.5 183.5v433q0 10 10 10h69q10 0 10 -10v-432q0 -81 41 -123.5t111 -42.5q69 0 110 42.5t41 123.5v432q0 10 10 10h69q10 0 10 -10v-433q0 -119 -63.5 -183.5t-176.5 -64.5zM406 764h-45q-11 0 -4 10l66 105q6 10 16 10h57q4 0 5.5 -3
t-1.5 -7l-76 -106q-6 -9 -18 -9zM264 764h-45q-11 0 -4 10l66 105q6 10 16 10h57q4 0 5.5 -3t-1.5 -7l-76 -106q-6 -9 -18 -9z" />
    <glyph glyph-name="uhungarumlaut" unicode="&#x171;" horiz-adv-x="539" 
d="M447 0h-64q-10 0 -10 10v45h-1q-41 -66 -131 -66q-78 0 -122 49t-44 132v299q0 10 10 10h64q10 0 10 -10v-279q0 -123 106 -123q49 0 78.5 32t29.5 86v284q0 10 10 10h64q10 0 10 -10v-459q0 -10 -10 -10zM355 557h-45q-11 0 -6 10l66 123q7 10 16 10h57q11 0 5 -10
l-77 -124q-5 -9 -16 -9zM213 557h-45q-11 0 -6 10l66 123q7 10 16 10h57q11 0 5 -10l-77 -124q-5 -9 -16 -9z" />
    <glyph glyph-name="Uogonek" unicode="&#x172;" horiz-adv-x="639" 
d="M560 237q0 -104 -49 -167t-138 -77q-57 -52 -57 -82q0 -27 27 -27q11 0 27 8q8 5 13 -4l17 -35q5 -8 -3 -14q-30 -21 -68 -21t-60.5 21t-22.5 58q0 43 47 93q-101 8 -157.5 71.5t-56.5 175.5v433q0 10 10 10h69q10 0 10 -10v-432q0 -81 41 -123.5t111 -42.5
q69 0 110 42.5t41 123.5v432q0 10 10 10h69q10 0 10 -10v-433z" />
    <glyph glyph-name="uogonek" unicode="&#x173;" horiz-adv-x="540" 
d="M382 -182q-38 0 -60.5 20.5t-22.5 58.5q0 28 17 51.5t59 54.5q-2 2 -2 8v44h-1q-41 -66 -131 -66q-78 0 -122 49t-44 132v299q0 10 10 10h64q10 0 10 -10v-279q0 -123 106 -123q49 0 78.5 32t29.5 86v284q0 10 10 10h64q10 0 10 -10v-459q0 -8 -5 -10q-47 -31 -65 -51
t-18 -38q0 -27 27 -27q11 0 27 8q8 5 13 -4l17 -35q4 -7 -4 -14q-28 -21 -67 -21z" />
    <glyph glyph-name="Wcircumflex" unicode="&#x174;" horiz-adv-x="823" 
d="M623 0h-55q-8 0 -11 10l-145 507h-2l-144 -507q-3 -10 -12 -10h-55q-9 0 -11 10l-164 660q-3 10 8 10h66q11 0 12 -10l121 -505h2l141 505q3 10 12 10h51q9 0 12 -10l144 -505h2l118 505q3 10 13 10h65q10 0 8 -10l-164 -660q-2 -10 -12 -10zM539 754h-45q-10 0 -19 10
l-63 70h-2l-64 -70q-9 -10 -19 -10h-45q-4 0 -5.5 3t1.5 7l95 123q7 10 16 10h43q9 0 16 -10l95 -123q3 -4 2 -7t-6 -3z" />
    <glyph glyph-name="wcircumflex" unicode="&#x175;" horiz-adv-x="745" 
d="M500 557h-45q-10 0 -19 10l-63 70h-2l-64 -70q-9 -10 -19 -10h-45q-5 0 -6 3t2 7l95 123q7 10 16 10h43q9 0 16 -10l95 -123q3 -4 1.5 -7t-5.5 -3zM551 0h-57q-9 0 -12 10l-108 343h-2l-109 -343q-3 -10 -12 -10h-58q-9 0 -12 10l-150 459q-3 10 7 10h68q9 0 13 -10
l106 -346h2l108 346q3 10 12 10h52q10 0 13 -10l109 -346h2l103 346q2 10 13 10h68q10 0 7 -10l-151 -459q-3 -10 -12 -10z" />
    <glyph glyph-name="Ycircumflex" unicode="&#x176;" horiz-adv-x="526" 
d="M297 0h-68q-10 0 -10 10v268l-201 391q-4 11 8 11h71q9 0 15 -10l152 -291h2l151 291q4 10 14 10h69q12 0 8 -11l-201 -391v-268q0 -10 -10 -10zM390 754h-45q-10 0 -19 10l-63 70h-2l-64 -70q-9 -10 -19 -10h-45q-5 0 -6 3t2 7l95 123q7 10 16 10h43q9 0 16 -10l95 -123
q3 -4 1.5 -7t-5.5 -3z" />
    <glyph glyph-name="ycircumflex" unicode="&#x177;" horiz-adv-x="477" 
d="M112 -180h-26q-10 0 -10 10v58q0 10 10 10h18q30 0 47.5 15.5t33.5 56.5l16 44l-176 455q-3 10 8 10h70q9 0 12 -10l126 -346h2l121 346q3 10 12 10h68q11 0 8 -10l-189 -506q-31 -83 -63.5 -113t-87.5 -30zM369 557h-45q-10 0 -19 10l-63 70h-2l-64 -70q-9 -10 -19 -10
h-45q-4 0 -5.5 3t1.5 7l95 123q7 10 16 10h43q9 0 16 -10l95 -123q3 -4 2 -7t-6 -3z" />
    <glyph glyph-name="Ydieresis" unicode="&#x178;" horiz-adv-x="526" 
d="M297 0h-68q-10 0 -10 10v268l-201 391q-4 11 8 11h71q9 0 15 -10l152 -291h2l151 291q4 10 14 10h69q12 0 8 -11l-201 -391v-268q0 -10 -10 -10zM390 777h-56q-10 0 -10 10v72q0 10 10 10h56q10 0 10 -10v-72q0 -10 -10 -10zM190 777h-56q-10 0 -10 10v72q0 10 10 10h56
q10 0 10 -10v-72q0 -10 -10 -10z" />
    <glyph glyph-name="Zacute" unicode="&#x179;" horiz-adv-x="536" 
d="M477 0h-418q-10 0 -10 10v63q0 6 4 11l332 512v1h-314q-10 0 -10 10v63q0 10 10 10h406q10 0 10 -10v-63q0 -6 -4 -11l-333 -512v-1h327q10 0 10 -10v-63q0 -10 -10 -10zM275 762h-50q-5 0 -6 3t2 7l86 106q8 10 18 10h70q5 0 6.5 -3t-1.5 -7l-107 -107q-8 -9 -18 -9z
" />
    <glyph glyph-name="zacute" unicode="&#x17a;" horiz-adv-x="477" 
d="M248 557h-47q-11 0 -6 10l76 123q6 10 17 10h66q5 0 6.5 -3t-1.5 -7l-92 -123q-7 -10 -19 -10zM412 0h-347q-10 0 -10 10v53q0 7 4 11l263 327v2h-244q-10 0 -10 10v56q0 10 10 10h334q10 0 10 -10v-56q0 -6 -4 -11l-261 -324v-2h255q10 0 10 -10v-56q0 -10 -10 -10z" />
    <glyph glyph-name="Zdotaccent" unicode="&#x17b;" horiz-adv-x="536" 
d="M305 777h-69q-10 0 -10 10v72q0 10 10 10h69q10 0 10 -10v-72q0 -10 -10 -10zM477 0h-418q-10 0 -10 10v63q0 6 4 11l332 512v1h-314q-10 0 -10 10v63q0 10 10 10h406q10 0 10 -10v-63q0 -6 -4 -11l-333 -512v-1h327q10 0 10 -10v-63q0 -10 -10 -10z" />
    <glyph glyph-name="zdotaccent" unicode="&#x17c;" horiz-adv-x="477" 
d="M412 0h-347q-10 0 -10 10v53q0 7 4 11l263 327v2h-244q-10 0 -10 10v56q0 10 10 10h334q10 0 10 -10v-56q0 -6 -4 -11l-261 -324v-2h255q10 0 10 -10v-56q0 -10 -10 -10zM275 587h-69q-10 0 -10 10v73q0 10 10 10h69q10 0 10 -10v-73q0 -10 -10 -10z" />
    <glyph glyph-name="Zcaron" unicode="&#x17d;" horiz-adv-x="536" 
d="M292 752h-43q-9 0 -16 10l-95 124q-3 4 -1.5 7t5.5 3h45q10 0 19 -10l64 -71h2l63 71q9 10 19 10h45q5 0 6 -3t-2 -7l-95 -124q-7 -10 -16 -10zM477 0h-418q-10 0 -10 10v63q0 6 4 11l332 512v1h-314q-10 0 -10 10v63q0 10 10 10h406q10 0 10 -10v-63q0 -6 -4 -11
l-333 -512v-1h327q10 0 10 -10v-63q0 -10 -10 -10z" />
    <glyph glyph-name="zcaron" unicode="&#x17e;" horiz-adv-x="477" 
d="M262 555h-43q-9 0 -16 10l-95 124q-3 4 -1.5 7t5.5 3h45q10 0 19 -10l64 -71h2l63 71q9 10 19 10h45q5 0 6 -3t-2 -7l-95 -124q-7 -10 -16 -10zM412 0h-347q-10 0 -10 10v53q0 7 4 11l263 327v2h-244q-10 0 -10 10v56q0 10 10 10h334q10 0 10 -10v-56q0 -6 -4 -11
l-261 -324v-2h255q10 0 10 -10v-56q0 -10 -10 -10z" />
    <glyph glyph-name="florin" unicode="&#x192;" 
d="M429 335h-104l-56 -362q-13 -84 -49 -118.5t-110 -34.5h-24q-10 0 -10 10v56q0 10 10 10h20q38 0 56 15.5t25 59.5l56 364h-75q-10 0 -10 10v47q0 10 10 10h85l20 127q13 81 49 116t109 35h26q10 0 10 -10v-56q0 -10 -10 -10h-22q-36 0 -54.5 -17t-24.5 -57l-20 -128h93
q10 0 10 -10v-47q0 -10 -10 -10z" />
    <glyph glyph-name="Aringacute" unicode="&#x1fa;" horiz-adv-x="607" 
d="M326 780h-48q-11 0 -3 10l87 88q10 10 22 10h69q5 0 6 -3.5t-3 -6.5l-108 -90q-11 -8 -22 -8zM399 656q0 -37 -25 -65l209 -581q3 -10 -8 -10h-69q-10 0 -13 10l-52 148h-275l-52 -148q-4 -10 -13 -10h-69q-11 0 -8 10l211 580q-26 29 -26 66q0 40 27.5 67t67.5 27
t67.5 -27t27.5 -67zM304 603q22 0 36.5 15t14.5 38t-14.5 38t-36.5 15t-36.5 -15t-14.5 -38t14.5 -38t36.5 -15zM302 539l-107 -299h217l-106 299h-4z" />
    <glyph glyph-name="aringacute" unicode="&#x1fb;" horiz-adv-x="519" 
d="M287 766h-51q-4 0 -5.5 3t1.5 7l84 102q9 10 19 10h70q4 0 5.5 -3.5t-1.5 -6.5l-103 -103q-9 -9 -19 -9zM431 0h-59q-10 0 -10 10v42h-1q-39 -63 -142 -63q-72 0 -116.5 37t-44.5 107q0 74 48.5 111t138.5 37h109q6 0 6 6v35q0 51 -25 72.5t-90 21.5q-68 0 -116 -34
q-9 -7 -14 1l-27 46q-4 8 2 14q60 47 163 47q102 0 145 -37.5t43 -125.5v-317q0 -10 -10 -10zM239 61q56 0 88.5 25t32.5 69v53q0 6 -6 6h-96q-62 0 -90.5 -18.5t-28.5 -59.5q0 -75 100 -75zM263 535q-40 0 -67.5 27t-27.5 67t27.5 67t67.5 27t67.5 -27t27.5 -67t-27.5 -67
t-67.5 -27zM263 576q22 0 36.5 15t14.5 38t-14.5 38t-36.5 15t-36.5 -15t-14.5 -38t14.5 -38t36.5 -15z" />
    <glyph glyph-name="AEacute" unicode="&#x1fc;" horiz-adv-x="933" 
d="M515 762h-50q-5 0 -6 3t2 7l86 106q8 10 18 10h70q5 0 6.5 -3t-1.5 -7l-107 -107q-8 -9 -18 -9zM872 0h-408q-10 0 -10 10v142q0 6 -6 6h-241l-82 -148q-6 -10 -14 -10h-80q-11 0 -6 10l369 661q4 9 14 9h464q10 0 10 -10v-63q0 -10 -10 -10h-323q-6 0 -6 -6v-200
q0 -6 6 -6h275q10 0 10 -10v-63q0 -10 -10 -10h-275q-6 0 -6 -6v-207q0 -6 6 -6h323q10 0 10 -10v-63q0 -10 -10 -10zM452 596l-199 -356h195q6 0 6 6v350h-2z" />
    <glyph glyph-name="aeacute" unicode="&#x1fd;" horiz-adv-x="814" 
d="M432 557h-47q-11 0 -6 10l76 123q6 10 17 10h66q5 0 6.5 -3t-1.5 -7l-92 -123q-7 -10 -19 -10zM563 -11q-113 0 -166 84h-1q-42 -84 -177 -84q-72 0 -116.5 37t-44.5 107q0 74 48.5 111t138.5 37h109q6 0 6 6v35q0 51 -25 72.5t-90 21.5q-68 0 -116 -34q-9 -7 -14 1
l-27 46q-4 8 2 14q60 47 163 47q126 0 159 -64h2q47 64 144 64q70 0 119 -33.5t69 -95.5q15 -47 15 -137q0 -10 -11 -10h-303q-6 0 -6 -6q0 -32 8 -58q29 -83 121 -83q77 0 123 53q8 8 15 2l41 -37q7 -6 1 -14q-65 -82 -187 -82zM669 281q6 0 6 6q0 33 -7 54q-25 75 -110 75
t-110 -75q-7 -21 -7 -54q0 -6 6 -6h222zM239 61q56 0 88.5 25t32.5 69v53q0 6 -6 6h-96q-62 0 -90.5 -18.5t-28.5 -59.5q0 -75 100 -75z" />
    <glyph glyph-name="Oslashacute" unicode="&#x1fe;" horiz-adv-x="619" 
d="M116 -30h-45q-5 0 -6.5 3t0.5 7l53 91q-24 30 -40 77q-18 54 -18 192t18 192q26 78 85.5 118.5t145.5 40.5q89 0 149 -42l30 52q5 9 15 9h45q11 0 5 -10l-53 -91q27 -35 41 -77q18 -54 18 -192t-18 -192q-53 -159 -232 -159q-89 0 -148 42l-30 -52q-5 -9 -15 -9zM150 340
q0 -136 20 -183l242 417q-40 34 -103 34q-111 0 -144 -101q-15 -47 -15 -167zM309 72q112 0 145 101q15 47 15 167q0 80 -4 116t-17 66l-242 -416q40 -34 103 -34zM317 762h-50q-5 0 -6 3t2 7l86 106q8 10 18 10h70q5 0 6.5 -3t-1.5 -7l-107 -107q-8 -9 -18 -9z" />
    <glyph glyph-name="oslashacute" unicode="&#x1ff;" horiz-adv-x="516" 
d="M258 -11q-72 0 -121 35l-30 -44q-7 -10 -18 -10h-29q-11 0 -5 10l49 73q-23 28 -35 65q-16 48 -16 122q0 73 16 121q19 61 69 95t120 34q71 0 121 -35l30 44q6 10 18 10h29q11 0 5 -10l-49 -74q24 -28 35 -64q16 -48 16 -121q0 -74 -16 -122q-20 -61 -69.5 -95
t-119.5 -34zM155 126l177 262q-30 24 -74 24q-84 0 -109 -75q-11 -36 -11 -97q0 -74 17 -114zM258 67q84 0 109 75q11 36 11 98q0 69 -18 113l-177 -262q30 -24 75 -24zM265 557h-47q-11 0 -6 10l76 123q6 10 17 10h66q5 0 6.5 -3t-1.5 -7l-92 -123q-8 -10 -19 -10z" />
    <glyph glyph-name="Scommaaccent" unicode="&#x218;" horiz-adv-x="591" 
d="M264 -213q-9 0 -9 10v140q0 10 10 10h60q10 0 10 -10v-61q0 -12 -6 -20l-51 -61q-5 -8 -14 -8zM290 -11q-69 0 -134.5 24.5t-104.5 60.5q-7 7 -1 15l44 52q6 7 14 1q88 -70 190 -70q70 0 110 32t40 84q0 46 -32 73.5t-110 37.5l-34 5q-200 27 -200 188q0 91 60.5 145
t161.5 54q122 0 207 -63q8 -6 2 -14l-34 -55q-6 -7 -14 -2q-83 51 -164 51q-61 0 -95 -30t-34 -80q0 -45 33.5 -72t109.5 -37l33 -5q200 -27 200 -190q0 -92 -64.5 -148.5t-183.5 -56.5z" />
    <glyph glyph-name="scommaaccent" unicode="&#x219;" horiz-adv-x="490" 
d="M214 -213q-9 0 -9 10v140q0 10 10 10h60q10 0 10 -10v-61q0 -12 -6 -20l-51 -61q-5 -8 -14 -8zM247 -11q-115 0 -198 72q-7 7 0 14l41 44q7 7 14 0q64 -55 148 -55q51 0 78 20t27 53q0 30 -19.5 45.5t-73.5 21.5l-51 5q-143 15 -143 135q0 69 47 107.5t131 38.5
q99 0 170 -53q8 -5 2 -14l-34 -43q-6 -7 -14 -2q-60 39 -129 39q-44 0 -67.5 -18t-23.5 -48q0 -29 21 -44.5t73 -20.5l50 -5q72 -7 108 -41.5t36 -93.5q0 -72 -50.5 -114.5t-142.5 -42.5z" />
    <glyph glyph-name="uni021A" unicode="&#x21a;" horiz-adv-x="537" 
d="M237 -213q-9 0 -9 10v140q0 10 10 10h60q10 0 10 -10v-61q0 -12 -6 -20l-51 -61q-5 -8 -14 -8zM303 0h-69q-10 0 -10 10v581q0 6 -6 6h-186q-10 0 -10 10v63q0 10 10 10h473q10 0 10 -10v-63q0 -10 -10 -10h-186q-6 0 -6 -6v-581q0 -10 -10 -10z" />
    <glyph glyph-name="uni021B" unicode="&#x21b;" horiz-adv-x="316" 
d="M149 -213q-9 0 -9 10v140q0 10 10 10h60q10 0 10 -10v-61q0 -12 -6 -20l-51 -61q-5 -8 -14 -8zM258 -5h-37q-69 0 -99 32.5t-30 103.5v274q0 6 -6 6h-40q-10 0 -10 10v48q0 10 10 10h40q6 0 6 6v135q0 10 10 10h64q10 0 10 -10v-135q0 -6 6 -6h76q10 0 10 -10v-48
q0 -10 -10 -10h-76q-6 0 -6 -6v-271q0 -35 14 -48t47 -13h21q10 0 10 -10v-58q0 -10 -10 -10z" />
    <glyph glyph-name="dotlessj" unicode="&#x237;" horiz-adv-x="248" 
d="M23 -180h-20q-10 0 -10 10v58q0 10 10 10h16q36 0 49.5 13t13.5 51v507q0 10 10 10h64q10 0 10 -10v-505q0 -76 -34.5 -110t-108.5 -34z" />
    <glyph glyph-name="circumflex" unicode="&#x2c6;" horiz-adv-x="421" 
d="M339 557h-45q-10 0 -19 10l-63 70h-2l-64 -70q-9 -10 -19 -10h-45q-4 0 -5.5 3t1.5 7l95 123q7 10 16 10h43q9 0 16 -10l95 -123q3 -4 2 -7t-6 -3z" />
    <glyph glyph-name="caron" unicode="&#x2c7;" horiz-adv-x="421" 
d="M232 555h-43q-9 0 -16 10l-95 124q-3 4 -1.5 7t5.5 3h45q10 0 19 -10l64 -71h2l63 71q9 10 19 10h45q5 0 6 -3t-2 -7l-95 -124q-7 -10 -16 -10z" />
    <glyph glyph-name="uni02C9" unicode="&#x2c9;" horiz-adv-x="421" 
d="M338 790h-255q-10 0 -10 10v45q0 10 10 10h255q10 0 10 -10v-45q0 -10 -10 -10z" />
    <glyph glyph-name="breve" unicode="&#x2d8;" horiz-adv-x="421" 
d="M211 561q-58 0 -94.5 31.5t-41.5 81.5q0 10 9 10h36q8 0 11 -10q17 -52 80 -52q64 0 79 52q3 10 12 10h35q9 0 9 -10q-5 -50 -41.5 -81.5t-93.5 -31.5z" />
    <glyph glyph-name="dotaccent" unicode="&#x2d9;" horiz-adv-x="421" 
d="M245 587h-69q-10 0 -10 10v73q0 10 10 10h69q10 0 10 -10v-73q0 -10 -10 -10z" />
    <glyph glyph-name="ring" unicode="&#x2da;" horiz-adv-x="421" 
d="M211 535q-40 0 -67.5 27t-27.5 67t27.5 67t67.5 27t67.5 -27t27.5 -67t-27.5 -67t-67.5 -27zM211 576q22 0 36.5 15t14.5 38t-14.5 38t-36.5 15t-36.5 -15t-14.5 -38t14.5 -38t36.5 -15z" />
    <glyph glyph-name="ogonek" unicode="&#x2db;" horiz-adv-x="421" 
d="M205 -182q-38 0 -61 20.5t-23 58.5q0 54 69 103q14 10 25 10h58q4 0 5 -4t-3 -6q-83 -54 -83 -89q0 -27 26 -27q11 0 27 8q9 4 13 -4l18 -35q4 -7 -4 -14q-30 -21 -67 -21z" />
    <glyph glyph-name="tilde" unicode="&#x2dc;" horiz-adv-x="421" 
d="M265 576q-26 0 -63 21q-32 18 -53 18q-27 0 -63 -32q-3 -3 -5.5 -2t-2.5 4v48q0 10 7 18q32 32 68 32q28 0 63 -21q32 -18 53 -18q27 0 63 32q3 3 5.5 2t2.5 -4v-48q0 -10 -7 -18q-32 -32 -68 -32z" />
    <glyph glyph-name="hungarumlaut" unicode="&#x2dd;" horiz-adv-x="421" 
d="M264 557h-45q-11 0 -6 10l66 123q7 10 16 10h57q11 0 5 -10l-77 -124q-5 -9 -16 -9zM122 557h-45q-11 0 -6 10l66 123q7 10 16 10h57q11 0 5 -10l-77 -124q-5 -9 -16 -9z" />
    <glyph glyph-name="Delta" unicode="&#x394;" horiz-adv-x="607" 
d="M575 0h-543q-11 0 -8 10l236 660q3 10 12 10h65q9 0 12 -10l234 -660q3 -10 -8 -10zM465 75q7 0 5 6l-165 466h-2l-166 -466q-1 -6 5 -6h323z" />
    <glyph glyph-name="Delta" unicode="&#x2206;" horiz-adv-x="607" 
d="M575 0h-543q-11 0 -8 10l236 660q3 10 12 10h65q9 0 12 -10l234 -660q3 -10 -8 -10zM465 75q7 0 5 6l-165 466h-2l-166 -466q-1 -6 5 -6h323z" />
    <glyph glyph-name="Omega" unicode="&#x3a9;" horiz-adv-x="625" 
d="M552 0h-189q-10 0 -10 10v62q0 10 10 13q62 21 87 78t25 177q0 119 -16 167q-34 101 -147 101q-112 0 -146 -101q-16 -48 -16 -167q0 -120 25 -177t87 -78q10 -3 10 -13v-62q0 -10 -10 -10h-189q-10 0 -10 10v62q0 10 10 10h77v2q-49 31 -69.5 86.5t-20.5 169.5
q0 132 19 190q26 79 86.5 120t146.5 41q87 0 147.5 -41t86.5 -120q19 -63 19 -190q0 -114 -20.5 -169.5t-69.5 -86.5v-2h77q10 0 10 -10v-62q0 -10 -10 -10z" />
    <glyph glyph-name="Omega" unicode="&#x2126;" horiz-adv-x="625" 
d="M552 0h-189q-10 0 -10 10v62q0 10 10 13q62 21 87 78t25 177q0 119 -16 167q-34 101 -147 101q-112 0 -146 -101q-16 -48 -16 -167q0 -120 25 -177t87 -78q10 -3 10 -13v-62q0 -10 -10 -10h-189q-10 0 -10 10v62q0 10 10 10h77v2q-49 31 -69.5 86.5t-20.5 169.5
q0 132 19 190q26 79 86.5 120t146.5 41q87 0 147.5 -41t86.5 -120q19 -63 19 -190q0 -114 -20.5 -169.5t-69.5 -86.5v-2h77q10 0 10 -10v-62q0 -10 -10 -10z" />
    <glyph glyph-name="pi" unicode="&#x3c0;" horiz-adv-x="578" 
d="M506 -6h-17q-54 0 -78 27.5t-24 85.5v288q0 6 -6 6h-185q-6 0 -6 -6v-385q0 -10 -10 -10h-64q-10 0 -10 10v385q0 6 -6 6h-43q-10 0 -10 10v58q0 10 10 10h462q10 0 10 -10v-58q0 -10 -10 -10h-42q-6 0 -6 -6v-286q0 -21 7 -29t23 -8h5q10 0 10 -10v-58q0 -10 -10 -10z
" />
    <glyph glyph-name="Wgrave" unicode="&#x1e80;" horiz-adv-x="823" 
d="M434 762h-49q-10 0 -18 9l-107 107q-4 4 -2.5 7t6.5 3h70q11 0 19 -10l85 -106q4 -4 2.5 -7t-6.5 -3zM623 0h-55q-8 0 -11 10l-145 507h-2l-144 -507q-3 -10 -12 -10h-55q-9 0 -11 10l-164 660q-3 10 8 10h66q11 0 12 -10l121 -505h2l141 505q3 10 12 10h51q9 0 12 -10
l144 -505h2l118 505q3 10 13 10h65q10 0 8 -10l-164 -660q-2 -10 -12 -10z" />
    <glyph glyph-name="wgrave" unicode="&#x1e81;" horiz-adv-x="745" 
d="M551 0h-57q-9 0 -12 10l-108 343h-2l-109 -343q-3 -10 -12 -10h-58q-9 0 -12 10l-150 459q-3 10 7 10h68q9 0 13 -10l106 -346h2l108 346q3 10 12 10h52q10 0 13 -10l109 -346h2l103 346q2 10 13 10h68q10 0 7 -10l-151 -459q-3 -10 -12 -10zM395 557h-47q-12 0 -19 10
l-92 123q-3 4 -1.5 7t6.5 3h66q12 0 18 -10l75 -123q5 -10 -6 -10z" />
    <glyph glyph-name="Wacute" unicode="&#x1e82;" horiz-adv-x="823" 
d="M437 762h-50q-5 0 -6 3t2 7l86 106q8 10 18 10h70q5 0 6.5 -3t-1.5 -7l-107 -107q-8 -9 -18 -9zM623 0h-55q-8 0 -11 10l-145 507h-2l-144 -507q-3 -10 -12 -10h-55q-9 0 -11 10l-164 660q-3 10 8 10h66q11 0 12 -10l121 -505h2l141 505q3 10 12 10h51q9 0 12 -10
l144 -505h2l118 505q3 10 13 10h65q10 0 8 -10l-164 -660q-2 -10 -12 -10z" />
    <glyph glyph-name="wacute" unicode="&#x1e83;" horiz-adv-x="745" 
d="M398 557h-47q-11 0 -6 10l76 123q6 10 17 10h66q5 0 6.5 -3t-1.5 -7l-92 -123q-7 -10 -19 -10zM551 0h-57q-9 0 -12 10l-108 343h-2l-109 -343q-3 -10 -12 -10h-58q-9 0 -12 10l-150 459q-3 10 7 10h68q9 0 13 -10l106 -346h2l108 346q3 10 12 10h52q10 0 13 -10
l109 -346h2l103 346q2 10 13 10h68q10 0 7 -10l-151 -459q-3 -10 -12 -10z" />
    <glyph glyph-name="Wdieresis" unicode="&#x1e84;" horiz-adv-x="823" 
d="M538 777h-56q-10 0 -10 10v72q0 10 10 10h56q10 0 10 -10v-72q0 -10 -10 -10zM338 777h-56q-10 0 -10 10v72q0 10 10 10h56q10 0 10 -10v-72q0 -10 -10 -10zM623 0h-55q-8 0 -11 10l-145 507h-2l-144 -507q-3 -10 -12 -10h-55q-9 0 -11 10l-164 660q-3 10 8 10h66
q11 0 12 -10l121 -505h2l141 505q3 10 12 10h51q9 0 12 -10l144 -505h2l118 505q3 10 13 10h65q10 0 8 -10l-164 -660q-2 -10 -12 -10z" />
    <glyph glyph-name="wdieresis" unicode="&#x1e85;" horiz-adv-x="745" 
d="M500 587h-59q-10 0 -10 10v73q0 10 10 10h59q10 0 10 -10v-73q0 -10 -10 -10zM303 587h-59q-10 0 -10 10v73q0 10 10 10h59q10 0 10 -10v-73q0 -10 -10 -10zM551 0h-57q-9 0 -12 10l-108 343h-2l-109 -343q-3 -10 -12 -10h-58q-9 0 -12 10l-150 459q-3 10 7 10h68
q9 0 13 -10l106 -346h2l108 346q3 10 12 10h52q10 0 13 -10l109 -346h2l103 346q2 10 13 10h68q10 0 7 -10l-151 -459q-3 -10 -12 -10z" />
    <glyph glyph-name="Ygrave" unicode="&#x1ef2;" horiz-adv-x="526" 
d="M297 0h-68q-10 0 -10 10v268l-201 391q-4 11 8 11h71q9 0 15 -10l152 -291h2l151 291q4 10 14 10h69q12 0 8 -11l-201 -391v-268q0 -10 -10 -10zM298 762h-49q-10 0 -18 9l-107 107q-4 4 -2.5 7t6.5 3h70q11 0 19 -10l85 -106q4 -4 2.5 -7t-6.5 -3z" />
    <glyph glyph-name="ygrave" unicode="&#x1ef3;" horiz-adv-x="477" 
d="M112 -180h-26q-10 0 -10 10v58q0 10 10 10h18q30 0 47.5 15.5t33.5 56.5l16 44l-176 455q-3 10 8 10h70q9 0 12 -10l126 -346h2l121 346q3 10 12 10h68q11 0 8 -10l-189 -506q-31 -83 -63.5 -113t-87.5 -30zM282 557h-47q-11 0 -19 10l-92 123q-3 4 -1.5 7t6.5 3h66
q12 0 18 -10l75 -123q5 -10 -6 -10z" />
    <glyph glyph-name="endash" unicode="&#x2013;" horiz-adv-x="512" 
d="M478 229h-444q-10 0 -10 10v54q0 10 10 10h444q10 0 10 -10v-54q0 -10 -10 -10z" />
    <glyph glyph-name="emdash" unicode="&#x2014;" horiz-adv-x="850" 
d="M816 229h-782q-10 0 -10 10v54q0 10 10 10h782q10 0 10 -10v-54q0 -10 -10 -10z" />
    <glyph glyph-name="quoteleft" unicode="&#x2018;" horiz-adv-x="215" 
d="M138 503h-61q-10 0 -10 10v83q0 11 7 21l52 57q6 8 13 8q9 0 9 -10v-159q0 -10 -10 -10z" />
    <glyph glyph-name="quoteright" unicode="&#x2019;" horiz-adv-x="215" 
d="M76 501q-9 0 -9 10v159q0 10 10 10h61q10 0 10 -10v-83q0 -13 -6 -21l-52 -57q-6 -8 -14 -8z" />
    <glyph glyph-name="quotesinglbase" unicode="&#x201a;" horiz-adv-x="215" 
d="M76 -87q-9 0 -9 10v159q0 10 10 10h61q10 0 10 -10v-83q0 -14 -6 -21l-52 -57q-6 -8 -14 -8z" />
    <glyph glyph-name="quotedblleft" unicode="&#x201c;" horiz-adv-x="372" 
d="M295 503h-61q-10 0 -10 10v83q0 13 6 21l52 57q6 8 14 8q9 0 9 -10v-159q0 -10 -10 -10zM138 503h-61q-10 0 -10 10v83q0 11 7 21l52 57q6 8 13 8q9 0 9 -10v-159q0 -10 -10 -10z" />
    <glyph glyph-name="quotedblright" unicode="&#x201d;" horiz-adv-x="372" 
d="M233 501q-9 0 -9 10v159q0 10 10 10h61q10 0 10 -10v-83q0 -11 -7 -21l-52 -57q-6 -8 -13 -8zM76 501q-9 0 -9 10v159q0 10 10 10h61q10 0 10 -10v-83q0 -14 -6 -21l-52 -57q-5 -8 -14 -8z" />
    <glyph glyph-name="quotedblbase" unicode="&#x201e;" horiz-adv-x="372" 
d="M233 -87q-9 0 -9 10v159q0 10 10 10h61q10 0 10 -10v-83q0 -11 -7 -21l-52 -57q-6 -8 -13 -8zM76 -87q-9 0 -9 10v159q0 10 10 10h61q10 0 10 -10v-83q0 -13 -6 -21l-52 -57q-6 -8 -14 -8z" />
    <glyph glyph-name="dagger" unicode="&#x2020;" horiz-adv-x="494" 
d="M278 -180h-62q-10 0 -10 10v528q0 6 -6 6h-140q-10 0 -10 10v56q0 10 10 10h140q6 0 6 6v224q0 10 10 10h62q10 0 10 -10v-224q0 -6 6 -6h140q10 0 10 -10v-56q0 -10 -10 -10h-140q-6 0 -6 -6v-528q0 -10 -10 -10z" />
    <glyph glyph-name="daggerdbl" unicode="&#x2021;" horiz-adv-x="494" 
d="M278 -180h-62q-10 0 -10 10v193q0 6 -6 6h-140q-10 0 -10 10v56q0 10 10 10h140q6 0 6 6v278q0 6 -6 6h-140q-10 0 -10 10v56q0 10 10 10h140q6 0 6 6v193q0 10 10 10h62q10 0 10 -10v-193q0 -6 6 -6h140q10 0 10 -10v-56q0 -10 -10 -10h-140q-6 0 -6 -6v-278q0 -6 6 -6
h140q10 0 10 -10v-56q0 -10 -10 -10h-140q-6 0 -6 -6v-193q0 -10 -10 -10z" />
    <glyph glyph-name="bullet" unicode="&#x2022;" horiz-adv-x="442" 
d="M221 180q-56 0 -91.5 36t-35.5 92t35.5 92t91.5 36q55 0 91 -36t36 -92t-36 -92t-91 -36z" />
    <glyph glyph-name="ellipsis" unicode="&#x2026;" horiz-adv-x="708" 
d="M628 0h-76q-10 0 -10 10v86q0 10 10 10h76q10 0 10 -10v-86q0 -10 -10 -10zM392 0h-76q-10 0 -10 10v86q0 10 10 10h76q10 0 10 -10v-86q0 -10 -10 -10zM156 0h-76q-10 0 -10 10v86q0 10 10 10h76q10 0 10 -10v-86q0 -10 -10 -10z" />
    <glyph glyph-name="perthousand" unicode="&#x2030;" horiz-adv-x="1083" 
d="M211 -11h-47q-4 0 -6 3t0 7l394 682q6 10 16 10h47q11 0 5 -10l-394 -682q-6 -10 -15 -10zM199 330q-42 0 -73 20.5t-43 56.5q-8 25 -8 102t8 102q12 36 43 56.5t73 20.5t73 -20.5t42 -56.5q8 -25 8 -102t-8 -102q-11 -36 -42 -56.5t-73 -20.5zM199 388q42 0 53 35
q6 15 6 86t-6 86q-11 35 -53 35t-54 -35q-5 -17 -5 -86t5 -86q12 -35 54 -35zM885 -9q-42 0 -73 20.5t-43 56.5q-8 30 -8 102q0 73 8 102q12 36 43 56.5t73 20.5t73 -20.5t42 -56.5q8 -24 8 -102q0 -77 -8 -102q-11 -36 -42 -56.5t-73 -20.5zM579 -9q-42 0 -73 20.5
t-42 56.5q-8 25 -8 102q0 78 8 102q11 36 42 56.5t73 20.5q43 0 74 -20.5t42 -56.5q8 -24 8 -102q0 -77 -8 -102q-11 -36 -42 -56.5t-74 -20.5zM885 49q42 0 53 35q6 16 6 86q0 71 -6 86q-11 35 -53 35t-54 -35q-5 -17 -5 -86q0 -68 5 -86q12 -35 54 -35zM579 49q42 0 54 35
q5 14 5 86q0 74 -5 86q-12 35 -54 35q-41 0 -53 -35q-6 -15 -6 -86q0 -70 6 -86q12 -35 53 -35z" />
    <glyph glyph-name="guilsinglleft" unicode="&#x2039;" horiz-adv-x="320" 
d="M240 65l-189 192q-7 7 0 14l189 192q3 3 6.5 1.5t3.5 -5.5v-73q0 -10 -9 -20l-99 -98q-4 -4 0 -8l99 -98q9 -10 9 -20v-73q0 -4 -3.5 -5.5t-6.5 1.5z" />
    <glyph glyph-name="guilsinglright" unicode="&#x203a;" horiz-adv-x="320" 
d="M80 65q-3 -3 -6.5 -1.5t-3.5 5.5v73q0 10 9 20l99 98q4 4 0 8l-99 98q-9 10 -9 20v73q0 4 3.5 5.5t6.5 -1.5l189 -192q7 -7 0 -14z" />
    <glyph glyph-name="fraction" unicode="&#x2044;" horiz-adv-x="155" 
d="M-101 -11h-47q-11 0 -5 10l394 682q6 10 15 10h47q5 0 6.5 -3t-0.5 -7l-395 -682q-6 -10 -15 -10z" />
    <glyph glyph-name="zero.superior" unicode="&#x2070;" horiz-adv-x="341" 
d="M170 423q-97 0 -124 83q-9 24 -9 127t9 127q27 83 124 83t124 -83q9 -24 9 -127t-9 -127q-27 -83 -124 -83zM170 484q45 0 57 39q6 18 6 110t-6 110q-12 39 -57 39t-57 -39q-6 -18 -6 -110t6 -110q12 -39 57 -39z" />
    <glyph glyph-name="four.superior" unicode="&#x2074;" horiz-adv-x="341" 
d="M258 430h-45q-10 0 -10 10v51q0 6 -6 6h-162q-10 0 -10 10v40q0 8 4 16l128 263q5 10 14 10h52q11 0 6 -10l-128 -267v-1h96q6 0 6 6v89q0 10 10 10h45q10 0 10 -10v-89q0 -6 6 -6h26q10 0 10 -10v-41q0 -10 -10 -10h-26q-6 0 -6 -6v-51q0 -10 -10 -10z" />
    <glyph glyph-name="five.superior" unicode="&#x2075;" horiz-adv-x="341" 
d="M171 423q-50 0 -83 22t-41 58q-2 11 5 13l46 15q8 3 11 -5q18 -41 62 -41t57 36q4 13 4 39q0 27 -4 40q-13 35 -55 35q-35 0 -50 -24q-5 -8 -12 -8h-49q-10 0 -10 10v213q0 10 10 10h221q10 0 10 -10v-41q0 -10 -10 -10h-159q-6 0 -6 -6v-94h1q23 21 65 21q86 0 108 -68
q8 -23 8 -68q0 -36 -8 -62q-25 -75 -121 -75z" />
    <glyph glyph-name="six.superior" unicode="&#x2076;" horiz-adv-x="341" 
d="M170 423q-60 0 -97.5 35t-37.5 92q0 44 31 100l98 177q4 9 15 9h54q5 0 6.5 -3t-0.5 -7l-87 -156l1 -1q12 7 32 7q53 0 87 -35t34 -91q0 -57 -38 -92t-98 -35zM170 484q31 0 49.5 18t18.5 47t-18.5 47.5t-49.5 18.5q-30 0 -48.5 -18.5t-18.5 -47.5t18.5 -47t48.5 -18z
" />
    <glyph glyph-name="seven.superior" unicode="&#x2077;" horiz-adv-x="341" 
d="M145 430h-49q-11 0 -6 11l141 332v2h-113q-6 0 -6 -6v-43q0 -10 -10 -10h-46q-10 0 -10 10v100q0 10 10 10h235q10 0 10 -10v-47q0 -5 -2 -11l-140 -329q-4 -9 -14 -9z" />
    <glyph glyph-name="eight.superior" unicode="&#x2078;" horiz-adv-x="341" 
d="M170 423q-60 0 -98.5 34t-38.5 89q0 65 55 98v1q-45 29 -45 81q0 49 34.5 83t92.5 34t93 -34t35 -83q0 -51 -45 -81v-1q55 -33 55 -98q0 -55 -38.5 -89t-99.5 -34zM170 671q26 0 43 16t17 39q0 24 -17 40t-43 16q-25 0 -42 -16t-17 -40q0 -23 17 -39t42 -16zM170 484
q30 0 50 18t20 46t-20 46.5t-50 18.5t-49.5 -18.5t-19.5 -46.5t19.5 -46t49.5 -18z" />
    <glyph glyph-name="nine.superior" unicode="&#x2079;" horiz-adv-x="341" 
d="M162 430h-55q-11 0 -5 10l86 156l-1 1q-11 -7 -31 -7q-53 0 -87 35t-34 91q0 57 37.5 92t97.5 35t98 -35t38 -92q0 -41 -31 -100l-98 -177q-6 -9 -15 -9zM170 651q31 0 49.5 18.5t18.5 47.5t-18.5 47t-49.5 18q-30 0 -48.5 -18t-18.5 -47t18.5 -47.5t48.5 -18.5z" />
    <glyph glyph-name="zero.inferior" unicode="&#x2080;" horiz-adv-x="341" 
d="M170 -163q-97 0 -124 83q-9 24 -9 127t9 127q27 83 124 83t124 -83q9 -24 9 -127t-9 -127q-27 -83 -124 -83zM170 -102q45 0 57 39q6 18 6 110t-6 110q-12 39 -57 39t-57 -39q-6 -18 -6 -110t6 -110q12 -39 57 -39z" />
    <glyph glyph-name="one.inferior" unicode="&#x2081;" horiz-adv-x="341" 
d="M220 -156h-47q-10 0 -10 10v315h-2l-66 -44q-4 -2 -7 -0.5t-3 6.5v53q0 10 8 15l65 44q8 7 16 7h46q10 0 10 -10v-386q0 -10 -10 -10z" />
    <glyph glyph-name="two.inferior" unicode="&#x2082;" horiz-adv-x="341" 
d="M288 -156h-236q-10 0 -10 10v41q0 8 7 14l149 169q31 33 31 64q0 24 -15.5 39t-41.5 15q-50 0 -61 -50q-2 -10 -11 -8l-45 10q-10 2 -8 11q5 38 38 68t88 30q56 0 89.5 -33t33.5 -82q0 -51 -44 -100l-122 -135v-2h158q10 0 10 -10v-41q0 -10 -10 -10z" />
    <glyph glyph-name="three.inferior" unicode="&#x2083;" horiz-adv-x="341" 
d="M172 -163q-53 0 -88 22.5t-45 64.5q-3 10 6 12l45 12q8 1 12 -7q21 -43 68 -43q29 0 47 17.5t18 44.5q0 28 -18.5 45t-50.5 17h-19q-10 0 -10 10v41q0 10 10 10h15q29 0 46 15.5t17 41.5t-15.5 41t-43.5 15q-42 0 -60 -37q-3 -9 -12 -7l-42 10q-9 1 -7 12q8 36 40 59.5
t83 23.5q58 0 91.5 -31t33.5 -81q0 -54 -46 -86v-1q21 -9 38 -35t17 -62q0 -56 -35.5 -90t-94.5 -34z" />
    <glyph glyph-name="four.inferior" unicode="&#x2084;" horiz-adv-x="341" 
d="M258 -156h-45q-10 0 -10 10v51q0 6 -6 6h-162q-10 0 -10 10v40q0 8 4 16l128 263q5 10 14 10h52q11 0 6 -10l-128 -267v-1h96q6 0 6 6v89q0 10 10 10h45q10 0 10 -10v-89q0 -6 6 -6h26q10 0 10 -10v-41q0 -10 -10 -10h-26q-6 0 -6 -6v-51q0 -10 -10 -10z" />
    <glyph glyph-name="five.inferior" unicode="&#x2085;" horiz-adv-x="341" 
d="M171 -163q-50 0 -83 22t-41 58q-2 11 5 13l46 15q8 3 11 -5q18 -41 62 -41t57 36q4 13 4 39q0 27 -4 40q-13 35 -55 35q-35 0 -50 -24q-5 -8 -12 -8h-49q-10 0 -10 10v213q0 10 10 10h221q10 0 10 -10v-41q0 -10 -10 -10h-159q-6 0 -6 -6v-94h1q23 21 65 21q86 0 108 -68
q8 -23 8 -68q0 -36 -8 -62q-25 -75 -121 -75z" />
    <glyph glyph-name="six.inferior" unicode="&#x2086;" horiz-adv-x="341" 
d="M170 -163q-60 0 -97.5 35t-37.5 92q0 44 31 100l98 177q4 9 15 9h54q5 0 6.5 -3t-0.5 -7l-87 -156l1 -1q12 7 32 7q53 0 87 -35t34 -91q0 -57 -38 -92t-98 -35zM170 -102q31 0 49.5 18t18.5 47t-18.5 47.5t-49.5 18.5q-30 0 -48.5 -18.5t-18.5 -47.5t18.5 -47t48.5 -18z
" />
    <glyph glyph-name="seven.inferior" unicode="&#x2087;" horiz-adv-x="341" 
d="M145 -156h-49q-11 0 -6 11l141 332v2h-113q-6 0 -6 -6v-43q0 -10 -10 -10h-46q-10 0 -10 10v100q0 10 10 10h235q10 0 10 -10v-47q0 -5 -2 -11l-140 -329q-4 -9 -14 -9z" />
    <glyph glyph-name="eight.inferior" unicode="&#x2088;" horiz-adv-x="341" 
d="M170 -163q-60 0 -98.5 34t-38.5 89q0 65 55 98v1q-45 29 -45 81q0 49 34.5 83t92.5 34t93 -34t35 -83q0 -51 -45 -81v-1q55 -33 55 -98q0 -55 -38.5 -89t-99.5 -34zM170 85q26 0 43 16t17 39q0 24 -17 40t-43 16q-25 0 -42 -16t-17 -40q0 -23 17 -39t42 -16zM170 -102
q30 0 50 18t20 46t-20 46.5t-50 18.5t-49.5 -18.5t-19.5 -46.5t19.5 -46t49.5 -18z" />
    <glyph glyph-name="nine.inferior" unicode="&#x2089;" horiz-adv-x="341" 
d="M162 -156h-55q-11 0 -5 10l86 156l-1 1q-11 -7 -31 -7q-53 0 -87 35t-34 91q0 57 37.5 92t97.5 35t98 -35t38 -92q0 -41 -31 -100l-98 -177q-6 -9 -15 -9zM170 65q31 0 49.5 18.5t18.5 47.5t-18.5 47t-49.5 18q-30 0 -48.5 -18t-18.5 -47t18.5 -47.5t48.5 -18.5z" />
    <glyph glyph-name="Euro" unicode="&#x20ac;" 
d="M309 67q75 0 115 75q4 8 13 5l54 -27q7 -4 3 -13q-55 -118 -185 -118q-148 0 -193 137q-13 40 -13 116q0 6 -6 6h-42q-10 0 -10 10v42q0 10 10 10h42q6 0 6 6v54q0 6 -6 6h-42q-10 0 -10 10v42q0 10 10 10h42q6 0 6 6q0 70 13 110q45 137 193 137q130 0 185 -118
q4 -9 -3 -13l-54 -27q-9 -3 -13 5q-40 75 -115 75q-85 0 -110 -79q-10 -29 -10 -90q0 -6 6 -6h191q10 0 10 -10l-10 -42q-3 -10 -10 -10h-181q-6 0 -6 -6v-54q0 -6 6 -6h171q10 0 10 -10l-10 -42q-3 -10 -10 -10h-161q-6 0 -6 -6q0 -67 10 -96q25 -79 110 -79z" />
    <glyph glyph-name="afii61289" unicode="&#x2113;" horiz-adv-x="410" 
d="M83 177q-8 -5 -14 2l-28 41q-5 8 2 14l73 58v208q0 191 130 191q53 0 84.5 -37t31.5 -101q0 -143 -161 -292v-134q0 -60 46 -60q29 0 59 28q9 7 14 -2l27 -39q5 -8 -2 -14q-48 -51 -115 -51q-114 0 -114 138v76zM201 509v-151q88 94 88 195q0 31 -11 49.5t-30 18.5
q-47 0 -47 -112z" />
    <glyph glyph-name="trademark" unicode="&#x2122;" horiz-adv-x="833" 
d="M771 286h-41q-10 0 -10 10v241h-2l-89 -185q-5 -10 -13 -10h-33q-7 0 -12 10l-89 185h-2v-241q0 -10 -10 -10h-41q-10 0 -10 10v374q0 10 10 10h39q8 0 13 -9l118 -252h3l116 252q4 9 14 9h39q10 0 10 -10v-374q0 -10 -10 -10zM217 286h-45q-10 0 -10 10v320q0 6 -6 6
h-105q-10 0 -10 10v38q0 10 10 10h287q10 0 10 -10v-38q0 -10 -10 -10h-105q-6 0 -6 -6v-320q0 -10 -10 -10z" />
    <glyph glyph-name="estimated" unicode="&#x212e;" horiz-adv-x="620" 
d="M309 -11q-104 0 -168.5 72.5t-64.5 179.5t64 178t169 71t169.5 -69t65.5 -180h-366v-165q54 -52 131 -52q111 0 174 108l32 -20q-42 -65 -89 -94t-117 -29zM442 273v132q-60 54 -133 54q-77 0 -131 -54v-132h264z" />
    <glyph glyph-name="onethird" unicode="&#x2153;" horiz-adv-x="881" 
d="M229 274h-47q-10 0 -10 10v315h-2l-66 -44q-4 -2 -7 -0.5t-3 6.5v53q0 10 8 15l65 44q8 7 16 7h46q10 0 10 -10v-386q0 -10 -10 -10zM226 -11h-47q-11 0 -5 10l394 682q6 10 15 10h47q4 0 6 -3t0 -7l-395 -682q-6 -10 -15 -10zM657 -7q-53 0 -88 22.5t-45 64.5
q-3 10 6 12l45 12q8 1 12 -7q21 -43 68 -43q29 0 47 17.5t18 44.5q0 28 -18.5 45t-50.5 17h-19q-10 0 -10 10v41q0 10 10 10h15q29 0 46 15.5t17 41.5t-15.5 41t-43.5 15q-42 0 -60 -37q-3 -9 -12 -7l-42 10q-9 1 -7 12q8 36 40 59.5t83 23.5q58 0 91.5 -31t33.5 -81
q0 -54 -46 -86v-1q21 -9 38 -35t17 -62q0 -56 -35.5 -90t-94.5 -34z" />
    <glyph glyph-name="twothirds" unicode="&#x2154;" horiz-adv-x="979" 
d="M339 274h-236q-10 0 -10 10v41q0 8 7 14l149 169q31 33 31 64q0 24 -15.5 39t-41.5 15q-50 0 -61 -50q-2 -10 -11 -8l-45 10q-10 2 -8 11q5 38 38 68t88 30q56 0 89.5 -33t33.5 -82q0 -51 -44 -100l-122 -135v-2h158q10 0 10 -10v-41q0 -10 -10 -10zM324 -11h-47
q-11 0 -5 10l394 682q6 10 15 10h47q4 0 6 -3t0 -7l-395 -682q-6 -10 -15 -10zM755 -7q-53 0 -88 22.5t-45 64.5q-3 10 6 12l45 12q8 1 12 -7q21 -43 68 -43q29 0 47 17.5t18 44.5q0 28 -18.5 45t-50.5 17h-19q-10 0 -10 10v41q0 10 10 10h15q29 0 46 15.5t17 41.5t-15.5 41
t-43.5 15q-42 0 -60 -37q-3 -9 -12 -7l-42 10q-9 1 -7 12q8 36 40 59.5t83 23.5q58 0 91.5 -31t33.5 -81q0 -54 -46 -86v-1q21 -9 38 -35t17 -62q0 -56 -35.5 -90t-94.5 -34z" />
    <glyph glyph-name="oneeighth" unicode="&#x215b;" horiz-adv-x="882" 
d="M229 274h-47q-10 0 -10 10v315h-2l-66 -44q-4 -2 -7 -0.5t-3 6.5v53q0 10 8 15l65 44q8 7 16 7h46q10 0 10 -10v-386q0 -10 -10 -10zM650 -7q-60 0 -98.5 34t-38.5 89q0 65 55 98v1q-45 29 -45 81q0 49 34.5 83t92.5 34t93 -34t35 -83q0 -51 -45 -81v-1q55 -33 55 -98
q0 -55 -38.5 -89t-99.5 -34zM650 241q26 0 43 16t17 39q0 24 -17 40t-43 16q-25 0 -42 -16t-17 -40q0 -23 17 -39t42 -16zM650 54q30 0 50 18t20 46t-20 46.5t-50 18.5t-49.5 -18.5t-19.5 -46.5t19.5 -46t49.5 -18zM226 -11h-47q-11 0 -5 10l394 682q6 10 15 10h47q4 0 6 -3
t0 -7l-395 -682q-6 -10 -15 -10z" />
    <glyph glyph-name="threeeighths" unicode="&#x215c;" horiz-adv-x="954" 
d="M723 -7q-60 0 -98.5 34t-38.5 89q0 65 55 98v1q-45 29 -45 81q0 49 34.5 83t92.5 34t93 -34t35 -83q0 -51 -45 -81v-1q55 -33 55 -98q0 -55 -38.5 -89t-99.5 -34zM723 241q26 0 43 16t17 39q0 24 -17 40t-43 16q-25 0 -42 -16t-17 -40q0 -23 17 -39t42 -16zM723 54
q30 0 50 18t20 46t-20 46.5t-50 18.5t-49.5 -18.5t-19.5 -46.5t19.5 -46t49.5 -18zM298 -11h-47q-11 0 -5 10l394 682q6 10 15 10h47q4 0 6 -3t0 -7l-395 -682q-6 -10 -15 -10zM228 267q-53 0 -88 22.5t-45 64.5q-3 10 6 12l45 12q8 1 12 -7q21 -43 68 -43q29 0 47 17.5
t18 44.5q0 28 -18.5 45t-50.5 17h-19q-10 0 -10 10v41q0 10 10 10h15q29 0 46 15.5t17 41.5t-15.5 41t-43.5 15q-42 0 -60 -37q-3 -9 -12 -7l-42 10q-9 1 -7 12q8 36 40 59.5t83 23.5q58 0 91.5 -31t33.5 -81q0 -54 -46 -86v-1q21 -9 38 -35t17 -62q0 -56 -35.5 -90
t-94.5 -34z" />
    <glyph glyph-name="fiveeighths" unicode="&#x215d;" horiz-adv-x="946" 
d="M715 -7q-60 0 -98.5 34t-38.5 89q0 65 55 98v1q-45 29 -45 81q0 49 34.5 83t92.5 34t93 -34t35 -83q0 -51 -45 -81v-1q55 -33 55 -98q0 -55 -38.5 -89t-99.5 -34zM715 241q26 0 43 16t17 39q0 24 -17 40t-43 16q-25 0 -42 -16t-17 -40q0 -23 17 -39t42 -16zM715 54
q30 0 50 18t20 46t-20 46.5t-50 18.5t-49.5 -18.5t-19.5 -46.5t19.5 -46t49.5 -18zM290 -11h-47q-11 0 -5 10l394 682q6 10 15 10h47q4 0 6 -3t0 -7l-395 -682q-6 -10 -15 -10zM218 267q-50 0 -83 22t-41 58q-2 11 5 13l46 15q8 3 11 -5q18 -41 62 -41t57 36q4 13 4 39
q0 27 -4 40q-13 35 -55 35q-35 0 -50 -24q-5 -8 -12 -8h-49q-10 0 -10 10v213q0 10 10 10h221q10 0 10 -10v-41q0 -10 -10 -10h-159q-6 0 -6 -6v-94h1q23 21 65 21q86 0 108 -68q8 -23 8 -68q0 -36 -8 -62q-25 -75 -121 -75z" />
    <glyph glyph-name="seveneighths" unicode="&#x215e;" horiz-adv-x="877" 
d="M646 -7q-60 0 -98.5 34t-38.5 89q0 65 55 98v1q-45 29 -45 81q0 49 34.5 83t92.5 34t93 -34t35 -83q0 -51 -45 -81v-1q55 -33 55 -98q0 -55 -38.5 -89t-99.5 -34zM646 241q26 0 43 16t17 39q0 24 -17 40t-43 16q-25 0 -42 -16t-17 -40q0 -23 17 -39t42 -16zM646 54
q30 0 50 18t20 46t-20 46.5t-50 18.5t-49.5 -18.5t-19.5 -46.5t19.5 -46t49.5 -18zM192 274h-49q-11 0 -6 11l141 332v2h-113q-6 0 -6 -6v-43q0 -10 -10 -10h-46q-10 0 -10 10v100q0 10 10 10h235q10 0 10 -10v-47q0 -5 -2 -11l-140 -329q-4 -9 -14 -9zM221 -11h-47
q-11 0 -5 10l394 682q6 10 15 10h47q5 0 6.5 -3t-0.5 -7l-395 -682q-6 -10 -15 -10z" />
    <glyph glyph-name="partialdiff" unicode="&#x2202;" horiz-adv-x="541" 
d="M250 -11q-88 0 -142.5 59t-54.5 151q0 94 56.5 156t145.5 62q97 0 153 -69h1q2 118 -39 192.5t-120 74.5q-55 0 -112 -42q-8 -5 -13 3l-29 45q-5 8 3 14q69 56 153 56q114 0 175 -90t61 -245q0 -167 -60 -267t-178 -100zM257 68q132 0 148 211q-56 66 -136 66
q-63 0 -99 -38t-36 -106q0 -59 34 -96t89 -37z" />
    <glyph glyph-name="product" unicode="&#x220f;" horiz-adv-x="652" 
d="M558 -180h-69q-10 0 -10 10v821q0 6 -6 6h-294q-6 0 -6 -6v-821q0 -10 -10 -10h-69q-10 0 -10 10v900q0 10 10 10h464q10 0 10 -10v-900q0 -10 -10 -10z" />
    <glyph glyph-name="summation" unicode="&#x2211;" horiz-adv-x="534" 
d="M481 -180h-420q-10 0 -10 10v59q0 5 2 9l186 422l-181 336q-3 6 -3 11v63q0 10 10 10h406q10 0 10 -10v-63q0 -10 -10 -10h-315l174 -324q3 -7 0 -14l-183 -416h334q10 0 10 -10v-63q0 -10 -10 -10z" />
    <glyph glyph-name="minus" unicode="&#x2212;" 
d="M471 239h-400q-10 0 -10 10v54q0 10 10 10h400q10 0 10 -10v-54q0 -10 -10 -10z" />
    <glyph glyph-name="uni2215" unicode="&#x2215;" horiz-adv-x="155" 
d="M-101 -11h-47q-11 0 -5 10l394 682q6 10 15 10h47q5 0 6.5 -3t-0.5 -7l-395 -682q-6 -10 -15 -10z" />
    <glyph glyph-name="uni2219" unicode="&#x2219;" horiz-adv-x="236" 
d="M156 212h-76q-10 0 -10 10v86q0 10 10 10h76q10 0 10 -10v-86q0 -10 -10 -10z" />
    <glyph glyph-name="radical" unicode="&#x221a;" horiz-adv-x="629" 
d="M349 -180h-53q-9 0 -13 10l-138 282q-3 6 -9 3l-66 -31q-10 -5 -13 4l-20 43q-5 9 4 13l128 63q10 5 14 -4l129 -269h3l219 796q3 10 12 10h57q11 0 8 -10l-250 -900q-3 -10 -12 -10z" />
    <glyph glyph-name="infinity" unicode="&#x221e;" horiz-adv-x="766" 
d="M567 87q-91 0 -184 108q-96 -108 -185 -108q-67 0 -111.5 44.5t-44.5 115.5q0 70 44.5 115t112.5 45q46 0 89 -27t94 -85q53 60 95 86t89 26q68 0 113 -44.5t45 -115.5q0 -70 -44.5 -115t-112.5 -45zM564 149q43 0 69.5 29t26.5 70t-26 69t-70 28q-31 0 -62.5 -22.5
t-76.5 -76.5q48 -55 77.5 -76t61.5 -21zM202 149q30 0 62 22.5t77 74.5q-46 54 -76.5 76.5t-62.5 22.5q-44 0 -70 -27.5t-26 -69.5q0 -43 26.5 -71t69.5 -28z" />
    <glyph glyph-name="integral" unicode="&#x222b;" horiz-adv-x="414" 
d="M107 -180q-17 0 -41 2q-10 2 -10 10v57q0 5 3 8t7 2q20 -2 29 -2q36 0 53 23t17 77v548q0 104 34 149t109 46q28 0 40 -2q10 -2 10 -10v-57q0 -5 -3 -8t-7 -2q-10 2 -29 2q-36 0 -53 -23t-17 -77v-548q0 -104 -34 -149t-108 -46z" />
    <glyph glyph-name="approxequal" unicode="&#x2248;" 
d="M286 404q44 -29 71 -29q43 0 75 54q5 8 14 2l38 -22q8 -5 4 -14q-19 -42 -54.5 -66t-77.5 -24q-44 0 -100 37q-44 29 -71 29q-43 0 -75 -54q-5 -8 -14 -2l-38 22q-8 5 -4 14q19 42 54.5 66t77.5 24q44 0 100 -37zM286 210q44 -29 71 -29q43 0 75 54q5 8 14 2l38 -22
q8 -5 4 -14q-19 -42 -54.5 -66t-77.5 -24q-44 0 -100 37q-44 29 -71 29q-43 0 -75 -54q-5 -8 -14 -2l-38 22q-8 5 -4 14q19 42 54.5 66t77.5 24q44 0 100 -37z" />
    <glyph glyph-name="notequal" unicode="&#x2260;" 
d="M471 139h-237l-52 -101q-6 -10 -15 -10h-47q-10 0 -5 11l52 100h-96q-10 0 -10 10v54q0 10 10 10h134l65 126h-199q-10 0 -10 10v54q0 10 10 10h238l52 101q4 10 15 10h47q11 0 5 -11l-52 -100h95q10 0 10 -10v-54q0 -10 -10 -10h-133l-65 -126h198q10 0 10 -10v-54
q0 -10 -10 -10z" />
    <glyph glyph-name="lessequal" unicode="&#x2264;" 
d="M471 143l-400 164q-10 3 -10 13v47q0 10 10 14l400 164q10 3 10 -6v-62q0 -9 -10 -13l-301 -119v-2l301 -119q10 -4 10 -13v-62q0 -9 -10 -6zM471 0h-400q-10 0 -10 10v54q0 10 10 10h400q10 0 10 -10v-54q0 -10 -10 -10z" />
    <glyph glyph-name="greaterequal" unicode="&#x2265;" 
d="M471 307l-400 -164q-10 -3 -10 6v62q0 9 10 13l301 119v2l-301 119q-10 4 -10 13v62q0 9 10 6l400 -164q10 -4 10 -14v-47q0 -10 -10 -13zM471 0h-400q-10 0 -10 10v54q0 10 10 10h400q10 0 10 -10v-54q0 -10 -10 -10z" />
    <glyph glyph-name="lozenge" unicode="&#x25ca;" horiz-adv-x="559" 
d="M308 -52h-57q-10 0 -14 10l-176 364q-3 7 0 14l176 364q4 10 14 10h57q10 0 14 -10l176 -364q3 -7 0 -14l-176 -364q-4 -10 -14 -10zM282 35l137 294l-139 294h-2l-138 -294l140 -294h2z" />
    <glyph glyph-name="uniF8FF" unicode="&#xf8ff;" horiz-adv-x="477" 
d="M467 0h-457q-10 0 -10 10v660q0 10 10 10h457q10 0 10 -10v-660q0 -10 -10 -10zM422 47q6 0 6 6v574q0 6 -6 6h-367q-6 0 -6 -6v-574q0 -6 6 -6h367zM247 231h-39q-10 0 -10 10v24q0 34 20 60l44 60q28 34 28 66q0 26 -16.5 42t-42.5 16q-53 0 -65 -54q-2 -10 -12 -9
l-37 6q-10 2 -8 11q9 46 41 72.5t83 26.5t83.5 -31.5t32.5 -79.5q0 -46 -32 -84l-43 -60q-17 -21 -17 -48v-18q0 -10 -10 -10zM250 114h-45q-10 0 -10 10v49q0 10 10 10h45q10 0 10 -10v-49q0 -10 -10 -10z" />
    <glyph glyph-name="CR" horiz-adv-x="0" 
 />
    <glyph glyph-name="grave.cap" horiz-adv-x="421" 
d="M302 762h-49q-10 0 -18 9l-107 107q-4 4 -2.5 7t6.5 3h70q11 0 19 -10l85 -106q4 -4 2.5 -7t-6.5 -3z" />
    <glyph glyph-name="acute.cap" horiz-adv-x="421" 
d="M181 762h-50q-5 0 -6 3t2 7l86 106q8 10 18 10h70q5 0 6.5 -3t-1.5 -7l-107 -107q-8 -9 -18 -9z" />
    <glyph glyph-name="circumflex.cap" horiz-adv-x="421" 
d="M339 754h-45q-10 0 -19 10l-63 70h-2l-64 -70q-9 -10 -19 -10h-45q-4 0 -5.5 3t1.5 7l95 123q7 10 16 10h43q9 0 16 -10l95 -123q3 -4 2 -7t-6 -3z" />
    <glyph glyph-name="caron.cap" horiz-adv-x="421" 
d="M232 752h-43q-9 0 -16 10l-95 124q-3 4 -1.5 7t5.5 3h45q10 0 19 -10l64 -71h2l63 71q9 10 19 10h45q5 0 6 -3t-2 -7l-95 -124q-7 -10 -16 -10z" />
    <glyph glyph-name="caron.alt" horiz-adv-x="421" 
d="M180 517q-10 0 -10 11v142q0 10 10 10h60q10 0 10 -10v-64q0 -12 -6 -20l-50 -61q-7 -8 -14 -8z" />
    <glyph glyph-name="tilde.cap" horiz-adv-x="421" 
d="M265 767q-26 0 -63 21q-32 18 -53 18q-27 0 -63 -32q-3 -3 -5.5 -2t-2.5 4v48q0 10 7 18q30 32 68 32q27 0 63 -20q29 -18 53 -18q29 0 63 32q3 3 5.5 2t2.5 -5v-48q0 -10 -7 -17q-31 -33 -68 -33z" />
    <glyph glyph-name="dieresis.cap" horiz-adv-x="421" 
d="M339 777h-56q-10 0 -10 10v72q0 10 10 10h56q10 0 10 -10v-72q0 -10 -10 -10zM139 777h-56q-10 0 -10 10v72q0 10 10 10h56q10 0 10 -10v-72q0 -10 -10 -10z" />
    <glyph glyph-name="macron.cap" horiz-adv-x="421" 
d="M338 790h-255q-10 0 -10 10v45q0 10 10 10h255q10 0 10 -10v-45q0 -10 -10 -10z" />
    <glyph glyph-name="breve.cap" horiz-adv-x="421" 
d="M211 761q-58 0 -94.5 31.5t-41.5 81.5q0 10 9 10h36q8 0 11 -10q16 -52 80 -52t79 52q3 10 12 10h35q9 0 9 -10q-5 -50 -41.5 -81.5t-93.5 -31.5z" />
    <glyph glyph-name="ring.cap" horiz-adv-x="421" 
d="M211 729q-40 0 -67.5 27t-27.5 67t27.5 67t67.5 27t67.5 -27t27.5 -67t-27.5 -67t-67.5 -27zM211 770q22 0 36.5 15t14.5 38t-14.5 38t-36.5 15t-36.5 -15t-14.5 -38t14.5 -38t36.5 -15z" />
    <glyph glyph-name="hungarumlaut.cap" horiz-adv-x="421" 
d="M270 764h-45q-11 0 -4 10l66 105q6 10 16 10h57q4 0 5.5 -3t-1.5 -7l-76 -106q-6 -9 -18 -9zM128 764h-45q-11 0 -4 10l66 105q6 10 16 10h57q4 0 5.5 -3t-1.5 -7l-76 -106q-6 -9 -18 -9z" />
    <glyph glyph-name="dotaccent.cap" horiz-adv-x="421" 
d="M245 777h-69q-10 0 -10 10v72q0 10 10 10h69q10 0 10 -10v-72q0 -10 -10 -10z" />
    <glyph glyph-name="commaaccent" horiz-adv-x="421" 
d="M180 -213q-9 0 -9 10v140q0 10 10 10h60q10 0 10 -10v-61q0 -12 -6 -20l-51 -61q-5 -8 -14 -8z" />
    <glyph glyph-name="commaaccent.alt" horiz-adv-x="421" 
d="M242 732q9 0 9 -10v-140q0 -10 -10 -10h-60q-10 0 -10 10v61q0 12 6 20l51 61q7 8 14 8z" />
    <glyph glyph-name="uni0394" horiz-adv-x="607" 
d="M575 0h-543q-11 0 -8 10l236 660q3 10 12 10h65q9 0 12 -10l234 -660q3 -10 -8 -10zM465 75q7 0 5 6l-165 466h-2l-166 -466q-1 -6 5 -6h323z" />
    <glyph glyph-name="uni03A9" horiz-adv-x="625" 
d="M552 0h-189q-10 0 -10 10v62q0 10 10 13q62 21 87 78t25 177q0 119 -16 167q-34 101 -147 101q-112 0 -146 -101q-16 -48 -16 -167q0 -120 25 -177t87 -78q10 -3 10 -13v-62q0 -10 -10 -10h-189q-10 0 -10 10v62q0 10 10 10h77v2q-49 31 -69.5 86.5t-20.5 169.5
q0 132 19 190q26 79 86.5 120t146.5 41q87 0 147.5 -41t86.5 -120q19 -63 19 -190q0 -114 -20.5 -169.5t-69.5 -86.5v-2h77q10 0 10 -10v-62q0 -10 -10 -10z" />
    <glyph glyph-name="uni03BC" horiz-adv-x="546" 
d="M454 0h-64q-10 0 -10 10v45h-1q-15 -30 -46.5 -48t-73.5 -18q-62 0 -91 37h-2v-196q0 -10 -10 -10h-64q-10 0 -10 10v639q0 10 10 10h64q10 0 10 -10v-284q0 -56 27 -87t79 -31q49 0 78.5 32t29.5 86v284q0 10 10 10h64q10 0 10 -10v-459q0 -10 -10 -10z" />
    <glyph glyph-name="exclam.sc" horiz-adv-x="274" 
d="M158 184h-41q-10 0 -10 10l-17 315q0 10 10 10h75q10 0 10 -10l-17 -315q0 -10 -10 -10zM175 0h-76q-10 0 -10 10v86q0 10 10 10h76q10 0 10 -10v-86q0 -10 -10 -10z" />
    <glyph glyph-name="dollar.sc" horiz-adv-x="453" 
d="M241 -55h-24q-10 0 -10 10v36q-94 3 -161 49q-9 6 -2 15l35 47q5 7 14 1q49 -33 114 -39v164l-6 1q-72 9 -110.5 47.5t-38.5 98.5q0 66 42 106.5t113 45.5v37q0 10 10 10h24q10 0 10 -10v-37q70 -6 125 -39q8 -6 2 -14l-30 -46q-6 -8 -14 -3q-40 22 -83 28v-154l8 -1
q152 -21 152 -147q0 -65 -41.5 -108t-118.5 -50v-38q0 -10 -10 -10zM130 381q0 -61 77 -77v150q-36 -3 -56.5 -22.5t-20.5 -50.5zM333 146q0 59 -82 75v-156q39 5 60.5 26t21.5 55z" />
    <glyph glyph-name="percent.sc" horiz-adv-x="671" 
d="M187 -11h-47q-10 0 -4 10l334 521q6 10 15 10h47q11 0 5 -10l-334 -521q-6 -10 -16 -10zM169 254q-37 0 -63.5 17.5t-36.5 46.5q-9 24 -9 72q0 46 9 72q10 28 36.5 45.5t63.5 17.5t63 -17t37 -46q8 -27 8 -72q0 -46 -8 -72q-24 -64 -100 -64zM169 309q32 0 42 29
q4 11 4 52t-4 52q-9 28 -42 28t-42 -28q-5 -13 -5 -52t5 -52q10 -29 42 -29zM504 -6q-37 0 -63.5 17.5t-37.5 46.5q-8 26 -8 72q0 45 8 72q11 28 37.5 45.5t63.5 17.5t63 -17t37 -46q8 -27 8 -72q0 -46 -8 -72q-24 -64 -100 -64zM504 49q33 0 42 29q4 16 4 52t-4 52
q-9 28 -42 28t-42 -28q-5 -13 -5 -52t5 -52q9 -29 42 -29z" />
    <glyph glyph-name="ampersand.sc" horiz-adv-x="558" 
d="M495 -6h-22q-26 0 -43 9.5t-39 35.5l-20 22q-72 -72 -155 -72q-67 0 -105 37.5t-38 97.5q0 43 23 80.5t80 82.5q-39 46 -52 71.5t-13 54.5q0 50 38 83.5t95 33.5q59 0 94.5 -34.5t35.5 -83.5q0 -33 -21 -62.5t-74 -70.5l94 -108l53 63q6 8 14 2l37 -30q8 -6 2 -14
l-59 -74l29 -33q14 -17 34 -17h12q10 0 10 -10v-54q0 -10 -10 -10zM189 413q0 -27 45 -81q38 29 51 46t13 34q0 20 -14.5 34.5t-39.5 14.5q-26 0 -40.5 -13.5t-14.5 -34.5zM221 62q51 0 103 53l-102 119q-42 -32 -57.5 -55t-15.5 -48q0 -30 19 -49.5t53 -19.5z" />
    <glyph glyph-name="zero.sc" horiz-adv-x="453" 
d="M226 -11q-60 0 -102.5 30t-58.5 79q-12 37 -12 162t12 161q16 49 58.5 79t102.5 30q61 0 103.5 -30t58.5 -79q12 -36 12 -161t-12 -162q-16 -49 -58.5 -79t-103.5 -30zM226 64q31 0 52.5 15t29.5 39q9 26 9 142t-9 141q-8 24 -29.5 39t-52.5 15t-52 -15t-29 -39
q-9 -25 -9 -141t9 -142q8 -24 29 -39t52 -15z" />
    <glyph glyph-name="one.sc" horiz-adv-x="453" 
d="M277 0h-63q-10 0 -10 10v414h-2l-92 -57q-12 -6 -12 6v65q0 11 9 16l94 60q7 5 17 5h59q10 0 10 -10v-499q0 -10 -10 -10z" />
    <glyph glyph-name="two.sc" horiz-adv-x="453" 
d="M380 0h-313q-10 0 -10 10v50q0 8 5 13l203 216q41 45 41 88q0 34 -22.5 56t-61.5 22q-36 0 -58.5 -19.5t-27.5 -50.5q-2 -10 -12 -7l-59 13q-10 2 -8 11q7 52 51 90t116 38q76 0 121 -43.5t45 -106.5q0 -40 -14.5 -70t-45.5 -62l-164 -171v-2h214q10 0 10 -10v-55
q0 -10 -10 -10z" />
    <glyph glyph-name="three.sc" horiz-adv-x="453" 
d="M225 -11q-69 0 -115.5 31t-56.5 83q-1 9 8 12l58 15q9 2 12 -7q23 -59 94 -59q42 0 67 23t25 60q0 38 -26.5 61t-71.5 23h-22q-10 0 -10 10v54q0 10 10 10h19q40 0 64.5 20.5t24.5 54.5q0 33 -22.5 54t-61.5 21q-67 0 -83 -58q-3 -8 -13 -7l-57 15q-9 3 -8 12
q10 50 53 81.5t109 31.5q77 0 121.5 -41t44.5 -105q0 -69 -65 -108v-1q32 -12 54.5 -45.5t22.5 -80.5q0 -72 -48.5 -116t-126.5 -44z" />
    <glyph glyph-name="four.sc" horiz-adv-x="453" 
d="M350 0h-62q-10 0 -10 10v66q0 6 -6 6h-224q-10 0 -10 10v46q0 11 6 21l182 352q4 8 14 8h65q11 0 7 -9l-181 -352v-1h141q6 0 6 6v125q0 10 10 10h62q10 0 10 -10v-125q0 -6 6 -6h45q10 0 10 -10v-55q0 -10 -10 -10h-45q-6 0 -6 -6v-66q0 -10 -10 -10z" />
    <glyph glyph-name="five.sc" horiz-adv-x="453" 
d="M232 -11q-65 0 -107 29t-58 77q-2 10 7 13l58 15q11 3 14 -7q22 -52 86 -52t80 49q7 20 7 54q0 33 -6 53q-18 50 -79 50q-56 0 -78 -39q-6 -9 -13 -9h-58q-10 0 -10 10v277q0 10 10 10h296q10 0 10 -10v-54q0 -10 -10 -10h-224q-6 0 -6 -6v-124h3q32 30 90 30
q117 0 148 -94q11 -33 11 -84q0 -46 -11 -79q-16 -47 -58 -73t-102 -26z" />
    <glyph glyph-name="six.sc" horiz-adv-x="453" 
d="M226 -11q-77 0 -128 45.5t-51 120.5q0 62 38 123l145 232q6 9 15 9h66q12 0 6 -10l-126 -200l2 -1q20 8 51 8q71 0 116.5 -43.5t45.5 -117.5q0 -76 -51.5 -121t-128.5 -45zM226 64q43 0 69.5 25.5t26.5 63.5t-26.5 63t-69.5 25t-69 -25t-26 -63t26 -63.5t69 -25.5z" />
    <glyph glyph-name="seven.sc" horiz-adv-x="453" 
d="M190 0h-64q-11 0 -6 11l192 431v3h-160q-6 0 -6 -6v-58q0 -10 -10 -10h-59q-10 0 -10 10v128q0 10 10 10h313q10 0 10 -10v-58q0 -3 -2 -11l-194 -431q-4 -9 -14 -9z" />
    <glyph glyph-name="eight.sc" horiz-adv-x="453" 
d="M226 -11q-80 0 -129.5 44.5t-49.5 113.5q0 43 20 75.5t53 49.5v1q-27 14 -44 42.5t-17 65.5q0 61 45 105t122 44q78 0 123 -44t45 -105q0 -37 -17 -65.5t-44 -42.5v-1q33 -17 53 -49.5t20 -75.5q0 -69 -50 -113.5t-130 -44.5zM226 310q38 0 61 20.5t23 52.5
q0 31 -23 51.5t-61 20.5q-37 0 -60 -20.5t-23 -51.5q0 -32 22.5 -52.5t60.5 -20.5zM226 64q44 0 70 24.5t26 61.5t-26 61t-70 24q-43 0 -69 -24t-26 -61t26 -61.5t69 -24.5z" />
    <glyph glyph-name="nine.sc" horiz-adv-x="453" 
d="M208 0h-66q-12 0 -6 10l125 200l-1 2q-18 -9 -51 -9q-71 0 -116.5 43.5t-45.5 118.5t51 120t128 45q78 0 129 -45t51 -120q0 -64 -38 -123l-145 -232q-6 -10 -15 -10zM226 278q43 0 69.5 25.5t26.5 63.5t-26.5 63t-69.5 25t-69 -25t-26 -63t26 -63.5t69 -25.5z" />
    <glyph glyph-name="question.sc" horiz-adv-x="402" 
d="M228 162h-65q-10 0 -10 10v25q0 40 28 68l49 49q40 40 40 77q0 27 -19 44t-51 17q-63 0 -76 -61q-2 -10 -12 -8l-62 10q-10 2 -8 11q10 57 51 91.5t110 34.5q68 0 110.5 -37.5t42.5 -95.5q0 -63 -51 -115l-46 -47q-21 -21 -21 -50v-13q0 -10 -10 -10zM232 0h-76
q-10 0 -10 10v86q0 10 10 10h76q10 0 10 -10v-86q0 -10 -10 -10z" />
    <glyph glyph-name="a.sc" horiz-adv-x="528" 
d="M493 0h-64q-9 0 -13 10l-39 102h-226l-39 -102q-4 -10 -13 -10h-64q-11 0 -8 10l194 499q3 10 13 10h62q10 0 13 -10l192 -499q3 -10 -8 -10zM264 405l-84 -218h169l-82 218h-3z" />
    <glyph glyph-name="b.sc" horiz-adv-x="533" 
d="M293 0h-200q-10 0 -10 10v499q0 10 10 10h213q79 0 122 -37.5t43 -99.5q0 -82 -71 -111v-2q32 -11 56.5 -42t24.5 -78q0 -73 -48 -111t-140 -38zM301 301q41 0 63.5 19t22.5 52t-22.5 52.5t-63.5 19.5h-128q-6 0 -6 -6v-131q0 -6 6 -6h128zM305 76q45 0 68.5 19.5
t23.5 55.5q0 35 -24 55t-68 20h-132q-6 0 -6 -6v-138q0 -6 6 -6h132z" />
    <glyph glyph-name="c.sc" horiz-adv-x="489" 
d="M264 -11q-72 0 -123 35.5t-72 99.5q-15 48 -15 136t15 135q21 65 72 100t123 35q59 0 106.5 -27.5t73.5 -81.5q5 -10 -4 -14l-55 -27q-9 -4 -14 4q-36 68 -107 68q-87 0 -112 -79q-12 -36 -12 -113q0 -78 12 -114q25 -79 112 -79q72 2 107 68q6 9 14 5l55 -27
q10 -5 4 -14q-52 -110 -180 -110z" />
    <glyph glyph-name="d.sc" horiz-adv-x="548" 
d="M288 0h-195q-10 0 -10 10v499q0 10 10 10h195q149 0 187 -115q14 -47 14 -144q0 -98 -14 -144q-38 -116 -187 -116zM267 78q52 0 82.5 16t43.5 54q10 27 10 112t-10 111q-24 71 -126 71h-94q-6 0 -6 -6v-352q0 -6 6 -6h94z" />
    <glyph glyph-name="e.sc" horiz-adv-x="503" 
d="M438 0h-345q-10 0 -10 10v499q0 10 10 10h345q10 0 10 -10v-57q0 -10 -10 -10h-265q-6 0 -6 -6v-128q0 -6 6 -6h224q10 0 10 -10v-58q0 -10 -10 -10h-224q-6 0 -6 -6v-134q0 -6 6 -6h265q10 0 10 -10v-58q0 -10 -10 -10z" />
    <glyph glyph-name="f.sc" horiz-adv-x="494" 
d="M157 0h-64q-10 0 -10 10v499q0 10 10 10h345q10 0 10 -10v-57q0 -10 -10 -10h-265q-6 0 -6 -6v-134q0 -6 6 -6h224q10 0 10 -10v-58q0 -10 -10 -10h-224q-6 0 -6 -6v-202q0 -10 -10 -10z" />
    <glyph glyph-name="g.sc" horiz-adv-x="531" 
d="M265 -11q-72 0 -123.5 35.5t-72.5 100.5q-15 47 -15 135t15 135q21 65 72.5 100t123.5 35q133 0 190 -109q5 -9 -5 -14l-54 -27q-9 -3 -14 5q-39 67 -117 67q-88 0 -113 -79q-12 -36 -12 -113q0 -76 12 -114q12 -39 42.5 -59t71.5 -20q92 0 117 79q9 23 9 56q0 6 -6 6
h-100q-9 0 -9 9v55q0 9 9 9h182q9 0 9 -9v-19q0 -83 -15 -129q-21 -65 -72.5 -100t-124.5 -35z" />
    <glyph glyph-name="h.sc" horiz-adv-x="579" 
d="M486 0h-64q-10 0 -10 10v207q0 6 -6 6h-233q-6 0 -6 -6v-207q0 -10 -10 -10h-64q-10 0 -10 10v499q0 10 10 10h64q10 0 10 -10v-202q0 -6 6 -6h233q6 0 6 6v202q0 10 10 10h64q10 0 10 -10v-499q0 -10 -10 -10z" />
    <glyph glyph-name="i.sc" horiz-adv-x="251" 
d="M157 0h-64q-10 0 -10 10v499q0 10 10 10h64q10 0 10 -10v-499q0 -10 -10 -10z" />
    <glyph glyph-name="j.sc" horiz-adv-x="438" 
d="M178 -9q-96 0 -147 63q-5 7 2 13l49 37q8 5 15 -2q34 -34 82 -34q95 0 95 106v335q0 10 10 10h64q10 0 10 -10v-335q0 -88 -47 -135.5t-133 -47.5z" />
    <glyph glyph-name="k.sc" horiz-adv-x="549" 
d="M507 0h-76q-10 0 -15 9l-154 245l-95 -105v-139q0 -10 -10 -10h-64q-10 0 -10 10v499q0 10 10 10h64q10 0 10 -10v-257l227 259q7 8 16 8h77q5 0 6.5 -3.5t-1.5 -8.5l-174 -191l195 -305q7 -11 -6 -11z" />
    <glyph glyph-name="l.sc" horiz-adv-x="471" 
d="M423 0h-330q-10 0 -10 10v499q0 10 10 10h64q10 0 10 -10v-425q0 -6 6 -6h250q10 0 10 -10v-58q0 -10 -10 -10z" />
    <glyph glyph-name="m.sc" horiz-adv-x="664" 
d="M571 0h-58q-10 0 -10 10v328h-4l-130 -254q-5 -12 -18 -12h-38q-13 0 -18 12l-130 254h-4v-328q0 -10 -10 -10h-58q-10 0 -10 10v499q0 10 10 10h60q12 0 16 -10l163 -327h4l160 327q4 10 16 10h59q10 0 10 -10v-499q0 -10 -10 -10z" />
    <glyph glyph-name="n.sc" horiz-adv-x="581" 
d="M488 0h-61q-9 0 -16 10l-247 363h-3v-363q0 -10 -10 -10h-58q-10 0 -10 10v499q0 10 10 10h60q12 0 17 -10l246 -363h4v363q0 10 10 10h58q10 0 10 -10v-499q0 -10 -10 -10z" />
    <glyph glyph-name="o.sc" horiz-adv-x="531" 
d="M265 -11q-72 0 -123.5 35.5t-72.5 100.5q-15 47 -15 135t15 135q21 64 72.5 99.5t123.5 35.5q73 0 124.5 -35.5t72.5 -99.5q15 -47 15 -135t-15 -135q-21 -65 -72.5 -100.5t-124.5 -35.5zM265 67q88 0 115 79q11 34 11 114t-11 113q-27 79 -115 79q-41 0 -71.5 -20
t-42.5 -59q-11 -33 -11 -113t11 -114q12 -39 42.5 -59t71.5 -20z" />
    <glyph glyph-name="p.sc" horiz-adv-x="524" 
d="M157 0h-64q-10 0 -10 10v499q0 10 10 10h208q86 0 135.5 -43.5t49.5 -115.5q0 -71 -49.5 -115t-135.5 -44h-128q-6 0 -6 -6v-185q0 -10 -10 -10zM299 278q49 0 75.5 21.5t26.5 60.5t-26.5 60.5t-75.5 21.5h-126q-6 0 -6 -6v-152q0 -6 6 -6h126z" />
    <glyph glyph-name="q.sc" horiz-adv-x="531" 
d="M438 -32l-54 53q-50 -32 -119 -32q-72 0 -123.5 35.5t-72.5 100.5q-15 47 -15 135t15 135q21 64 72.5 99.5t123.5 35.5q73 0 124.5 -35.5t72.5 -99.5q15 -47 15 -135t-15 -135q-10 -28 -26 -54l51 -49q7 -8 0 -15l-35 -38q-7 -8 -14 -1zM265 66q34 0 60 13l-47 46
q-7 6 -1 14l35 39q8 8 14 0l49 -48q4 6 7 16q11 34 11 114t-11 113q-27 80 -117 80q-42 0 -73 -20.5t-43 -59.5q-11 -33 -11 -113t11 -114q12 -39 43 -59.5t73 -20.5z" />
    <glyph glyph-name="r.sc" horiz-adv-x="547" 
d="M486 0h-75q-8 0 -14 10l-108 200h-116q-6 0 -6 -6v-194q0 -10 -10 -10h-64q-10 0 -10 10v499q0 10 10 10h213q82 0 129.5 -42.5t47.5 -112.5q0 -52 -28 -89.5t-78 -54.5l116 -208q2 -4 0 -8t-7 -4zM303 288q46 0 70.5 20t24.5 56q0 37 -24.5 57.5t-70.5 20.5h-130
q-6 0 -6 -6v-142q0 -6 6 -6h130z" />
    <glyph glyph-name="s.sc" horiz-adv-x="499" 
d="M244 -11q-59 0 -114.5 19.5t-88.5 48.5q-7 7 -1 14l41 48q6 7 14 1q70 -53 156 -53q55 0 86 21.5t31 56.5q0 31 -25 49.5t-86 26.5l-31 4q-168 21 -168 150q0 71 50.5 113t137.5 42q106 0 176 -50q8 -6 3 -14l-32 -50q-6 -7 -14 -2q-67 38 -136 38q-47 0 -73 -20t-26 -53
q0 -60 112 -75l30 -4q168 -22 168 -149q0 -72 -54.5 -117t-155.5 -45z" />
    <glyph glyph-name="t.sc" horiz-adv-x="460" 
d="M262 0h-64q-10 0 -10 10v426q0 6 -6 6h-150q-10 0 -10 10v57q0 10 10 10h396q10 0 10 -10v-57q0 -10 -10 -10h-150q-6 0 -6 -6v-426q0 -10 -10 -10z" />
    <glyph glyph-name="u.sc" horiz-adv-x="562" 
d="M281 -11q-94 0 -149.5 54t-55.5 151v315q0 10 10 10h64q10 0 10 -10v-314q0 -62 32.5 -95t88.5 -33t88.5 33t32.5 95v314q0 10 10 10h64q10 0 10 -10v-315q0 -97 -55.5 -151t-149.5 -54z" />
    <glyph glyph-name="v.sc" horiz-adv-x="486" 
d="M272 0h-57q-7 0 -11 9l-181 499q-5 11 7 11h65q11 0 13 -10l137 -373h2l132 373q3 10 13 10h64q12 0 7 -11l-180 -499q-4 -9 -11 -9z" />
    <glyph glyph-name="w.sc" horiz-adv-x="708" 
d="M534 0h-51q-9 0 -12 10l-116 361h-2l-116 -361q-3 -10 -12 -10h-51q-9 0 -12 10l-138 498q-3 11 9 11h60q11 0 13 -10l97 -355h2l114 355q3 10 11 10h49q8 0 11 -10l116 -355h2l94 355q2 10 13 10h61q13 0 8 -11l-138 -498q-3 -10 -12 -10z" />
    <glyph glyph-name="x.sc" horiz-adv-x="483" 
d="M454 0h-74q-10 0 -15 9l-123 180h-1l-123 -180q-6 -9 -15 -9h-73q-5 0 -7 4t1 8l170 258l-156 237q-5 12 6 12h73q8 0 15 -8l109 -160h1l110 160q5 8 15 8h72q11 0 6 -12l-155 -237l169 -258q3 -4 1.5 -8t-6.5 -4z" />
    <glyph glyph-name="y.sc" horiz-adv-x="452" 
d="M258 0h-64q-10 0 -10 10v202l-162 295q-3 5 -1 8.5t8 3.5h66q10 0 15 -10l117 -203h2l116 203q5 10 15 10h63q6 0 8 -3.5t-1 -8.5l-162 -295v-202q0 -10 -10 -10z" />
    <glyph glyph-name="z.sc" horiz-adv-x="463" 
d="M404 0h-347q-10 0 -10 10v58q0 6 4 11l267 361v2h-247q-10 0 -10 10v57q0 10 10 10h333q10 0 10 -10v-57q0 -6 -3 -11l-263 -362v-1h256q10 0 10 -10v-58q0 -10 -10 -10z" />
    <glyph glyph-name="agrave.sc" horiz-adv-x="528" 
d="M286 597h-47q-11 0 -19 10l-92 123q-3 4 -1.5 7t6.5 3h66q12 0 18 -10l75 -123q5 -10 -6 -10zM493 0h-64q-9 0 -13 10l-39 102h-226l-39 -102q-4 -10 -13 -10h-64q-11 0 -8 10l194 499q3 10 13 10h62q10 0 13 -10l192 -499q3 -10 -8 -10zM264 405l-84 -218h169l-82 218
h-3z" />
    <glyph glyph-name="aacute.sc" horiz-adv-x="528" 
d="M493 0h-64q-9 0 -13 10l-39 102h-226l-39 -102q-4 -10 -13 -10h-64q-11 0 -8 10l194 499q3 10 13 10h62q10 0 13 -10l192 -499q3 -10 -8 -10zM264 405l-84 -218h169l-82 218h-3zM291 597h-47q-11 0 -6 10l76 123q6 10 17 10h66q5 0 6.5 -3t-1.5 -7l-92 -123
q-8 -10 -19 -10z" />
    <glyph glyph-name="acircumflex.sc" horiz-adv-x="528" 
d="M493 0h-64q-9 0 -13 10l-39 102h-226l-39 -102q-4 -10 -13 -10h-64q-11 0 -8 10l194 499q3 10 13 10h62q10 0 13 -10l192 -499q3 -10 -8 -10zM264 405l-84 -218h169l-82 218h-3zM392 597h-45q-10 0 -19 10l-63 70h-2l-64 -70q-9 -10 -19 -10h-45q-5 0 -6 3t2 7l95 123
q7 10 16 10h43q9 0 16 -10l95 -123q3 -4 1.5 -7t-5.5 -3z" />
    <glyph glyph-name="atilde.sc" horiz-adv-x="528" 
d="M319 615q-25 0 -63 20q-29 18 -53 18q-29 0 -63 -32q-3 -3 -5.5 -2t-2.5 5v48q0 10 7 17q30 32 68 32q27 0 63 -20q29 -18 53 -18q29 0 63 32q3 3 5.5 2t2.5 -4v-49q0 -9 -7 -17q-30 -32 -68 -32zM493 0h-64q-9 0 -13 10l-39 102h-226l-39 -102q-4 -10 -13 -10h-64
q-11 0 -8 10l194 499q3 10 13 10h62q10 0 13 -10l192 -499q3 -10 -8 -10zM264 405l-84 -218h169l-82 218h-3z" />
    <glyph glyph-name="adieresis.sc" horiz-adv-x="528" 
d="M493 0h-64q-9 0 -13 10l-39 102h-226l-39 -102q-4 -10 -13 -10h-64q-11 0 -8 10l194 499q3 10 13 10h62q10 0 13 -10l192 -499q3 -10 -8 -10zM264 405l-84 -218h169l-82 218h-3zM391 627h-59q-10 0 -10 10v73q0 10 10 10h59q10 0 10 -10v-73q0 -10 -10 -10zM194 627h-59
q-10 0 -10 10v73q0 10 10 10h59q10 0 10 -10v-73q0 -10 -10 -10z" />
    <glyph glyph-name="amacron.sc" horiz-adv-x="528" 
d="M493 0h-64q-9 0 -13 10l-39 102h-226l-39 -102q-4 -10 -13 -10h-64q-11 0 -8 10l194 499q3 10 13 10h62q10 0 13 -10l192 -499q3 -10 -8 -10zM264 405l-84 -218h169l-82 218h-3zM391 641h-255q-10 0 -10 10v45q0 10 10 10h255q10 0 10 -10v-45q0 -10 -10 -10z" />
    <glyph glyph-name="abreve.sc" horiz-adv-x="528" 
d="M264 601q-58 0 -94.5 31.5t-41.5 81.5q0 10 9 10h36q8 0 11 -10q17 -52 80 -52q64 0 79 52q3 10 12 10h35q9 0 9 -10q-5 -50 -41.5 -81.5t-93.5 -31.5zM493 0h-64q-9 0 -13 10l-39 102h-226l-39 -102q-4 -10 -13 -10h-64q-11 0 -8 10l194 499q3 10 13 10h62q10 0 13 -10
l192 -499q3 -10 -8 -10zM264 405l-84 -218h169l-82 218h-3z" />
    <glyph glyph-name="aring.sc" horiz-adv-x="528" 
d="M264 574q-40 0 -67 27t-27 68t27 68t67 27t67 -27.5t27 -67.5t-27 -67.5t-67 -27.5zM264 616q22 0 36.5 15t14.5 38t-14.5 38t-36.5 15t-37 -15t-15 -38t15 -38t37 -15zM493 0h-64q-9 0 -13 10l-39 102h-226l-39 -102q-4 -10 -13 -10h-64q-11 0 -8 10l194 499q3 10 13 10
h62q10 0 13 -10l192 -499q3 -10 -8 -10zM264 405l-84 -218h169l-82 218h-3z" />
    <glyph glyph-name="aringacute.sc" horiz-adv-x="528" 
d="M291 712h-50q-5 0 -6 3t2 7l86 106q8 10 19 10h69q5 0 7 -3t-2 -7l-107 -107q-8 -9 -18 -9zM493 0h-64q-9 0 -13 10l-40 102h-224l-40 -102q-4 -10 -13 -10h-64q-11 0 -8 10l187 481q-44 26 -44 81q0 41 27 68t67 27t67 -27t27 -68q0 -54 -43 -80l186 -482q3 -10 -8 -10z
M264 519q22 0 37 15t15 38t-14.5 38t-37.5 15q-22 0 -36.5 -15t-14.5 -38q0 -22 14.5 -37.5t36.5 -15.5zM263 401l-82 -214h166l-81 214h-3z" />
    <glyph glyph-name="aogonek.sc" horiz-adv-x="529" 
d="M426 -182q-38 0 -60.5 20.5t-22.5 58.5q0 56 75 108l-41 107h-226l-39 -102q-4 -10 -13 -10h-64q-11 0 -8 10l194 499q3 10 13 10h63q9 0 12 -10l192 -499q3 -6 -5 -11q-83 -51 -83 -88q0 -27 27 -27q10 0 26 8q10 5 14 -4l17 -35q4 -7 -4 -14q-30 -21 -67 -21zM349 187
l-82 218h-3l-84 -218h169z" />
    <glyph glyph-name="ae.sc" horiz-adv-x="789" 
d="M724 0h-345q-10 0 -10 10v96q0 6 -6 6h-187l-58 -102q-6 -10 -15 -10h-69q-12 0 -6 10l290 500q5 9 17 9h389q10 0 10 -10v-57q0 -10 -10 -10h-264q-6 0 -6 -6v-128q0 -6 6 -6h223q10 0 10 -10v-58q0 -10 -10 -10h-223q-6 0 -6 -6v-134q0 -6 6 -6h264q10 0 10 -10v-58
q0 -10 -10 -10zM366 442l-147 -255h144q6 0 6 6v249h-3z" />
    <glyph glyph-name="aeacute.sc" horiz-adv-x="789" 
d="M724 0h-345q-10 0 -10 10v96q0 6 -6 6h-187l-58 -102q-6 -10 -15 -10h-69q-12 0 -6 10l290 500q5 9 17 9h389q10 0 10 -10v-57q0 -10 -10 -10h-264q-6 0 -6 -6v-128q0 -6 6 -6h223q10 0 10 -10v-58q0 -10 -10 -10h-223q-6 0 -6 -6v-134q0 -6 6 -6h264q10 0 10 -10v-58
q0 -10 -10 -10zM366 442l-147 -255h144q6 0 6 6v249h-3zM430 597h-47q-11 0 -6 10l76 123q6 10 17 10h66q5 0 6.5 -3t-1.5 -7l-92 -123q-7 -10 -19 -10z" />
    <glyph glyph-name="cacute.sc" horiz-adv-x="489" 
d="M263 597h-47q-11 0 -6 10l76 123q6 10 17 10h66q5 0 6.5 -3t-1.5 -7l-92 -123q-8 -10 -19 -10zM264 -11q-72 0 -123 35.5t-72 99.5q-15 48 -15 136t15 135q21 65 72 100t123 35q59 0 106.5 -27.5t73.5 -81.5q5 -10 -4 -14l-55 -27q-9 -4 -14 4q-36 68 -107 68
q-87 0 -112 -79q-12 -36 -12 -113q0 -78 12 -114q25 -79 112 -79q72 2 107 68q6 9 14 5l55 -27q10 -5 4 -14q-52 -110 -180 -110z" />
    <glyph glyph-name="ccircumflex.sc" horiz-adv-x="489" 
d="M264 -11q-72 0 -123 35.5t-72 99.5q-15 48 -15 136t15 135q21 65 72 100t123 35q59 0 106.5 -27.5t73.5 -81.5q5 -10 -4 -14l-55 -27q-9 -4 -14 4q-36 68 -107 68q-87 0 -112 -79q-12 -36 -12 -113q0 -78 12 -114q25 -79 112 -79q72 2 107 68q6 9 14 5l55 -27
q10 -5 4 -14q-52 -110 -180 -110zM389 597h-45q-10 0 -19 10l-63 70h-2l-64 -70q-9 -10 -19 -10h-45q-4 0 -5.5 3t1.5 7l95 123q7 10 16 10h43q9 0 16 -10l95 -123q3 -4 2 -7t-6 -3z" />
    <glyph glyph-name="ccaron.sc" horiz-adv-x="489" 
d="M280 597h-43q-10 0 -16 9l-95 124q-3 4 -1.5 7t5.5 3h45q10 0 19 -10l64 -71h2l63 71q9 10 19 10h45q5 0 6 -3t-2 -7l-95 -124q-6 -9 -16 -9zM264 -11q-72 0 -123 35.5t-72 99.5q-15 48 -15 136t15 135q21 65 72 100t123 35q59 0 106.5 -27.5t73.5 -81.5q5 -10 -4 -14
l-55 -27q-9 -4 -14 4q-36 68 -107 68q-87 0 -112 -79q-12 -36 -12 -113q0 -78 12 -114q25 -79 112 -79q72 2 107 68q6 9 14 5l55 -27q10 -5 4 -14q-52 -110 -180 -110z" />
    <glyph glyph-name="cdotaccent.sc" horiz-adv-x="489" 
d="M295 627h-69q-10 0 -10 10v73q0 10 10 10h69q10 0 10 -10v-73q0 -10 -10 -10zM264 -11q-72 0 -123 35.5t-72 99.5q-15 48 -15 136t15 135q21 65 72 100t123 35q59 0 106.5 -27.5t73.5 -81.5q5 -10 -4 -14l-55 -27q-9 -4 -14 4q-36 68 -107 68q-87 0 -112 -79
q-12 -36 -12 -113q0 -78 12 -114q25 -79 112 -79q72 2 107 68q6 9 14 5l55 -27q10 -5 4 -14q-52 -110 -180 -110z" />
    <glyph glyph-name="ccedilla.sc" horiz-adv-x="489" 
d="M232 -152h-55q-10 0 -7 10l54 135q-118 17 -155 131q-15 48 -15 136t15 135q21 65 72 100t123 35q59 0 106.5 -27.5t73.5 -81.5q5 -10 -4 -14l-55 -27q-9 -4 -14 4q-36 68 -107 68q-87 0 -112 -79q-12 -36 -12 -113q0 -78 12 -114q25 -79 112 -79q72 2 107 68q6 9 14 5
l55 -27q10 -5 4 -14q-46 -96 -153 -108l-43 -133q-3 -10 -16 -10z" />
    <glyph glyph-name="dcaron.sc" horiz-adv-x="548" 
d="M288 0h-195q-10 0 -10 10v499q0 10 10 10h195q149 0 187 -115q14 -47 14 -144q0 -98 -14 -144q-38 -116 -187 -116zM267 78q52 0 82.5 16t43.5 54q10 27 10 112t-10 111q-24 71 -126 71h-94q-6 0 -6 -6v-352q0 -6 6 -6h94zM285 597h-43q-10 0 -16 9l-95 124q-3 4 -2 7
t6 3h45q10 0 19 -10l64 -71h2l63 71q9 10 19 10h45q4 0 5.5 -3t-1.5 -7l-95 -124q-6 -9 -16 -9z" />
    <glyph glyph-name="dcroat.sc" horiz-adv-x="548" 
d="M288 0h-195q-10 0 -10 10v211q0 6 -6 6h-30q-10 0 -10 10v52q0 10 10 10h30q6 0 6 6v204q0 10 10 10h195q149 0 187 -115q14 -47 14 -144q0 -98 -14 -144q-38 -116 -187 -116zM267 78q52 0 82.5 16t43.5 54q10 27 10 112t-10 111q-24 71 -126 71h-94q-6 0 -6 -6v-131
q0 -6 6 -6h82q10 0 10 -10v-52q0 -10 -10 -10h-82q-6 0 -6 -6v-137q0 -6 6 -6h94z" />
    <glyph glyph-name="eth.sc" horiz-adv-x="548" 
d="M288 0h-195q-10 0 -10 10v211q0 6 -6 6h-30q-10 0 -10 10v52q0 10 10 10h30q6 0 6 6v204q0 10 10 10h195q149 0 187 -115q14 -47 14 -144q0 -98 -14 -144q-38 -116 -187 -116zM267 78q52 0 82.5 16t43.5 54q10 27 10 112t-10 111q-24 71 -126 71h-94q-6 0 -6 -6v-131
q0 -6 6 -6h82q10 0 10 -10v-52q0 -10 -10 -10h-82q-6 0 -6 -6v-137q0 -6 6 -6h94z" />
    <glyph glyph-name="egrave.sc" horiz-adv-x="503" 
d="M306 597h-47q-11 0 -19 10l-92 123q-3 4 -1.5 7t6.5 3h66q12 0 18 -10l75 -123q5 -10 -6 -10zM438 0h-345q-10 0 -10 10v499q0 10 10 10h345q10 0 10 -10v-57q0 -10 -10 -10h-265q-6 0 -6 -6v-128q0 -6 6 -6h224q10 0 10 -10v-58q0 -10 -10 -10h-224q-6 0 -6 -6v-134
q0 -6 6 -6h265q10 0 10 -10v-58q0 -10 -10 -10z" />
    <glyph glyph-name="eacute.sc" horiz-adv-x="503" 
d="M263 597h-47q-11 0 -6 10l76 123q6 10 17 10h66q5 0 6.5 -3t-1.5 -7l-92 -123q-8 -10 -19 -10zM438 0h-345q-10 0 -10 10v499q0 10 10 10h345q10 0 10 -10v-57q0 -10 -10 -10h-265q-6 0 -6 -6v-128q0 -6 6 -6h224q10 0 10 -10v-58q0 -10 -10 -10h-224q-6 0 -6 -6v-134
q0 -6 6 -6h265q10 0 10 -10v-58q0 -10 -10 -10z" />
    <glyph glyph-name="ecircumflex.sc" horiz-adv-x="503" 
d="M438 0h-345q-10 0 -10 10v499q0 10 10 10h345q10 0 10 -10v-57q0 -10 -10 -10h-265q-6 0 -6 -6v-128q0 -6 6 -6h224q10 0 10 -10v-58q0 -10 -10 -10h-224q-6 0 -6 -6v-134q0 -6 6 -6h265q10 0 10 -10v-58q0 -10 -10 -10zM393 597h-45q-10 0 -19 10l-63 70h-2l-64 -70
q-9 -10 -19 -10h-45q-4 0 -5.5 3t1.5 7l95 123q7 10 16 10h43q9 0 16 -10l95 -123q3 -4 2 -7t-6 -3z" />
    <glyph glyph-name="ecaron.sc" horiz-adv-x="503" 
d="M286 597h-43q-10 0 -16 9l-95 124q-3 4 -1.5 7t5.5 3h45q10 0 19 -10l64 -71h2l63 71q9 10 19 10h45q5 0 6 -3t-2 -7l-95 -124q-6 -9 -16 -9zM438 0h-345q-10 0 -10 10v499q0 10 10 10h345q10 0 10 -10v-57q0 -10 -10 -10h-265q-6 0 -6 -6v-128q0 -6 6 -6h224
q10 0 10 -10v-58q0 -10 -10 -10h-224q-6 0 -6 -6v-134q0 -6 6 -6h265q10 0 10 -10v-58q0 -10 -10 -10z" />
    <glyph glyph-name="edieresis.sc" horiz-adv-x="503" 
d="M392 627h-59q-10 0 -10 10v73q0 10 10 10h59q10 0 10 -10v-73q0 -10 -10 -10zM195 627h-59q-10 0 -10 10v73q0 10 10 10h59q10 0 10 -10v-73q0 -10 -10 -10zM438 0h-345q-10 0 -10 10v499q0 10 10 10h345q10 0 10 -10v-57q0 -10 -10 -10h-265q-6 0 -6 -6v-128q0 -6 6 -6
h224q10 0 10 -10v-58q0 -10 -10 -10h-224q-6 0 -6 -6v-134q0 -6 6 -6h265q10 0 10 -10v-58q0 -10 -10 -10z" />
    <glyph glyph-name="emacron.sc" horiz-adv-x="503" 
d="M391 641h-255q-10 0 -10 10v45q0 10 10 10h255q10 0 10 -10v-45q0 -10 -10 -10zM438 0h-345q-10 0 -10 10v499q0 10 10 10h345q10 0 10 -10v-57q0 -10 -10 -10h-265q-6 0 -6 -6v-128q0 -6 6 -6h224q10 0 10 -10v-58q0 -10 -10 -10h-224q-6 0 -6 -6v-134q0 -6 6 -6h265
q10 0 10 -10v-58q0 -10 -10 -10z" />
    <glyph glyph-name="ebreve.sc" horiz-adv-x="503" 
d="M264 601q-58 0 -94.5 31.5t-41.5 81.5q0 10 9 10h36q8 0 11 -10q17 -52 80 -52q64 0 79 52q3 10 12 10h35q9 0 9 -10q-5 -50 -41.5 -81.5t-93.5 -31.5zM438 0h-345q-10 0 -10 10v499q0 10 10 10h345q10 0 10 -10v-57q0 -10 -10 -10h-265q-6 0 -6 -6v-128q0 -6 6 -6h224
q10 0 10 -10v-58q0 -10 -10 -10h-224q-6 0 -6 -6v-134q0 -6 6 -6h265q10 0 10 -10v-58q0 -10 -10 -10z" />
    <glyph glyph-name="edotaccent.sc" horiz-adv-x="503" 
d="M297 627h-69q-10 0 -10 10v73q0 10 10 10h69q10 0 10 -10v-73q0 -10 -10 -10zM438 0h-345q-10 0 -10 10v499q0 10 10 10h345q10 0 10 -10v-57q0 -10 -10 -10h-265q-6 0 -6 -6v-128q0 -6 6 -6h224q10 0 10 -10v-58q0 -10 -10 -10h-224q-6 0 -6 -6v-134q0 -6 6 -6h265
q10 0 10 -10v-58q0 -10 -10 -10z" />
    <glyph glyph-name="eogonek.sc" horiz-adv-x="503" 
d="M359 -182q-38 0 -61 20.5t-23 58.5q0 54 69 103h-251q-10 0 -10 10v499q0 10 10 10h345q10 0 10 -10v-57q0 -10 -10 -10h-265q-6 0 -6 -6v-128q0 -6 6 -6h224q10 0 10 -10v-58q0 -10 -10 -10h-224q-6 0 -6 -6v-134q0 -6 6 -6h265q10 0 10 -10v-58q0 -10 -10 -10h-9
q-83 -54 -83 -89q0 -27 26 -27q11 0 27 8q9 4 13 -4l17 -35q5 -8 -3 -14q-30 -21 -67 -21z" />
    <glyph glyph-name="gcircumflex.sc" horiz-adv-x="531" 
d="M265 -11q-72 0 -123.5 35.5t-72.5 100.5q-15 47 -15 135t15 135q21 65 72.5 100t123.5 35q133 0 190 -109q5 -9 -5 -14l-54 -27q-9 -3 -14 5q-39 67 -117 67q-88 0 -113 -79q-12 -36 -12 -113q0 -76 12 -114q12 -39 42.5 -59t71.5 -20q92 0 117 79q9 23 9 56q0 6 -6 6
h-100q-9 0 -9 9v55q0 9 9 9h182q9 0 9 -9v-19q0 -83 -15 -129q-21 -65 -72.5 -100t-124.5 -35zM393 597h-45q-10 0 -19 10l-63 70h-2l-64 -70q-9 -10 -19 -10h-45q-4 0 -5.5 3t1.5 7l95 123q7 10 16 10h43q9 0 16 -10l95 -123q3 -4 2 -7t-6 -3z" />
    <glyph glyph-name="gbreve.sc" horiz-adv-x="531" 
d="M265 -11q-72 0 -123.5 35.5t-72.5 100.5q-15 47 -15 135t15 135q21 65 72.5 100t123.5 35q133 0 190 -109q5 -9 -5 -14l-54 -27q-9 -3 -14 5q-39 67 -117 67q-88 0 -113 -79q-12 -36 -12 -113q0 -76 12 -114q12 -39 42.5 -59t71.5 -20q92 0 117 79q9 23 9 56q0 6 -6 6
h-100q-9 0 -9 9v55q0 9 9 9h182q9 0 9 -9v-19q0 -83 -15 -129q-21 -65 -72.5 -100t-124.5 -35zM265 601q-58 0 -94.5 31.5t-41.5 81.5q0 10 9 10h36q8 0 11 -10q17 -52 80 -52q64 0 79 52q3 10 12 10h35q9 0 9 -10q-5 -50 -41.5 -81.5t-93.5 -31.5z" />
    <glyph glyph-name="gdotaccent.sc" horiz-adv-x="531" 
d="M265 -11q-72 0 -123.5 35.5t-72.5 100.5q-15 47 -15 135t15 135q21 65 72.5 100t123.5 35q133 0 190 -109q5 -9 -5 -14l-54 -27q-9 -3 -14 5q-39 67 -117 67q-88 0 -113 -79q-12 -36 -12 -113q0 -76 12 -114q12 -39 42.5 -59t71.5 -20q92 0 117 79q9 23 9 56q0 6 -6 6
h-100q-9 0 -9 9v55q0 9 9 9h182q9 0 9 -9v-19q0 -83 -15 -129q-21 -65 -72.5 -100t-124.5 -35zM299 627h-69q-10 0 -10 10v73q0 10 10 10h69q10 0 10 -10v-73q0 -10 -10 -10z" />
    <glyph glyph-name="gcommaaccent.sc" horiz-adv-x="531" 
d="M234 -213q-9 0 -9 10v140q0 10 10 10h60q10 0 10 -10v-61q0 -12 -6 -20l-51 -61q-5 -8 -14 -8zM265 -11q-72 0 -123.5 35.5t-72.5 100.5q-15 47 -15 135t15 135q21 65 72.5 100t123.5 35q133 0 190 -109q5 -9 -5 -14l-54 -27q-9 -3 -14 5q-39 67 -117 67q-88 0 -113 -79
q-12 -36 -12 -113q0 -76 12 -114q12 -39 42.5 -59t71.5 -20q92 0 117 79q9 23 9 56q0 6 -6 6h-100q-9 0 -9 9v55q0 9 9 9h182q9 0 9 -9v-19q0 -83 -15 -129q-21 -65 -72.5 -100t-124.5 -35z" />
    <glyph glyph-name="hcircumflex.sc" horiz-adv-x="579" 
d="M486 0h-64q-10 0 -10 10v207q0 6 -6 6h-233q-6 0 -6 -6v-207q0 -10 -10 -10h-64q-10 0 -10 10v499q0 10 10 10h64q10 0 10 -10v-202q0 -6 6 -6h233q6 0 6 6v202q0 10 10 10h64q10 0 10 -10v-499q0 -10 -10 -10zM417 597h-45q-10 0 -19 10l-63 70h-2l-64 -70
q-9 -10 -19 -10h-45q-4 0 -5.5 3t1.5 7l95 123q7 10 16 10h43q9 0 16 -10l95 -123q3 -4 2 -7t-6 -3z" />
    <glyph glyph-name="hbar.sc" horiz-adv-x="579" 
d="M486 0h-64q-10 0 -10 10v207q0 6 -6 6h-233q-6 0 -6 -6v-207q0 -10 -10 -10h-64q-10 0 -10 10v361q0 6 -6 6h-23q-10 0 -10 10v43q0 10 10 10h23q6 0 6 6v63q0 10 10 10h64q10 0 10 -10v-63q0 -6 6 -6h233q6 0 6 6v63q0 10 10 10h64q10 0 10 -10v-63q0 -6 6 -6h23
q10 0 10 -10v-43q0 -10 -10 -10h-23q-6 0 -6 -6v-361q0 -10 -10 -10zM406 301q6 0 6 6v64q0 6 -6 6h-233q-6 0 -6 -6v-64q0 -6 6 -6h233z" />
    <glyph glyph-name="igrave.sc" horiz-adv-x="251" 
d="M150 597h-47q-11 0 -19 10l-92 123q-3 4 -1.5 7t6.5 3h66q12 0 18 -10l75 -123q5 -10 -6 -10zM157 0h-64q-10 0 -10 10v499q0 10 10 10h64q10 0 10 -10v-499q0 -10 -10 -10z" />
    <glyph glyph-name="iacute.sc" horiz-adv-x="251" 
d="M157 0h-64q-10 0 -10 10v499q0 10 10 10h64q10 0 10 -10v-499q0 -10 -10 -10zM148 597h-47q-11 0 -6 10l76 123q6 10 17 10h66q5 0 6.5 -3t-1.5 -7l-92 -123q-7 -10 -19 -10z" />
    <glyph glyph-name="ibreve.sc" horiz-adv-x="251" 
d="M126 601q-58 0 -94.5 31.5t-41.5 81.5q0 10 9 10h36q8 0 11 -10q17 -52 80 -52q64 0 79 52q3 10 12 10h35q9 0 9 -10q-5 -50 -41.5 -81.5t-93.5 -31.5zM157 0h-64q-10 0 -10 10v499q0 10 10 10h64q10 0 10 -10v-499q0 -10 -10 -10z" />
    <glyph glyph-name="icircumflex.sc" horiz-adv-x="251" 
d="M157 0h-64q-10 0 -10 10v499q0 10 10 10h64q10 0 10 -10v-499q0 -10 -10 -10zM254 597h-45q-10 0 -19 10l-63 70h-2l-64 -70q-9 -10 -19 -10h-45q-5 0 -6 3t2 7l95 123q7 10 16 10h43q9 0 16 -10l95 -123q3 -4 1.5 -7t-5.5 -3z" />
    <glyph glyph-name="itilde.sc" horiz-adv-x="251" 
d="M182 615q-25 0 -63 20q-29 18 -53 18q-29 0 -63 -32q-3 -3 -5.5 -2t-2.5 5v48q0 10 7 17q30 32 68 32q27 0 63 -20q29 -18 53 -18q29 0 63 32q3 3 5.5 2t2.5 -4v-49q0 -9 -7 -17q-30 -32 -68 -32zM157 0h-64q-10 0 -10 10v499q0 10 10 10h64q10 0 10 -10v-499
q0 -10 -10 -10z" />
    <glyph glyph-name="idieresis.sc" horiz-adv-x="251" 
d="M157 0h-64q-10 0 -10 10v499q0 10 10 10h64q10 0 10 -10v-499q0 -10 -10 -10zM254 627h-59q-10 0 -10 10v73q0 10 10 10h59q10 0 10 -10v-73q0 -10 -10 -10zM57 627h-59q-10 0 -10 10v73q0 10 10 10h59q10 0 10 -10v-73q0 -10 -10 -10z" />
    <glyph glyph-name="imacron.sc" horiz-adv-x="251" 
d="M157 0h-64q-10 0 -10 10v499q0 10 10 10h64q10 0 10 -10v-499q0 -10 -10 -10zM253 641h-255q-10 0 -10 10v45q0 10 10 10h255q10 0 10 -10v-45q0 -10 -10 -10z" />
    <glyph glyph-name="idotaccent.sc" horiz-adv-x="251" 
d="M160 627h-69q-10 0 -10 10v73q0 10 10 10h69q10 0 10 -10v-73q0 -10 -10 -10zM157 0h-64q-10 0 -10 10v499q0 10 10 10h64q10 0 10 -10v-499q0 -10 -10 -10z" />
    <glyph glyph-name="iogonek.sc" horiz-adv-x="251" 
d="M111 -182q-38 0 -60.5 20.5t-22.5 58.5q0 49 58 106q-3 1 -3 6v500q0 10 10 10h64q10 0 10 -10v-499q0 -6 -4 -10q-65 -57 -65 -89q0 -27 26 -27q13 0 27 8q10 5 14 -4l17 -35q4 -7 -4 -14q-30 -21 -67 -21z" />
    <glyph glyph-name="jcircumflex.sc" horiz-adv-x="438" 
d="M178 -9q-96 0 -147 63q-5 7 2 13l49 37q8 5 15 -2q34 -34 82 -34q95 0 95 106v335q0 10 10 10h64q10 0 10 -10v-335q0 -88 -47 -135.5t-133 -47.5zM441 597h-45q-10 0 -19 10l-63 70h-2l-64 -70q-9 -10 -19 -10h-45q-4 0 -5.5 3t1.5 7l95 123q7 10 16 10h43q9 0 16 -10
l95 -123q3 -4 2 -7t-6 -3z" />
    <glyph glyph-name="kcommaaccent.sc" horiz-adv-x="549" 
d="M251 -213q-9 0 -9 10v140q0 10 10 10h60q10 0 10 -10v-61q0 -12 -6 -20l-51 -61q-5 -8 -14 -8zM507 0h-76q-10 0 -15 9l-154 245l-95 -105v-139q0 -10 -10 -10h-64q-10 0 -10 10v499q0 10 10 10h64q10 0 10 -10v-257l227 259q7 8 16 8h77q5 0 6.5 -3.5t-1.5 -8.5
l-174 -191l195 -305q7 -11 -6 -11z" />
    <glyph glyph-name="lacute.sc" horiz-adv-x="471" 
d="M423 0h-330q-10 0 -10 10v499q0 10 10 10h64q10 0 10 -10v-425q0 -6 6 -6h250q10 0 10 -10v-58q0 -10 -10 -10zM157 597h-47q-11 0 -6 10l76 123q6 10 17 10h66q5 0 6.5 -3t-1.5 -7l-92 -123q-8 -10 -19 -10z" />
    <glyph glyph-name="lcaron.sc" horiz-adv-x="471" 
d="M423 0h-330q-10 0 -10 10v499q0 10 10 10h64q10 0 10 -10v-425q0 -6 6 -6h250q10 0 10 -10v-58q0 -10 -10 -10zM237 357q-10 0 -10 11v142q0 10 10 10h60q10 0 10 -10v-64q0 -12 -6 -20l-50 -61q-7 -8 -14 -8z" />
    <glyph glyph-name="lcommaaccent.sc" horiz-adv-x="471" 
d="M423 0h-330q-10 0 -10 10v499q0 10 10 10h64q10 0 10 -10v-425q0 -6 6 -6h250q10 0 10 -10v-58q0 -10 -10 -10zM234 -213q-9 0 -9 10v140q0 10 10 10h60q10 0 10 -10v-61q0 -12 -6 -20l-51 -61q-5 -8 -14 -8z" />
    <glyph glyph-name="lslash.sc" horiz-adv-x="471" 
d="M274 299l-107 -55v-160q0 -6 6 -6h250q10 0 10 -10v-58q0 -10 -10 -10h-330q-10 0 -10 10v194l-43 -22q-10 -5 -10 6v55q0 9 10 14l43 22v230q0 10 10 10h64q10 0 10 -10v-189l107 55q10 5 10 -6v-56q0 -9 -10 -14z" />
    <glyph glyph-name="ldot.sc" horiz-adv-x="471" 
d="M423 0h-330q-10 0 -10 10v499q0 10 10 10h64q10 0 10 -10v-425q0 -6 6 -6h250q10 0 10 -10v-58q0 -10 -10 -10zM397 212h-76q-10 0 -10 10v86q0 10 10 10h76q10 0 10 -10v-86q0 -10 -10 -10z" />
    <glyph glyph-name="nacute.sc" horiz-adv-x="581" 
d="M488 0h-61q-9 0 -16 10l-247 363h-3v-363q0 -10 -10 -10h-58q-10 0 -10 10v499q0 10 10 10h60q12 0 17 -10l246 -363h4v363q0 10 10 10h58q10 0 10 -10v-499q0 -10 -10 -10zM285 597h-47q-11 0 -6 10l76 123q6 10 17 10h66q5 0 6.5 -3t-1.5 -7l-92 -123q-8 -10 -19 -10z
" />
    <glyph glyph-name="ncaron.sc" horiz-adv-x="581" 
d="M488 0h-61q-9 0 -16 10l-247 363h-3v-363q0 -10 -10 -10h-58q-10 0 -10 10v499q0 10 10 10h60q12 0 17 -10l246 -363h4v363q0 10 10 10h58q10 0 10 -10v-499q0 -10 -10 -10zM311 597h-43q-10 0 -16 9l-95 124q-3 4 -2 7t6 3h45q10 0 19 -10l64 -71h2l63 71q9 10 19 10h45
q4 0 5.5 -3t-1.5 -7l-95 -124q-6 -9 -16 -9z" />
    <glyph glyph-name="ntilde.sc" horiz-adv-x="581" 
d="M488 0h-61q-9 0 -16 10l-247 363h-3v-363q0 -10 -10 -10h-58q-10 0 -10 10v499q0 10 10 10h60q12 0 17 -10l246 -363h4v363q0 10 10 10h58q10 0 10 -10v-499q0 -10 -10 -10zM346 615q-25 0 -63 20q-29 18 -53 18q-29 0 -63 -32q-3 -3 -5.5 -2t-2.5 5v48q0 10 7 17
q30 32 68 32q27 0 63 -20q29 -18 53 -18q29 0 63 32q3 3 5.5 2t2.5 -4v-49q0 -9 -7 -17q-30 -32 -68 -32z" />
    <glyph glyph-name="ncommaaccent.sc" horiz-adv-x="581" 
d="M259 -213q-9 0 -9 10v140q0 10 10 10h60q10 0 10 -10v-61q0 -12 -6 -20l-51 -61q-5 -8 -14 -8zM488 0h-61q-9 0 -16 10l-247 363h-3v-363q0 -10 -10 -10h-58q-10 0 -10 10v499q0 10 10 10h60q12 0 17 -10l246 -363h4v363q0 10 10 10h58q10 0 10 -10v-499q0 -10 -10 -10z
" />
    <glyph glyph-name="ograve.sc" horiz-adv-x="531" 
d="M265 -11q-72 0 -123.5 35.5t-72.5 100.5q-15 47 -15 135t15 135q21 64 72.5 99.5t123.5 35.5q73 0 124.5 -35.5t72.5 -99.5q15 -47 15 -135t-15 -135q-21 -65 -72.5 -100.5t-124.5 -35.5zM265 67q88 0 115 79q11 34 11 114t-11 113q-27 79 -115 79q-41 0 -71.5 -20
t-42.5 -59q-11 -33 -11 -113t11 -114q12 -39 42.5 -59t71.5 -20zM304 597h-47q-11 0 -19 10l-92 123q-3 4 -1.5 7t6.5 3h66q12 0 18 -10l75 -123q5 -10 -6 -10z" />
    <glyph glyph-name="oacute.sc" horiz-adv-x="531" 
d="M265 -11q-72 0 -123.5 35.5t-72.5 100.5q-15 47 -15 135t15 135q21 64 72.5 99.5t123.5 35.5q73 0 124.5 -35.5t72.5 -99.5q15 -47 15 -135t-15 -135q-21 -65 -72.5 -100.5t-124.5 -35.5zM265 67q88 0 115 79q11 34 11 114t-11 113q-27 79 -115 79q-41 0 -71.5 -20
t-42.5 -59q-11 -33 -11 -113t11 -114q12 -39 42.5 -59t71.5 -20zM272 597h-47q-11 0 -6 10l76 123q6 10 17 10h66q5 0 6.5 -3t-1.5 -7l-92 -123q-7 -10 -19 -10z" />
    <glyph glyph-name="ocircumflex.sc" horiz-adv-x="531" 
d="M265 -11q-72 0 -123.5 35.5t-72.5 100.5q-15 47 -15 135t15 135q21 64 72.5 99.5t123.5 35.5q73 0 124.5 -35.5t72.5 -99.5q15 -47 15 -135t-15 -135q-21 -65 -72.5 -100.5t-124.5 -35.5zM265 67q88 0 115 79q11 34 11 114t-11 113q-27 79 -115 79q-41 0 -71.5 -20
t-42.5 -59q-11 -33 -11 -113t11 -114q12 -39 42.5 -59t71.5 -20zM393 597h-45q-10 0 -19 10l-63 70h-2l-64 -70q-9 -10 -19 -10h-45q-4 0 -5.5 3t1.5 7l95 123q7 10 16 10h43q9 0 16 -10l95 -123q3 -4 2 -7t-6 -3z" />
    <glyph glyph-name="otilde.sc" horiz-adv-x="531" 
d="M265 -11q-72 0 -123.5 35.5t-72.5 100.5q-15 47 -15 135t15 135q21 64 72.5 99.5t123.5 35.5q73 0 124.5 -35.5t72.5 -99.5q15 -47 15 -135t-15 -135q-21 -65 -72.5 -100.5t-124.5 -35.5zM265 67q88 0 115 79q11 34 11 114t-11 113q-27 79 -115 79q-41 0 -71.5 -20
t-42.5 -59q-11 -33 -11 -113t11 -114q12 -39 42.5 -59t71.5 -20zM321 615q-25 0 -63 20q-29 18 -53 18q-29 0 -63 -32q-3 -3 -5.5 -2t-2.5 5v48q0 10 7 17q30 32 68 32q27 0 63 -20q29 -18 53 -18q29 0 63 32q3 3 5.5 2t2.5 -4v-49q0 -9 -7 -17q-30 -32 -68 -32z" />
    <glyph glyph-name="odieresis.sc" horiz-adv-x="531" 
d="M265 -11q-72 0 -123.5 35.5t-72.5 100.5q-15 47 -15 135t15 135q21 64 72.5 99.5t123.5 35.5q73 0 124.5 -35.5t72.5 -99.5q15 -47 15 -135t-15 -135q-21 -65 -72.5 -100.5t-124.5 -35.5zM265 67q88 0 115 79q11 34 11 114t-11 113q-27 79 -115 79q-41 0 -71.5 -20
t-42.5 -59q-11 -33 -11 -113t11 -114q12 -39 42.5 -59t71.5 -20zM393 627h-59q-10 0 -10 10v73q0 10 10 10h59q10 0 10 -10v-73q0 -10 -10 -10zM196 627h-59q-10 0 -10 10v73q0 10 10 10h59q10 0 10 -10v-73q0 -10 -10 -10z" />
    <glyph glyph-name="omacron.sc" horiz-adv-x="531" 
d="M265 -11q-72 0 -123.5 35.5t-72.5 100.5q-15 47 -15 135t15 135q21 64 72.5 99.5t123.5 35.5q73 0 124.5 -35.5t72.5 -99.5q15 -47 15 -135t-15 -135q-21 -65 -72.5 -100.5t-124.5 -35.5zM265 67q88 0 115 79q11 34 11 114t-11 113q-27 79 -115 79q-41 0 -71.5 -20
t-42.5 -59q-11 -33 -11 -113t11 -114q12 -39 42.5 -59t71.5 -20zM392 641h-255q-10 0 -10 10v45q0 10 10 10h255q10 0 10 -10v-45q0 -10 -10 -10z" />
    <glyph glyph-name="obreve.sc" horiz-adv-x="531" 
d="M265 -11q-72 0 -123.5 35.5t-72.5 100.5q-15 47 -15 135t15 135q21 64 72.5 99.5t123.5 35.5q73 0 124.5 -35.5t72.5 -99.5q15 -47 15 -135t-15 -135q-21 -65 -72.5 -100.5t-124.5 -35.5zM265 67q88 0 115 79q11 34 11 114t-11 113q-27 79 -115 79q-41 0 -71.5 -20
t-42.5 -59q-11 -33 -11 -113t11 -114q12 -39 42.5 -59t71.5 -20zM265 601q-58 0 -94.5 31.5t-41.5 81.5q0 10 9 10h36q8 0 11 -10q17 -52 80 -52q64 0 79 52q3 10 12 10h35q9 0 9 -10q-5 -50 -41.5 -81.5t-93.5 -31.5z" />
    <glyph glyph-name="ohungarumlaut.sc" horiz-adv-x="531" 
d="M356 597h-45q-11 0 -6 10l66 123q7 10 16 10h57q11 0 5 -10l-77 -124q-5 -9 -16 -9zM214 597h-45q-11 0 -6 10l66 123q7 10 16 10h57q11 0 5 -10l-77 -124q-5 -9 -16 -9zM265 -11q-72 0 -123.5 35.5t-72.5 100.5q-15 47 -15 135t15 135q21 64 72.5 99.5t123.5 35.5
q73 0 124.5 -35.5t72.5 -99.5q15 -47 15 -135t-15 -135q-21 -65 -72.5 -100.5t-124.5 -35.5zM265 67q88 0 115 79q11 34 11 114t-11 113q-27 79 -115 79q-41 0 -71.5 -20t-42.5 -59q-11 -33 -11 -113t11 -114q12 -39 42.5 -59t71.5 -20z" />
    <glyph glyph-name="oslash.sc" horiz-adv-x="531" 
d="M95 -30h-34q-5 0 -6.5 3t0.5 7l50 78q-24 29 -36 67q-15 47 -15 135t15 135q21 64 72.5 99.5t123.5 35.5t125 -36l30 45q6 10 16 10h34q11 0 5 -10l-50 -77q23 -28 37 -67q15 -47 15 -135t-15 -135q-21 -65 -72.5 -100.5t-124.5 -35.5q-72 0 -125 36l-29 -45
q-6 -10 -16 -10zM139 260q0 -89 16 -127l190 293q-34 26 -80 26q-41 0 -72 -20t-43 -59q-11 -33 -11 -113zM265 67q89 0 116 79q11 34 11 114q0 87 -16 126l-191 -293q32 -26 80 -26z" />
    <glyph glyph-name="oslashacute.sc" horiz-adv-x="531" 
d="M273 597h-47q-11 0 -6 10l76 123q6 10 17 10h66q5 0 6.5 -3t-1.5 -7l-92 -123q-8 -10 -19 -10zM95 -30h-34q-5 0 -6.5 3t0.5 7l50 78q-24 29 -36 67q-15 47 -15 135t15 135q21 64 72.5 99.5t123.5 35.5t125 -36l30 45q6 10 16 10h34q11 0 5 -10l-50 -77q23 -28 37 -67
q15 -47 15 -135t-15 -135q-21 -65 -72.5 -100.5t-124.5 -35.5q-72 0 -125 36l-29 -45q-6 -10 -16 -10zM139 260q0 -89 16 -127l190 293q-34 26 -80 26q-41 0 -72 -20t-43 -59q-11 -33 -11 -113zM265 67q89 0 116 79q11 34 11 114q0 87 -16 126l-191 -293q32 -26 80 -26z" />
    <glyph glyph-name="oe.sc" horiz-adv-x="811" 
d="M746 0h-345q-10 0 -10 10v37h-1q-39 -58 -130 -58q-70 0 -120 35.5t-71 100.5q-15 47 -15 135t15 135q21 64 71 99.5t120 35.5q90 0 130 -57h1v36q0 10 10 10h345q10 0 10 -10v-57q0 -10 -10 -10h-264q-6 0 -6 -6v-128q0 -6 6 -6h223q10 0 10 -10v-58q0 -10 -10 -10h-223
q-6 0 -6 -6v-134q0 -6 6 -6h264q10 0 10 -10v-58q0 -10 -10 -10zM265 67q88 0 115 79q11 34 11 114t-11 113q-27 79 -115 79q-41 0 -71.5 -20t-42.5 -59q-12 -36 -12 -113q0 -76 12 -114q12 -39 42.5 -59t71.5 -20z" />
    <glyph glyph-name="racute.sc" horiz-adv-x="547" 
d="M260 597h-47q-11 0 -6 10l76 123q6 10 17 10h66q5 0 6.5 -3t-1.5 -7l-92 -123q-7 -10 -19 -10zM486 0h-75q-8 0 -14 10l-108 200h-116q-6 0 -6 -6v-194q0 -10 -10 -10h-64q-10 0 -10 10v499q0 10 10 10h213q82 0 129.5 -42.5t47.5 -112.5q0 -52 -28 -89.5t-78 -54.5
l116 -208q2 -4 0 -8t-7 -4zM303 288q46 0 70.5 20t24.5 56q0 37 -24.5 57.5t-70.5 20.5h-130q-6 0 -6 -6v-142q0 -6 6 -6h130z" />
    <glyph glyph-name="rcaron.sc" horiz-adv-x="547" 
d="M283 597h-43q-10 0 -16 9l-95 124q-3 4 -2 7t6 3h45q10 0 19 -10l64 -71h2l63 71q9 10 19 10h45q4 0 5.5 -3t-1.5 -7l-95 -124q-6 -9 -16 -9zM486 0h-75q-8 0 -14 10l-108 200h-116q-6 0 -6 -6v-194q0 -10 -10 -10h-64q-10 0 -10 10v499q0 10 10 10h213q82 0 129.5 -42.5
t47.5 -112.5q0 -52 -28 -89.5t-78 -54.5l116 -208q2 -4 0 -8t-7 -4zM303 288q46 0 70.5 20t24.5 56q0 37 -24.5 57.5t-70.5 20.5h-130q-6 0 -6 -6v-142q0 -6 6 -6h130z" />
    <glyph glyph-name="rcommaaccent.sc" horiz-adv-x="547" 
d="M241 -213q-9 0 -9 10v140q0 10 10 10h60q10 0 10 -10v-61q0 -12 -6 -20l-51 -61q-5 -8 -14 -8zM486 0h-75q-8 0 -14 10l-108 200h-116q-6 0 -6 -6v-194q0 -10 -10 -10h-64q-10 0 -10 10v499q0 10 10 10h213q82 0 129.5 -42.5t47.5 -112.5q0 -52 -28 -89.5t-78 -54.5
l116 -208q2 -4 0 -8t-7 -4zM303 288q46 0 70.5 20t24.5 56q0 37 -24.5 57.5t-70.5 20.5h-130q-6 0 -6 -6v-142q0 -6 6 -6h130z" />
    <glyph glyph-name="sacute.sc" horiz-adv-x="499" 
d="M253 597h-47q-11 0 -6 10l76 123q6 10 17 10h66q5 0 6.5 -3t-1.5 -7l-92 -123q-8 -10 -19 -10zM244 -11q-59 0 -114.5 19.5t-88.5 48.5q-7 7 -1 14l41 48q6 7 14 1q70 -53 156 -53q55 0 86 21.5t31 56.5q0 31 -25 49.5t-86 26.5l-31 4q-168 21 -168 150q0 71 50.5 113
t137.5 42q106 0 176 -50q8 -6 3 -14l-32 -50q-6 -7 -14 -2q-67 38 -136 38q-47 0 -73 -20t-26 -53q0 -60 112 -75l30 -4q168 -22 168 -149q0 -72 -54.5 -117t-155.5 -45z" />
    <glyph glyph-name="scircumflex.sc" horiz-adv-x="499" 
d="M244 -11q-59 0 -114.5 19.5t-88.5 48.5q-7 7 -1 14l41 48q6 7 14 1q70 -53 156 -53q55 0 86 21.5t31 56.5q0 31 -25 49.5t-86 26.5l-31 4q-168 21 -168 150q0 71 50.5 113t137.5 42q106 0 176 -50q8 -6 3 -14l-32 -50q-6 -7 -14 -2q-67 38 -136 38q-47 0 -73 -20t-26 -53
q0 -60 112 -75l30 -4q168 -22 168 -149q0 -72 -54.5 -117t-155.5 -45zM381 597h-45q-10 0 -19 10l-63 70h-2l-64 -70q-9 -10 -19 -10h-45q-4 0 -5.5 3t1.5 7l95 123q7 10 16 10h43q9 0 16 -10l95 -123q3 -4 2 -7t-6 -3z" />
    <glyph glyph-name="scaron.sc" horiz-adv-x="499" 
d="M268 597h-43q-10 0 -16 9l-95 124q-3 4 -1.5 7t5.5 3h45q10 0 19 -10l64 -71h2l63 71q9 10 19 10h45q5 0 6 -3t-2 -7l-95 -124q-6 -9 -16 -9zM244 -11q-59 0 -114.5 19.5t-88.5 48.5q-7 7 -1 14l41 48q6 7 14 1q70 -53 156 -53q55 0 86 21.5t31 56.5q0 31 -25 49.5
t-86 26.5l-31 4q-168 21 -168 150q0 71 50.5 113t137.5 42q106 0 176 -50q8 -6 3 -14l-32 -50q-6 -7 -14 -2q-67 38 -136 38q-47 0 -73 -20t-26 -53q0 -60 112 -75l30 -4q168 -22 168 -149q0 -72 -54.5 -117t-155.5 -45z" />
    <glyph glyph-name="scedilla.sc" horiz-adv-x="499" 
d="M226 -152h-55q-10 0 -7 10l53 132q-111 9 -176 67q-7 7 -1 14l41 48q6 7 14 1q70 -53 156 -53q55 0 86 21.5t31 56.5q0 31 -25 49.5t-86 26.5l-31 4q-168 21 -168 150q0 71 50.5 113t137.5 42q106 0 176 -50q8 -6 3 -14l-32 -50q-6 -7 -14 -2q-67 38 -136 38
q-47 0 -73 -20t-26 -53q0 -60 112 -75l30 -4q168 -22 168 -149q0 -64 -44 -107.5t-125 -52.5l-43 -133q-3 -10 -16 -10z" />
    <glyph glyph-name="scommaaccent.sc" horiz-adv-x="499" 
d="M217 -213q-9 0 -9 10v140q0 10 10 10h60q10 0 10 -10v-61q0 -12 -6 -20l-51 -61q-5 -8 -14 -8zM244 -11q-59 0 -114.5 19.5t-88.5 48.5q-7 7 -1 14l41 48q6 7 14 1q70 -53 156 -53q55 0 86 21.5t31 56.5q0 31 -25 49.5t-86 26.5l-31 4q-168 21 -168 150q0 71 50.5 113
t137.5 42q106 0 176 -50q8 -6 3 -14l-32 -50q-6 -7 -14 -2q-67 38 -136 38q-47 0 -73 -20t-26 -53q0 -60 112 -75l30 -4q168 -22 168 -149q0 -72 -54.5 -117t-155.5 -45z" />
    <glyph glyph-name="tcaron.sc" horiz-adv-x="460" 
d="M262 0h-64q-10 0 -10 10v426q0 6 -6 6h-150q-10 0 -10 10v57q0 10 10 10h396q10 0 10 -10v-57q0 -10 -10 -10h-150q-6 0 -6 -6v-426q0 -10 -10 -10zM251 597h-43q-10 0 -16 9l-95 124q-3 4 -2 7t6 3h45q10 0 19 -10l64 -71h2l63 71q9 10 19 10h45q4 0 5.5 -3t-1.5 -7
l-95 -124q-6 -9 -16 -9z" />
    <glyph glyph-name="tcommaaccent.sc" horiz-adv-x="460" 
d="M262 0h-64q-10 0 -10 10v426q0 6 -6 6h-150q-10 0 -10 10v57q0 10 10 10h396q10 0 10 -10v-57q0 -10 -10 -10h-150q-6 0 -6 -6v-426q0 -10 -10 -10zM199 -213q-9 0 -9 10v140q0 10 10 10h60q10 0 10 -10v-61q0 -12 -6 -20l-51 -61q-5 -8 -14 -8z" />
    <glyph glyph-name="tbar.sc" horiz-adv-x="460" 
d="M262 0h-64q-10 0 -10 10v244q0 6 -6 6h-87q-10 0 -10 10v45q0 10 10 10h87q6 0 6 6v105q0 6 -6 6h-150q-10 0 -10 10v57q0 10 10 10h396q10 0 10 -10v-57q0 -10 -10 -10h-150q-6 0 -6 -6v-105q0 -6 6 -6h87q10 0 10 -10v-45q0 -10 -10 -10h-87q-6 0 -6 -6v-244
q0 -10 -10 -10z" />
    <glyph glyph-name="thorn.sc" horiz-adv-x="525" 
d="M157 0h-64q-10 0 -10 10v499q0 10 10 10h64q10 0 10 -10v-73q0 -6 6 -6h128q86 0 135.5 -44t49.5 -115t-49.5 -115t-135.5 -44h-128q-6 0 -6 -6v-96q0 -10 -10 -10zM299 189q49 0 75.5 21.5t26.5 60.5t-26.5 60.5t-75.5 21.5h-126q-6 0 -6 -6v-152q0 -6 6 -6h126z" />
    <glyph glyph-name="ugrave.sc" horiz-adv-x="562" 
d="M319 597h-47q-12 0 -19 10l-92 123q-3 4 -1.5 7t6.5 3h66q12 0 18 -10l75 -123q5 -10 -6 -10zM281 -11q-94 0 -149.5 54t-55.5 151v315q0 10 10 10h64q10 0 10 -10v-314q0 -62 32.5 -95t88.5 -33t88.5 33t32.5 95v314q0 10 10 10h64q10 0 10 -10v-315q0 -97 -55.5 -151
t-149.5 -54z" />
    <glyph glyph-name="uacute.sc" horiz-adv-x="562" 
d="M289 597h-47q-11 0 -6 10l76 123q6 10 17 10h66q5 0 6.5 -3t-1.5 -7l-92 -123q-8 -10 -19 -10zM281 -11q-94 0 -149.5 54t-55.5 151v315q0 10 10 10h64q10 0 10 -10v-314q0 -62 32.5 -95t88.5 -33t88.5 33t32.5 95v314q0 10 10 10h64q10 0 10 -10v-315q0 -97 -55.5 -151
t-149.5 -54z" />
    <glyph glyph-name="ucircumflex.sc" horiz-adv-x="562" 
d="M281 -11q-94 0 -149.5 54t-55.5 151v315q0 10 10 10h64q10 0 10 -10v-314q0 -62 32.5 -95t88.5 -33t88.5 33t32.5 95v314q0 10 10 10h64q10 0 10 -10v-315q0 -97 -55.5 -151t-149.5 -54zM409 597h-45q-10 0 -19 10l-63 70h-2l-64 -70q-9 -10 -19 -10h-45q-4 0 -5.5 3
t1.5 7l95 123q7 10 16 10h43q9 0 16 -10l95 -123q3 -4 2 -7t-6 -3z" />
    <glyph glyph-name="utilde.sc" horiz-adv-x="562" 
d="M337 615q-25 0 -63 20q-29 18 -53 18q-29 0 -63 -32q-3 -3 -5.5 -2t-2.5 5v48q0 10 7 17q30 32 68 32q27 0 63 -20q29 -18 53 -18q29 0 63 32q3 3 5.5 2t2.5 -4v-49q0 -9 -7 -17q-30 -32 -68 -32zM281 -11q-94 0 -149.5 54t-55.5 151v315q0 10 10 10h64q10 0 10 -10v-314
q0 -62 32.5 -95t88.5 -33t88.5 33t32.5 95v314q0 10 10 10h64q10 0 10 -10v-315q0 -97 -55.5 -151t-149.5 -54z" />
    <glyph glyph-name="udieresis.sc" horiz-adv-x="562" 
d="M409 627h-59q-10 0 -10 10v73q0 10 10 10h59q10 0 10 -10v-73q0 -10 -10 -10zM212 627h-59q-10 0 -10 10v73q0 10 10 10h59q10 0 10 -10v-73q0 -10 -10 -10zM281 -11q-94 0 -149.5 54t-55.5 151v315q0 10 10 10h64q10 0 10 -10v-314q0 -62 32.5 -95t88.5 -33t88.5 33
t32.5 95v314q0 10 10 10h64q10 0 10 -10v-315q0 -97 -55.5 -151t-149.5 -54z" />
    </font>
</defs>
</svg>
